<MIDIFile>
<Format>1</Format>
<TrackCount>17</TrackCount>
<TicksPerBeat>480</TicksPerBeat>
<TimestampType>Absolute</TimestampType>
<Track Number="0">
  <Event>
    <Absolute>0</Absolute>
    <TrackName>untitled</TrackName>
  </Event>
  <Event>
    <Absolute>0</Absolute>
    <SMPTEOffset TimeCodeType="1" Hour="96" Minute="0" Second="3" Frame="0" FractionalFrame="0"/>
  </Event>
  <Event>
    <Absolute>0</Absolute>
    <TimeSignature Numerator="6" LogDenominator="3" MIDIClocksPerMetronomeClick="12" ThirtySecondsPer24Clocks="8"/>
  </Event>
  <Event>
    <Absolute>0</Absolute>
    <KeySignature Fifths="1" Mode="0"/>
  </Event>
  <Event>
    <Absolute>0</Absolute>
    <SetTempo Value="240000"/>
  </Event>
  <Event>
    <Absolute>1200</Absolute>
    <SetTempo Value="375000"/>
  </Event>
  <Event>
    <Absolute>1440</Absolute>
    <Marker>A</Marker>
  </Event>
  <Event>
    <Absolute>18720</Absolute>
    <Marker>A'</Marker>
  </Event>
  <Event>
    <Absolute>36000</Absolute>
    <Marker>B</Marker>
  </Event>
  <Event>
    <Absolute>67680</Absolute>
    <Marker>B'</Marker>
  </Event>
  <Event>
    <Absolute>98880</Absolute>
    <SetTempo Value="1500000"/>
  </Event>
  <Event>
    <Absolute>98880</Absolute>
    <EndOfTrack/>
  </Event>
</Track>
<Track Number="1">
  <Event>
    <Absolute>0</Absolute>
    <MIDIChannelPrefix Value="00"/>
  </Event>
  <Event>
    <Absolute>0</Absolute>
    <TrackName>Solo Cello</TrackName>
  </Event>
  <Event>
    <Absolute>0</Absolute>
    <ProgramChange Channel="1" Number="42"/>
  </Event>
  <Event>
    <Absolute>0</Absolute>
    <ControlChange Channel="1" Control="7" Value="100"/>
  </Event>
  <Event>
    <Absolute>0</Absolute>
    <ControlChange Channel="1" Control="10" Value="64"/>
  </Event>
  <Event>
    <Absolute>1200</Absolute>
    <NoteOn Channel="1" Note="50" Velocity="100"/>
  </Event>
  <Event>
    <Absolute>1440</Absolute>
    <NoteOn Channel="1" Note="50" Velocity="0"/>
  </Event>
  <Event>
    <Absolute>1440</Absolute>
    <NoteOn Channel="1" Note="55" Velocity="100"/>
  </Event>
  <Event>
    <Absolute>1680</Absolute>
    <NoteOn Channel="1" Note="55" Velocity="0"/>
  </Event>
  <Event>
    <Absolute>1680</Absolute>
    <NoteOn Channel="1" Note="50" Velocity="100"/>
  </Event>
  <Event>
    <Absolute>1920</Absolute>
    <NoteOn Channel="1" Note="50" Velocity="0"/>
  </Event>
  <Event>
    <Absolute>1920</Absolute>
    <NoteOn Channel="1" Note="52" Velocity="100"/>
  </Event>
  <Event>
    <Absolute>2160</Absolute>
    <NoteOn Channel="1" Note="52" Velocity="0"/>
  </Event>
  <Event>
    <Absolute>2160</Absolute>
    <NoteOn Channel="1" Note="52" Velocity="100"/>
  </Event>
  <Event>
    <Absolute>2400</Absolute>
    <NoteOn Channel="1" Note="52" Velocity="0"/>
  </Event>
  <Event>
    <Absolute>2400</Absolute>
    <NoteOn Channel="1" Note="48" Velocity="100"/>
  </Event>
  <Event>
    <Absolute>2640</Absolute>
    <NoteOn Channel="1" Note="48" Velocity="0"/>
  </Event>
  <Event>
    <Absolute>2640</Absolute>
    <NoteOn Channel="1" Note="50" Velocity="100"/>
  </Event>
  <Event>
    <Absolute>2880</Absolute>
    <NoteOn Channel="1" Note="50" Velocity="0"/>
  </Event>
  <Event>
    <Absolute>2880</Absolute>
    <NoteOn Channel="1" Note="50" Velocity="100"/>
  </Event>
  <Event>
    <Absolute>3120</Absolute>
    <NoteOn Channel="1" Note="50" Velocity="0"/>
  </Event>
  <Event>
    <Absolute>3120</Absolute>
    <NoteOn Channel="1" Note="55" Velocity="100"/>
  </Event>
  <Event>
    <Absolute>3360</Absolute>
    <NoteOn Channel="1" Note="55" Velocity="0"/>
  </Event>
  <Event>
    <Absolute>3360</Absolute>
    <NoteOn Channel="1" Note="50" Velocity="100"/>
  </Event>
  <Event>
    <Absolute>3600</Absolute>
    <NoteOn Channel="1" Note="50" Velocity="0"/>
  </Event>
  <Event>
    <Absolute>3600</Absolute>
    <NoteOn Channel="1" Note="47" Velocity="100"/>
  </Event>
  <Event>
    <Absolute>3840</Absolute>
    <NoteOn Channel="1" Note="47" Velocity="0"/>
  </Event>
  <Event>
    <Absolute>3840</Absolute>
    <NoteOn Channel="1" Note="43" Velocity="100"/>
  </Event>
  <Event>
    <Absolute>4080</Absolute>
    <NoteOn Channel="1" Note="43" Velocity="0"/>
  </Event>
  <Event>
    <Absolute>4080</Absolute>
    <NoteOn Channel="1" Note="50" Velocity="100"/>
  </Event>
  <Event>
    <Absolute>4320</Absolute>
    <NoteOn Channel="1" Note="50" Velocity="0"/>
  </Event>
  <Event>
    <Absolute>4320</Absolute>
    <NoteOn Channel="1" Note="55" Velocity="100"/>
  </Event>
  <Event>
    <Absolute>4440</Absolute>
    <NoteOn Channel="1" Note="55" Velocity="0"/>
  </Event>
  <Event>
    <Absolute>4440</Absolute>
    <NoteOn Channel="1" Note="57" Velocity="100"/>
  </Event>
  <Event>
    <Absolute>4560</Absolute>
    <NoteOn Channel="1" Note="57" Velocity="0"/>
  </Event>
  <Event>
    <Absolute>4560</Absolute>
    <NoteOn Channel="1" Note="59" Velocity="100"/>
  </Event>
  <Event>
    <Absolute>4800</Absolute>
    <NoteOn Channel="1" Note="59" Velocity="0"/>
  </Event>
  <Event>
    <Absolute>4800</Absolute>
    <NoteOn Channel="1" Note="57" Velocity="100"/>
  </Event>
  <Event>
    <Absolute>5040</Absolute>
    <NoteOn Channel="1" Note="57" Velocity="0"/>
  </Event>
  <Event>
    <Absolute>5040</Absolute>
    <NoteOn Channel="1" Note="57" Velocity="100"/>
  </Event>
  <Event>
    <Absolute>5160</Absolute>
    <NoteOn Channel="1" Note="57" Velocity="0"/>
  </Event>
  <Event>
    <Absolute>5160</Absolute>
    <NoteOn Channel="1" Note="59" Velocity="100"/>
  </Event>
  <Event>
    <Absolute>5280</Absolute>
    <NoteOn Channel="1" Note="59" Velocity="0"/>
  </Event>
  <Event>
    <Absolute>5280</Absolute>
    <NoteOn Channel="1" Note="60" Velocity="100"/>
  </Event>
  <Event>
    <Absolute>5520</Absolute>
    <NoteOn Channel="1" Note="60" Velocity="0"/>
  </Event>
  <Event>
    <Absolute>5520</Absolute>
    <NoteOn Channel="1" Note="59" Velocity="100"/>
  </Event>
  <Event>
    <Absolute>5760</Absolute>
    <NoteOn Channel="1" Note="59" Velocity="0"/>
  </Event>
  <Event>
    <Absolute>5760</Absolute>
    <PitchBendChange Channel="1" Value="12288"/>
  </Event>
  <Event>
    <Absolute>5760</Absolute>
    <NoteOn Channel="1" Note="59" Velocity="100"/>
  </Event>
  <Event>
    <Absolute>5840</Absolute>
    <PitchBendChange Channel="1" Value="8192"/>
  </Event>
  <Event>
    <Absolute>5920</Absolute>
    <PitchBendChange Channel="1" Value="12288"/>
  </Event>
  <Event>
    <Absolute>6000</Absolute>
    <PitchBendChange Channel="1" Value="8192"/>
  </Event>
  <Event>
    <Absolute>6480</Absolute>
    <NoteOn Channel="1" Note="59" Velocity="0"/>
  </Event>
  <Event>
    <Absolute>6480</Absolute>
    <NoteOn Channel="1" Note="57" Velocity="100"/>
  </Event>
  <Event>
    <Absolute>6960</Absolute>
    <NoteOn Channel="1" Note="57" Velocity="0"/>
  </Event>
  <Event>
    <Absolute>6960</Absolute>
    <NoteOn Channel="1" Note="57" Velocity="100"/>
  </Event>
  <Event>
    <Absolute>7200</Absolute>
    <NoteOn Channel="1" Note="57" Velocity="0"/>
  </Event>
  <Event>
    <Absolute>7200</Absolute>
    <NoteOn Channel="1" Note="59" Velocity="100"/>
  </Event>
  <Event>
    <Absolute>7440</Absolute>
    <NoteOn Channel="1" Note="59" Velocity="0"/>
  </Event>
  <Event>
    <Absolute>7440</Absolute>
    <NoteOn Channel="1" Note="54" Velocity="100"/>
  </Event>
  <Event>
    <Absolute>7680</Absolute>
    <NoteOn Channel="1" Note="54" Velocity="0"/>
  </Event>
  <Event>
    <Absolute>7680</Absolute>
    <NoteOn Channel="1" Note="55" Velocity="100"/>
  </Event>
  <Event>
    <Absolute>7920</Absolute>
    <NoteOn Channel="1" Note="55" Velocity="0"/>
  </Event>
  <Event>
    <Absolute>7920</Absolute>
    <NoteOn Channel="1" Note="55" Velocity="100"/>
  </Event>
  <Event>
    <Absolute>8160</Absolute>
    <NoteOn Channel="1" Note="55" Velocity="0"/>
  </Event>
  <Event>
    <Absolute>8160</Absolute>
    <NoteOn Channel="1" Note="52" Velocity="100"/>
  </Event>
  <Event>
    <Absolute>8400</Absolute>
    <NoteOn Channel="1" Note="52" Velocity="0"/>
  </Event>
  <Event>
    <Absolute>8400</Absolute>
    <NoteOn Channel="1" Note="55" Velocity="100"/>
  </Event>
  <Event>
    <Absolute>8640</Absolute>
    <NoteOn Channel="1" Note="55" Velocity="0"/>
  </Event>
  <Event>
    <Absolute>8640</Absolute>
    <NoteOn Channel="1" Note="57" Velocity="100"/>
  </Event>
  <Event>
    <Absolute>8880</Absolute>
    <NoteOn Channel="1" Note="57" Velocity="0"/>
  </Event>
  <Event>
    <Absolute>8880</Absolute>
    <NoteOn Channel="1" Note="52" Velocity="100"/>
  </Event>
  <Event>
    <Absolute>9120</Absolute>
    <NoteOn Channel="1" Note="52" Velocity="0"/>
  </Event>
  <Event>
    <Absolute>9120</Absolute>
    <NoteOn Channel="1" Note="54" Velocity="100"/>
  </Event>
  <Event>
    <Absolute>9360</Absolute>
    <NoteOn Channel="1" Note="54" Velocity="0"/>
  </Event>
  <Event>
    <Absolute>9360</Absolute>
    <NoteOn Channel="1" Note="54" Velocity="100"/>
  </Event>
  <Event>
    <Absolute>9600</Absolute>
    <NoteOn Channel="1" Note="54" Velocity="0"/>
  </Event>
  <Event>
    <Absolute>9600</Absolute>
    <NoteOn Channel="1" Note="50" Velocity="100"/>
  </Event>
  <Event>
    <Absolute>9840</Absolute>
    <NoteOn Channel="1" Note="50" Velocity="0"/>
  </Event>
  <Event>
    <Absolute>9840</Absolute>
    <NoteOn Channel="1" Note="54" Velocity="100"/>
  </Event>
  <Event>
    <Absolute>10080</Absolute>
    <NoteOn Channel="1" Note="54" Velocity="0"/>
  </Event>
  <Event>
    <Absolute>10080</Absolute>
    <NoteOn Channel="1" Note="55" Velocity="100"/>
  </Event>
  <Event>
    <Absolute>10320</Absolute>
    <NoteOn Channel="1" Note="55" Velocity="0"/>
  </Event>
  <Event>
    <Absolute>10320</Absolute>
    <NoteOn Channel="1" Note="59" Velocity="100"/>
  </Event>
  <Event>
    <Absolute>10560</Absolute>
    <NoteOn Channel="1" Note="59" Velocity="0"/>
  </Event>
  <Event>
    <Absolute>10560</Absolute>
    <NoteOn Channel="1" Note="55" Velocity="100"/>
  </Event>
  <Event>
    <Absolute>10800</Absolute>
    <NoteOn Channel="1" Note="55" Velocity="0"/>
  </Event>
  <Event>
    <Absolute>10800</Absolute>
    <NoteOn Channel="1" Note="52" Velocity="100"/>
  </Event>
  <Event>
    <Absolute>11040</Absolute>
    <NoteOn Channel="1" Note="52" Velocity="0"/>
  </Event>
  <Event>
    <Absolute>11040</Absolute>
    <NoteOn Channel="1" Note="47" Velocity="100"/>
  </Event>
  <Event>
    <Absolute>11280</Absolute>
    <NoteOn Channel="1" Note="47" Velocity="0"/>
  </Event>
  <Event>
    <Absolute>11280</Absolute>
    <NoteOn Channel="1" Note="50" Velocity="100"/>
  </Event>
  <Event>
    <Absolute>11520</Absolute>
    <NoteOn Channel="1" Note="50" Velocity="0"/>
  </Event>
  <Event>
    <Absolute>11520</Absolute>
    <NoteOn Channel="1" Note="49" Velocity="100"/>
  </Event>
  <Event>
    <Absolute>11760</Absolute>
    <NoteOn Channel="1" Note="49" Velocity="0"/>
  </Event>
  <Event>
    <Absolute>11760</Absolute>
    <NoteOn Channel="1" Note="52" Velocity="100"/>
  </Event>
  <Event>
    <Absolute>12000</Absolute>
    <NoteOn Channel="1" Note="52" Velocity="0"/>
  </Event>
  <Event>
    <Absolute>12000</Absolute>
    <NoteOn Channel="1" Note="57" Velocity="100"/>
  </Event>
  <Event>
    <Absolute>12240</Absolute>
    <NoteOn Channel="1" Note="57" Velocity="0"/>
  </Event>
  <Event>
    <Absolute>12240</Absolute>
    <NoteOn Channel="1" Note="45" Velocity="100"/>
  </Event>
  <Event>
    <Absolute>12720</Absolute>
    <NoteOn Channel="1" Note="45" Velocity="0"/>
  </Event>
  <Event>
    <Absolute>12720</Absolute>
    <NoteOn Channel="1" Note="52" Velocity="100"/>
  </Event>
  <Event>
    <Absolute>12960</Absolute>
    <NoteOn Channel="1" Note="52" Velocity="0"/>
  </Event>
  <Event>
    <Absolute>12960</Absolute>
    <NoteOn Channel="1" Note="53" Velocity="100"/>
  </Event>
  <Event>
    <Absolute>13200</Absolute>
    <NoteOn Channel="1" Note="53" Velocity="0"/>
  </Event>
  <Event>
    <Absolute>13200</Absolute>
    <NoteOn Channel="1" Note="52" Velocity="100"/>
  </Event>
  <Event>
    <Absolute>13440</Absolute>
    <NoteOn Channel="1" Note="52" Velocity="0"/>
  </Event>
  <Event>
    <Absolute>13440</Absolute>
    <NoteOn Channel="1" Note="55" Velocity="100"/>
  </Event>
  <Event>
    <Absolute>13680</Absolute>
    <NoteOn Channel="1" Note="55" Velocity="0"/>
  </Event>
  <Event>
    <Absolute>13680</Absolute>
    <NoteOn Channel="1" Note="55" Velocity="100"/>
  </Event>
  <Event>
    <Absolute>13920</Absolute>
    <NoteOn Channel="1" Note="55" Velocity="0"/>
  </Event>
  <Event>
    <Absolute>13920</Absolute>
    <NoteOn Channel="1" Note="53" Velocity="100"/>
  </Event>
  <Event>
    <Absolute>14160</Absolute>
    <NoteOn Channel="1" Note="53" Velocity="0"/>
  </Event>
  <Event>
    <Absolute>14160</Absolute>
    <NoteOn Channel="1" Note="57" Velocity="100"/>
  </Event>
  <Event>
    <Absolute>14400</Absolute>
    <NoteOn Channel="1" Note="57" Velocity="0"/>
  </Event>
  <Event>
    <Absolute>14400</Absolute>
    <NoteOn Channel="1" Note="57" Velocity="100"/>
  </Event>
  <Event>
    <Absolute>14640</Absolute>
    <NoteOn Channel="1" Note="57" Velocity="0"/>
  </Event>
  <Event>
    <Absolute>14640</Absolute>
    <NoteOn Channel="1" Note="55" Velocity="100"/>
  </Event>
  <Event>
    <Absolute>14880</Absolute>
    <NoteOn Channel="1" Note="55" Velocity="0"/>
  </Event>
  <Event>
    <Absolute>14880</Absolute>
    <NoteOn Channel="1" Note="58" Velocity="100"/>
  </Event>
  <Event>
    <Absolute>15120</Absolute>
    <NoteOn Channel="1" Note="58" Velocity="0"/>
  </Event>
  <Event>
    <Absolute>15120</Absolute>
    <NoteOn Channel="1" Note="58" Velocity="100"/>
  </Event>
  <Event>
    <Absolute>15360</Absolute>
    <NoteOn Channel="1" Note="58" Velocity="0"/>
  </Event>
  <Event>
    <Absolute>15360</Absolute>
    <NoteOn Channel="1" Note="57" Velocity="100"/>
  </Event>
  <Event>
    <Absolute>15600</Absolute>
    <NoteOn Channel="1" Note="57" Velocity="0"/>
  </Event>
  <Event>
    <Absolute>15600</Absolute>
    <NoteOn Channel="1" Note="55" Velocity="100"/>
  </Event>
  <Event>
    <Absolute>15840</Absolute>
    <NoteOn Channel="1" Note="55" Velocity="0"/>
  </Event>
  <Event>
    <Absolute>15840</Absolute>
    <NoteOn Channel="1" Note="53" Velocity="100"/>
  </Event>
  <Event>
    <Absolute>16080</Absolute>
    <NoteOn Channel="1" Note="53" Velocity="0"/>
  </Event>
  <Event>
    <Absolute>16080</Absolute>
    <NoteOn Channel="1" Note="52" Velocity="100"/>
  </Event>
  <Event>
    <Absolute>16320</Absolute>
    <NoteOn Channel="1" Note="52" Velocity="0"/>
  </Event>
  <Event>
    <Absolute>16320</Absolute>
    <NoteOn Channel="1" Note="50" Velocity="100"/>
  </Event>
  <Event>
    <Absolute>16560</Absolute>
    <NoteOn Channel="1" Note="50" Velocity="0"/>
  </Event>
  <Event>
    <Absolute>16560</Absolute>
    <NoteOn Channel="1" Note="45" Velocity="100"/>
  </Event>
  <Event>
    <Absolute>16800</Absolute>
    <NoteOn Channel="1" Note="45" Velocity="0"/>
  </Event>
  <Event>
    <Absolute>16800</Absolute>
    <NoteOn Channel="1" Note="50" Velocity="100"/>
  </Event>
  <Event>
    <Absolute>17040</Absolute>
    <NoteOn Channel="1" Note="50" Velocity="0"/>
  </Event>
  <Event>
    <Absolute>17040</Absolute>
    <NoteOn Channel="1" Note="49" Velocity="100"/>
  </Event>
  <Event>
    <Absolute>17280</Absolute>
    <NoteOn Channel="1" Note="49" Velocity="0"/>
  </Event>
  <Event>
    <Absolute>17280</Absolute>
    <NoteOn Channel="1" Note="50" Velocity="100"/>
  </Event>
  <Event>
    <Absolute>17520</Absolute>
    <NoteOn Channel="1" Note="50" Velocity="0"/>
  </Event>
  <Event>
    <Absolute>17520</Absolute>
    <NoteOn Channel="1" Note="45" Velocity="100"/>
  </Event>
  <Event>
    <Absolute>17760</Absolute>
    <NoteOn Channel="1" Note="45" Velocity="0"/>
  </Event>
  <Event>
    <Absolute>17760</Absolute>
    <NoteOn Channel="1" Note="42" Velocity="100"/>
  </Event>
  <Event>
    <Absolute>18000</Absolute>
    <NoteOn Channel="1" Note="42" Velocity="0"/>
  </Event>
  <Event>
    <Absolute>18000</Absolute>
    <NoteOn Channel="1" Note="38" Velocity="100"/>
  </Event>
  <Event>
    <Absolute>18480</Absolute>
    <NoteOn Channel="1" Note="38" Velocity="0"/>
  </Event>
  <Event>
    <Absolute>18480</Absolute>
    <NoteOn Channel="1" Note="50" Velocity="100"/>
  </Event>
  <Event>
    <Absolute>18720</Absolute>
    <NoteOn Channel="1" Note="50" Velocity="0"/>
  </Event>
  <Event>
    <Absolute>18720</Absolute>
    <NoteOn Channel="1" Note="55" Velocity="100"/>
  </Event>
  <Event>
    <Absolute>18960</Absolute>
    <NoteOn Channel="1" Note="55" Velocity="0"/>
  </Event>
  <Event>
    <Absolute>18960</Absolute>
    <NoteOn Channel="1" Note="50" Velocity="100"/>
  </Event>
  <Event>
    <Absolute>19200</Absolute>
    <NoteOn Channel="1" Note="50" Velocity="0"/>
  </Event>
  <Event>
    <Absolute>19200</Absolute>
    <NoteOn Channel="1" Note="52" Velocity="100"/>
  </Event>
  <Event>
    <Absolute>19440</Absolute>
    <NoteOn Channel="1" Note="52" Velocity="0"/>
  </Event>
  <Event>
    <Absolute>19440</Absolute>
    <NoteOn Channel="1" Note="52" Velocity="100"/>
  </Event>
  <Event>
    <Absolute>19680</Absolute>
    <NoteOn Channel="1" Note="52" Velocity="0"/>
  </Event>
  <Event>
    <Absolute>19680</Absolute>
    <NoteOn Channel="1" Note="48" Velocity="100"/>
  </Event>
  <Event>
    <Absolute>19920</Absolute>
    <NoteOn Channel="1" Note="48" Velocity="0"/>
  </Event>
  <Event>
    <Absolute>19920</Absolute>
    <NoteOn Channel="1" Note="50" Velocity="100"/>
  </Event>
  <Event>
    <Absolute>20160</Absolute>
    <NoteOn Channel="1" Note="50" Velocity="0"/>
  </Event>
  <Event>
    <Absolute>20160</Absolute>
    <NoteOn Channel="1" Note="50" Velocity="100"/>
  </Event>
  <Event>
    <Absolute>20400</Absolute>
    <NoteOn Channel="1" Note="50" Velocity="0"/>
  </Event>
  <Event>
    <Absolute>20400</Absolute>
    <NoteOn Channel="1" Note="55" Velocity="100"/>
  </Event>
  <Event>
    <Absolute>20640</Absolute>
    <NoteOn Channel="1" Note="55" Velocity="0"/>
  </Event>
  <Event>
    <Absolute>20640</Absolute>
    <NoteOn Channel="1" Note="50" Velocity="100"/>
  </Event>
  <Event>
    <Absolute>20880</Absolute>
    <NoteOn Channel="1" Note="50" Velocity="0"/>
  </Event>
  <Event>
    <Absolute>20880</Absolute>
    <NoteOn Channel="1" Note="47" Velocity="100"/>
  </Event>
  <Event>
    <Absolute>21120</Absolute>
    <NoteOn Channel="1" Note="47" Velocity="0"/>
  </Event>
  <Event>
    <Absolute>21120</Absolute>
    <NoteOn Channel="1" Note="43" Velocity="100"/>
  </Event>
  <Event>
    <Absolute>21360</Absolute>
    <NoteOn Channel="1" Note="43" Velocity="0"/>
  </Event>
  <Event>
    <Absolute>21360</Absolute>
    <NoteOn Channel="1" Note="50" Velocity="100"/>
  </Event>
  <Event>
    <Absolute>21600</Absolute>
    <NoteOn Channel="1" Note="50" Velocity="0"/>
  </Event>
  <Event>
    <Absolute>21600</Absolute>
    <NoteOn Channel="1" Note="55" Velocity="100"/>
  </Event>
  <Event>
    <Absolute>21720</Absolute>
    <NoteOn Channel="1" Note="55" Velocity="0"/>
  </Event>
  <Event>
    <Absolute>21720</Absolute>
    <NoteOn Channel="1" Note="57" Velocity="100"/>
  </Event>
  <Event>
    <Absolute>21840</Absolute>
    <NoteOn Channel="1" Note="57" Velocity="0"/>
  </Event>
  <Event>
    <Absolute>21840</Absolute>
    <NoteOn Channel="1" Note="59" Velocity="100"/>
  </Event>
  <Event>
    <Absolute>22080</Absolute>
    <NoteOn Channel="1" Note="59" Velocity="0"/>
  </Event>
  <Event>
    <Absolute>22080</Absolute>
    <NoteOn Channel="1" Note="57" Velocity="100"/>
  </Event>
  <Event>
    <Absolute>22320</Absolute>
    <NoteOn Channel="1" Note="57" Velocity="0"/>
  </Event>
  <Event>
    <Absolute>22320</Absolute>
    <NoteOn Channel="1" Note="57" Velocity="100"/>
  </Event>
  <Event>
    <Absolute>22440</Absolute>
    <NoteOn Channel="1" Note="57" Velocity="0"/>
  </Event>
  <Event>
    <Absolute>22440</Absolute>
    <NoteOn Channel="1" Note="59" Velocity="100"/>
  </Event>
  <Event>
    <Absolute>22560</Absolute>
    <NoteOn Channel="1" Note="59" Velocity="0"/>
  </Event>
  <Event>
    <Absolute>22560</Absolute>
    <NoteOn Channel="1" Note="60" Velocity="100"/>
  </Event>
  <Event>
    <Absolute>22800</Absolute>
    <NoteOn Channel="1" Note="60" Velocity="0"/>
  </Event>
  <Event>
    <Absolute>22800</Absolute>
    <NoteOn Channel="1" Note="59" Velocity="100"/>
  </Event>
  <Event>
    <Absolute>23040</Absolute>
    <NoteOn Channel="1" Note="59" Velocity="0"/>
  </Event>
  <Event>
    <Absolute>23040</Absolute>
    <PitchBendChange Channel="1" Value="12288"/>
  </Event>
  <Event>
    <Absolute>23040</Absolute>
    <NoteOn Channel="1" Note="59" Velocity="100"/>
  </Event>
  <Event>
    <Absolute>23120</Absolute>
    <PitchBendChange Channel="1" Value="8192"/>
  </Event>
  <Event>
    <Absolute>23200</Absolute>
    <PitchBendChange Channel="1" Value="12288"/>
  </Event>
  <Event>
    <Absolute>23280</Absolute>
    <PitchBendChange Channel="1" Value="8192"/>
  </Event>
  <Event>
    <Absolute>23760</Absolute>
    <NoteOn Channel="1" Note="59" Velocity="0"/>
  </Event>
  <Event>
    <Absolute>23760</Absolute>
    <NoteOn Channel="1" Note="57" Velocity="100"/>
  </Event>
  <Event>
    <Absolute>24240</Absolute>
    <NoteOn Channel="1" Note="57" Velocity="0"/>
  </Event>
  <Event>
    <Absolute>24240</Absolute>
    <NoteOn Channel="1" Note="57" Velocity="100"/>
  </Event>
  <Event>
    <Absolute>24480</Absolute>
    <NoteOn Channel="1" Note="57" Velocity="0"/>
  </Event>
  <Event>
    <Absolute>24480</Absolute>
    <NoteOn Channel="1" Note="59" Velocity="100"/>
  </Event>
  <Event>
    <Absolute>24720</Absolute>
    <NoteOn Channel="1" Note="59" Velocity="0"/>
  </Event>
  <Event>
    <Absolute>24720</Absolute>
    <NoteOn Channel="1" Note="54" Velocity="100"/>
  </Event>
  <Event>
    <Absolute>24960</Absolute>
    <NoteOn Channel="1" Note="54" Velocity="0"/>
  </Event>
  <Event>
    <Absolute>24960</Absolute>
    <NoteOn Channel="1" Note="55" Velocity="100"/>
  </Event>
  <Event>
    <Absolute>25200</Absolute>
    <NoteOn Channel="1" Note="55" Velocity="0"/>
  </Event>
  <Event>
    <Absolute>25200</Absolute>
    <NoteOn Channel="1" Note="55" Velocity="100"/>
  </Event>
  <Event>
    <Absolute>25440</Absolute>
    <NoteOn Channel="1" Note="55" Velocity="0"/>
  </Event>
  <Event>
    <Absolute>25440</Absolute>
    <NoteOn Channel="1" Note="52" Velocity="100"/>
  </Event>
  <Event>
    <Absolute>25680</Absolute>
    <NoteOn Channel="1" Note="52" Velocity="0"/>
  </Event>
  <Event>
    <Absolute>25680</Absolute>
    <NoteOn Channel="1" Note="55" Velocity="100"/>
  </Event>
  <Event>
    <Absolute>25920</Absolute>
    <NoteOn Channel="1" Note="55" Velocity="0"/>
  </Event>
  <Event>
    <Absolute>25920</Absolute>
    <NoteOn Channel="1" Note="57" Velocity="100"/>
  </Event>
  <Event>
    <Absolute>26160</Absolute>
    <NoteOn Channel="1" Note="57" Velocity="0"/>
  </Event>
  <Event>
    <Absolute>26160</Absolute>
    <NoteOn Channel="1" Note="52" Velocity="100"/>
  </Event>
  <Event>
    <Absolute>26400</Absolute>
    <NoteOn Channel="1" Note="52" Velocity="0"/>
  </Event>
  <Event>
    <Absolute>26400</Absolute>
    <NoteOn Channel="1" Note="54" Velocity="100"/>
  </Event>
  <Event>
    <Absolute>26640</Absolute>
    <NoteOn Channel="1" Note="54" Velocity="0"/>
  </Event>
  <Event>
    <Absolute>26640</Absolute>
    <NoteOn Channel="1" Note="54" Velocity="100"/>
  </Event>
  <Event>
    <Absolute>26880</Absolute>
    <NoteOn Channel="1" Note="54" Velocity="0"/>
  </Event>
  <Event>
    <Absolute>26880</Absolute>
    <NoteOn Channel="1" Note="50" Velocity="100"/>
  </Event>
  <Event>
    <Absolute>27120</Absolute>
    <NoteOn Channel="1" Note="50" Velocity="0"/>
  </Event>
  <Event>
    <Absolute>27120</Absolute>
    <NoteOn Channel="1" Note="54" Velocity="100"/>
  </Event>
  <Event>
    <Absolute>27360</Absolute>
    <NoteOn Channel="1" Note="54" Velocity="0"/>
  </Event>
  <Event>
    <Absolute>27360</Absolute>
    <NoteOn Channel="1" Note="55" Velocity="100"/>
  </Event>
  <Event>
    <Absolute>27600</Absolute>
    <NoteOn Channel="1" Note="55" Velocity="0"/>
  </Event>
  <Event>
    <Absolute>27600</Absolute>
    <NoteOn Channel="1" Note="59" Velocity="100"/>
  </Event>
  <Event>
    <Absolute>27840</Absolute>
    <NoteOn Channel="1" Note="59" Velocity="0"/>
  </Event>
  <Event>
    <Absolute>27840</Absolute>
    <NoteOn Channel="1" Note="55" Velocity="100"/>
  </Event>
  <Event>
    <Absolute>28080</Absolute>
    <NoteOn Channel="1" Note="55" Velocity="0"/>
  </Event>
  <Event>
    <Absolute>28080</Absolute>
    <NoteOn Channel="1" Note="52" Velocity="100"/>
  </Event>
  <Event>
    <Absolute>28320</Absolute>
    <NoteOn Channel="1" Note="52" Velocity="0"/>
  </Event>
  <Event>
    <Absolute>28320</Absolute>
    <NoteOn Channel="1" Note="47" Velocity="100"/>
  </Event>
  <Event>
    <Absolute>28560</Absolute>
    <NoteOn Channel="1" Note="47" Velocity="0"/>
  </Event>
  <Event>
    <Absolute>28560</Absolute>
    <NoteOn Channel="1" Note="50" Velocity="100"/>
  </Event>
  <Event>
    <Absolute>28800</Absolute>
    <NoteOn Channel="1" Note="50" Velocity="0"/>
  </Event>
  <Event>
    <Absolute>28800</Absolute>
    <NoteOn Channel="1" Note="49" Velocity="100"/>
  </Event>
  <Event>
    <Absolute>29040</Absolute>
    <NoteOn Channel="1" Note="49" Velocity="0"/>
  </Event>
  <Event>
    <Absolute>29040</Absolute>
    <NoteOn Channel="1" Note="52" Velocity="100"/>
  </Event>
  <Event>
    <Absolute>29280</Absolute>
    <NoteOn Channel="1" Note="52" Velocity="0"/>
  </Event>
  <Event>
    <Absolute>29280</Absolute>
    <NoteOn Channel="1" Note="57" Velocity="100"/>
  </Event>
  <Event>
    <Absolute>29520</Absolute>
    <NoteOn Channel="1" Note="57" Velocity="0"/>
  </Event>
  <Event>
    <Absolute>29520</Absolute>
    <NoteOn Channel="1" Note="45" Velocity="100"/>
  </Event>
  <Event>
    <Absolute>30000</Absolute>
    <NoteOn Channel="1" Note="45" Velocity="0"/>
  </Event>
  <Event>
    <Absolute>30000</Absolute>
    <NoteOn Channel="1" Note="52" Velocity="100"/>
  </Event>
  <Event>
    <Absolute>30240</Absolute>
    <NoteOn Channel="1" Note="52" Velocity="0"/>
  </Event>
  <Event>
    <Absolute>30240</Absolute>
    <NoteOn Channel="1" Note="53" Velocity="100"/>
  </Event>
  <Event>
    <Absolute>30480</Absolute>
    <NoteOn Channel="1" Note="53" Velocity="0"/>
  </Event>
  <Event>
    <Absolute>30480</Absolute>
    <NoteOn Channel="1" Note="52" Velocity="100"/>
  </Event>
  <Event>
    <Absolute>30720</Absolute>
    <NoteOn Channel="1" Note="52" Velocity="0"/>
  </Event>
  <Event>
    <Absolute>30720</Absolute>
    <NoteOn Channel="1" Note="55" Velocity="100"/>
  </Event>
  <Event>
    <Absolute>30960</Absolute>
    <NoteOn Channel="1" Note="55" Velocity="0"/>
  </Event>
  <Event>
    <Absolute>30960</Absolute>
    <NoteOn Channel="1" Note="55" Velocity="100"/>
  </Event>
  <Event>
    <Absolute>31200</Absolute>
    <NoteOn Channel="1" Note="55" Velocity="0"/>
  </Event>
  <Event>
    <Absolute>31200</Absolute>
    <NoteOn Channel="1" Note="53" Velocity="100"/>
  </Event>
  <Event>
    <Absolute>31440</Absolute>
    <NoteOn Channel="1" Note="53" Velocity="0"/>
  </Event>
  <Event>
    <Absolute>31440</Absolute>
    <NoteOn Channel="1" Note="57" Velocity="100"/>
  </Event>
  <Event>
    <Absolute>31680</Absolute>
    <NoteOn Channel="1" Note="57" Velocity="0"/>
  </Event>
  <Event>
    <Absolute>31680</Absolute>
    <NoteOn Channel="1" Note="57" Velocity="100"/>
  </Event>
  <Event>
    <Absolute>31920</Absolute>
    <NoteOn Channel="1" Note="57" Velocity="0"/>
  </Event>
  <Event>
    <Absolute>31920</Absolute>
    <NoteOn Channel="1" Note="55" Velocity="100"/>
  </Event>
  <Event>
    <Absolute>32160</Absolute>
    <NoteOn Channel="1" Note="55" Velocity="0"/>
  </Event>
  <Event>
    <Absolute>32160</Absolute>
    <NoteOn Channel="1" Note="58" Velocity="100"/>
  </Event>
  <Event>
    <Absolute>32400</Absolute>
    <NoteOn Channel="1" Note="58" Velocity="0"/>
  </Event>
  <Event>
    <Absolute>32400</Absolute>
    <NoteOn Channel="1" Note="58" Velocity="100"/>
  </Event>
  <Event>
    <Absolute>32640</Absolute>
    <NoteOn Channel="1" Note="58" Velocity="0"/>
  </Event>
  <Event>
    <Absolute>32640</Absolute>
    <NoteOn Channel="1" Note="57" Velocity="100"/>
  </Event>
  <Event>
    <Absolute>32880</Absolute>
    <NoteOn Channel="1" Note="57" Velocity="0"/>
  </Event>
  <Event>
    <Absolute>32880</Absolute>
    <NoteOn Channel="1" Note="55" Velocity="100"/>
  </Event>
  <Event>
    <Absolute>33120</Absolute>
    <NoteOn Channel="1" Note="55" Velocity="0"/>
  </Event>
  <Event>
    <Absolute>33120</Absolute>
    <NoteOn Channel="1" Note="53" Velocity="100"/>
  </Event>
  <Event>
    <Absolute>33360</Absolute>
    <NoteOn Channel="1" Note="53" Velocity="0"/>
  </Event>
  <Event>
    <Absolute>33360</Absolute>
    <NoteOn Channel="1" Note="52" Velocity="100"/>
  </Event>
  <Event>
    <Absolute>33600</Absolute>
    <NoteOn Channel="1" Note="52" Velocity="0"/>
  </Event>
  <Event>
    <Absolute>33600</Absolute>
    <NoteOn Channel="1" Note="50" Velocity="100"/>
  </Event>
  <Event>
    <Absolute>33840</Absolute>
    <NoteOn Channel="1" Note="50" Velocity="0"/>
  </Event>
  <Event>
    <Absolute>33840</Absolute>
    <NoteOn Channel="1" Note="45" Velocity="100"/>
  </Event>
  <Event>
    <Absolute>34080</Absolute>
    <NoteOn Channel="1" Note="45" Velocity="0"/>
  </Event>
  <Event>
    <Absolute>34080</Absolute>
    <NoteOn Channel="1" Note="50" Velocity="100"/>
  </Event>
  <Event>
    <Absolute>34320</Absolute>
    <NoteOn Channel="1" Note="50" Velocity="0"/>
  </Event>
  <Event>
    <Absolute>34320</Absolute>
    <NoteOn Channel="1" Note="49" Velocity="100"/>
  </Event>
  <Event>
    <Absolute>34560</Absolute>
    <NoteOn Channel="1" Note="49" Velocity="0"/>
  </Event>
  <Event>
    <Absolute>34560</Absolute>
    <NoteOn Channel="1" Note="50" Velocity="100"/>
  </Event>
  <Event>
    <Absolute>34800</Absolute>
    <NoteOn Channel="1" Note="50" Velocity="0"/>
  </Event>
  <Event>
    <Absolute>34800</Absolute>
    <NoteOn Channel="1" Note="45" Velocity="100"/>
  </Event>
  <Event>
    <Absolute>35040</Absolute>
    <NoteOn Channel="1" Note="45" Velocity="0"/>
  </Event>
  <Event>
    <Absolute>35040</Absolute>
    <NoteOn Channel="1" Note="42" Velocity="100"/>
  </Event>
  <Event>
    <Absolute>35280</Absolute>
    <NoteOn Channel="1" Note="42" Velocity="0"/>
  </Event>
  <Event>
    <Absolute>35280</Absolute>
    <NoteOn Channel="1" Note="38" Velocity="100"/>
  </Event>
  <Event>
    <Absolute>35760</Absolute>
    <NoteOn Channel="1" Note="38" Velocity="0"/>
  </Event>
  <Event>
    <Absolute>35760</Absolute>
    <NoteOn Channel="1" Note="57" Velocity="100"/>
  </Event>
  <Event>
    <Absolute>36000</Absolute>
    <NoteOn Channel="1" Note="57" Velocity="0"/>
  </Event>
  <Event>
    <Absolute>36000</Absolute>
    <NoteOn Channel="1" Note="57" Velocity="100"/>
  </Event>
  <Event>
    <Absolute>36240</Absolute>
    <NoteOn Channel="1" Note="57" Velocity="0"/>
  </Event>
  <Event>
    <Absolute>36240</Absolute>
    <NoteOn Channel="1" Note="54" Velocity="100"/>
  </Event>
  <Event>
    <Absolute>36480</Absolute>
    <NoteOn Channel="1" Note="54" Velocity="0"/>
  </Event>
  <Event>
    <Absolute>36480</Absolute>
    <NoteOn Channel="1" Note="55" Velocity="100"/>
  </Event>
  <Event>
    <Absolute>36720</Absolute>
    <NoteOn Channel="1" Note="55" Velocity="0"/>
  </Event>
  <Event>
    <Absolute>36720</Absolute>
    <NoteOn Channel="1" Note="55" Velocity="100"/>
  </Event>
  <Event>
    <Absolute>36960</Absolute>
    <NoteOn Channel="1" Note="55" Velocity="0"/>
  </Event>
  <Event>
    <Absolute>36960</Absolute>
    <NoteOn Channel="1" Note="52" Velocity="100"/>
  </Event>
  <Event>
    <Absolute>37200</Absolute>
    <NoteOn Channel="1" Note="52" Velocity="0"/>
  </Event>
  <Event>
    <Absolute>37200</Absolute>
    <NoteOn Channel="1" Note="54" Velocity="100"/>
  </Event>
  <Event>
    <Absolute>37440</Absolute>
    <NoteOn Channel="1" Note="54" Velocity="0"/>
  </Event>
  <Event>
    <Absolute>37440</Absolute>
    <NoteOn Channel="1" Note="54" Velocity="100"/>
  </Event>
  <Event>
    <Absolute>37560</Absolute>
    <NoteOn Channel="1" Note="54" Velocity="0"/>
  </Event>
  <Event>
    <Absolute>37560</Absolute>
    <NoteOn Channel="1" Note="55" Velocity="100"/>
  </Event>
  <Event>
    <Absolute>37680</Absolute>
    <NoteOn Channel="1" Note="55" Velocity="0"/>
  </Event>
  <Event>
    <Absolute>37680</Absolute>
    <NoteOn Channel="1" Note="57" Velocity="100"/>
  </Event>
  <Event>
    <Absolute>37920</Absolute>
    <NoteOn Channel="1" Note="57" Velocity="0"/>
  </Event>
  <Event>
    <Absolute>37920</Absolute>
    <NoteOn Channel="1" Note="54" Velocity="100"/>
  </Event>
  <Event>
    <Absolute>38160</Absolute>
    <NoteOn Channel="1" Note="54" Velocity="0"/>
  </Event>
  <Event>
    <Absolute>38160</Absolute>
    <NoteOn Channel="1" Note="50" Velocity="100"/>
  </Event>
  <Event>
    <Absolute>38400</Absolute>
    <NoteOn Channel="1" Note="50" Velocity="0"/>
  </Event>
  <Event>
    <Absolute>38400</Absolute>
    <NoteOn Channel="1" Note="60" Velocity="100"/>
  </Event>
  <Event>
    <Absolute>38640</Absolute>
    <NoteOn Channel="1" Note="60" Velocity="0"/>
  </Event>
  <Event>
    <Absolute>38640</Absolute>
    <NoteOn Channel="1" Note="59" Velocity="100"/>
  </Event>
  <Event>
    <Absolute>38880</Absolute>
    <NoteOn Channel="1" Note="59" Velocity="0"/>
  </Event>
  <Event>
    <Absolute>38880</Absolute>
    <NoteOn Channel="1" Note="59" Velocity="100"/>
  </Event>
  <Event>
    <Absolute>39120</Absolute>
    <NoteOn Channel="1" Note="59" Velocity="0"/>
  </Event>
  <Event>
    <Absolute>39120</Absolute>
    <NoteOn Channel="1" Note="55" Velocity="100"/>
  </Event>
  <Event>
    <Absolute>39360</Absolute>
    <NoteOn Channel="1" Note="55" Velocity="0"/>
  </Event>
  <Event>
    <Absolute>39360</Absolute>
    <NoteOn Channel="1" Note="57" Velocity="100"/>
  </Event>
  <Event>
    <Absolute>39600</Absolute>
    <NoteOn Channel="1" Note="57" Velocity="0"/>
  </Event>
  <Event>
    <Absolute>39600</Absolute>
    <NoteOn Channel="1" Note="57" Velocity="100"/>
  </Event>
  <Event>
    <Absolute>39840</Absolute>
    <NoteOn Channel="1" Note="57" Velocity="0"/>
  </Event>
  <Event>
    <Absolute>39840</Absolute>
    <NoteOn Channel="1" Note="54" Velocity="100"/>
  </Event>
  <Event>
    <Absolute>40080</Absolute>
    <NoteOn Channel="1" Note="54" Velocity="0"/>
  </Event>
  <Event>
    <Absolute>40080</Absolute>
    <NoteOn Channel="1" Note="55" Velocity="100"/>
  </Event>
  <Event>
    <Absolute>40320</Absolute>
    <NoteOn Channel="1" Note="55" Velocity="0"/>
  </Event>
  <Event>
    <Absolute>40320</Absolute>
    <NoteOn Channel="1" Note="55" Velocity="100"/>
  </Event>
  <Event>
    <Absolute>40440</Absolute>
    <NoteOn Channel="1" Note="55" Velocity="0"/>
  </Event>
  <Event>
    <Absolute>40440</Absolute>
    <NoteOn Channel="1" Note="57" Velocity="100"/>
  </Event>
  <Event>
    <Absolute>40560</Absolute>
    <NoteOn Channel="1" Note="57" Velocity="0"/>
  </Event>
  <Event>
    <Absolute>40560</Absolute>
    <NoteOn Channel="1" Note="59" Velocity="100"/>
  </Event>
  <Event>
    <Absolute>40800</Absolute>
    <NoteOn Channel="1" Note="59" Velocity="0"/>
  </Event>
  <Event>
    <Absolute>40800</Absolute>
    <NoteOn Channel="1" Note="55" Velocity="100"/>
  </Event>
  <Event>
    <Absolute>41040</Absolute>
    <NoteOn Channel="1" Note="55" Velocity="0"/>
  </Event>
  <Event>
    <Absolute>41040</Absolute>
    <NoteOn Channel="1" Note="52" Velocity="100"/>
  </Event>
  <Event>
    <Absolute>41280</Absolute>
    <NoteOn Channel="1" Note="52" Velocity="0"/>
  </Event>
  <Event>
    <Absolute>41280</Absolute>
    <NoteOn Channel="1" Note="62" Velocity="100"/>
  </Event>
  <Event>
    <Absolute>41520</Absolute>
    <NoteOn Channel="1" Note="62" Velocity="0"/>
  </Event>
  <Event>
    <Absolute>41520</Absolute>
    <NoteOn Channel="1" Note="60" Velocity="100"/>
  </Event>
  <Event>
    <Absolute>41760</Absolute>
    <NoteOn Channel="1" Note="60" Velocity="0"/>
  </Event>
  <Event>
    <Absolute>41760</Absolute>
    <NoteOn Channel="1" Note="57" Velocity="100"/>
  </Event>
  <Event>
    <Absolute>42000</Absolute>
    <NoteOn Channel="1" Note="57" Velocity="0"/>
  </Event>
  <Event>
    <Absolute>42000</Absolute>
    <NoteOn Channel="1" Note="62" Velocity="100"/>
  </Event>
  <Event>
    <Absolute>42240</Absolute>
    <NoteOn Channel="1" Note="62" Velocity="0"/>
  </Event>
  <Event>
    <Absolute>42240</Absolute>
    <NoteOn Channel="1" Note="60" Velocity="100"/>
  </Event>
  <Event>
    <Absolute>42480</Absolute>
    <NoteOn Channel="1" Note="60" Velocity="0"/>
  </Event>
  <Event>
    <Absolute>42480</Absolute>
    <NoteOn Channel="1" Note="50" Velocity="100"/>
  </Event>
  <Event>
    <Absolute>42720</Absolute>
    <NoteOn Channel="1" Note="50" Velocity="0"/>
  </Event>
  <Event>
    <Absolute>42720</Absolute>
    <NoteOn Channel="1" Note="60" Velocity="100"/>
  </Event>
  <Event>
    <Absolute>42960</Absolute>
    <NoteOn Channel="1" Note="60" Velocity="0"/>
  </Event>
  <Event>
    <Absolute>42960</Absolute>
    <NoteOn Channel="1" Note="59" Velocity="100"/>
  </Event>
  <Event>
    <Absolute>43200</Absolute>
    <NoteOn Channel="1" Note="59" Velocity="0"/>
  </Event>
  <Event>
    <Absolute>43200</Absolute>
    <NoteOn Channel="1" Note="55" Velocity="100"/>
  </Event>
  <Event>
    <Absolute>43440</Absolute>
    <NoteOn Channel="1" Note="55" Velocity="0"/>
  </Event>
  <Event>
    <Absolute>43440</Absolute>
    <NoteOn Channel="1" Note="60" Velocity="100"/>
  </Event>
  <Event>
    <Absolute>43680</Absolute>
    <NoteOn Channel="1" Note="60" Velocity="0"/>
  </Event>
  <Event>
    <Absolute>43680</Absolute>
    <NoteOn Channel="1" Note="59" Velocity="100"/>
  </Event>
  <Event>
    <Absolute>43920</Absolute>
    <NoteOn Channel="1" Note="59" Velocity="0"/>
  </Event>
  <Event>
    <Absolute>43920</Absolute>
    <NoteOn Channel="1" Note="48" Velocity="100"/>
  </Event>
  <Event>
    <Absolute>44160</Absolute>
    <NoteOn Channel="1" Note="48" Velocity="0"/>
  </Event>
  <Event>
    <Absolute>44160</Absolute>
    <NoteOn Channel="1" Note="59" Velocity="100"/>
  </Event>
  <Event>
    <Absolute>44400</Absolute>
    <NoteOn Channel="1" Note="59" Velocity="0"/>
  </Event>
  <Event>
    <Absolute>44400</Absolute>
    <NoteOn Channel="1" Note="57" Velocity="100"/>
  </Event>
  <Event>
    <Absolute>44640</Absolute>
    <NoteOn Channel="1" Note="57" Velocity="0"/>
  </Event>
  <Event>
    <Absolute>44640</Absolute>
    <NoteOn Channel="1" Note="55" Velocity="100"/>
  </Event>
  <Event>
    <Absolute>44880</Absolute>
    <NoteOn Channel="1" Note="55" Velocity="0"/>
  </Event>
  <Event>
    <Absolute>44880</Absolute>
    <NoteOn Channel="1" Note="54" Velocity="100"/>
  </Event>
  <Event>
    <Absolute>45120</Absolute>
    <NoteOn Channel="1" Note="54" Velocity="0"/>
  </Event>
  <Event>
    <Absolute>45120</Absolute>
    <NoteOn Channel="1" Note="52" Velocity="100"/>
  </Event>
  <Event>
    <Absolute>45360</Absolute>
    <NoteOn Channel="1" Note="52" Velocity="0"/>
  </Event>
  <Event>
    <Absolute>45360</Absolute>
    <NoteOn Channel="1" Note="47" Velocity="100"/>
  </Event>
  <Event>
    <Absolute>45600</Absolute>
    <NoteOn Channel="1" Note="47" Velocity="0"/>
  </Event>
  <Event>
    <Absolute>45600</Absolute>
    <NoteOn Channel="1" Note="52" Velocity="100"/>
  </Event>
  <Event>
    <Absolute>45840</Absolute>
    <NoteOn Channel="1" Note="52" Velocity="0"/>
  </Event>
  <Event>
    <Absolute>45840</Absolute>
    <NoteOn Channel="1" Note="51" Velocity="100"/>
  </Event>
  <Event>
    <Absolute>46080</Absolute>
    <NoteOn Channel="1" Note="51" Velocity="0"/>
  </Event>
  <Event>
    <Absolute>46080</Absolute>
    <NoteOn Channel="1" Note="52" Velocity="100"/>
  </Event>
  <Event>
    <Absolute>46320</Absolute>
    <NoteOn Channel="1" Note="52" Velocity="0"/>
  </Event>
  <Event>
    <Absolute>46320</Absolute>
    <NoteOn Channel="1" Note="47" Velocity="100"/>
  </Event>
  <Event>
    <Absolute>46560</Absolute>
    <NoteOn Channel="1" Note="47" Velocity="0"/>
  </Event>
  <Event>
    <Absolute>46560</Absolute>
    <NoteOn Channel="1" Note="43" Velocity="100"/>
  </Event>
  <Event>
    <Absolute>46800</Absolute>
    <NoteOn Channel="1" Note="43" Velocity="0"/>
  </Event>
  <Event>
    <Absolute>46800</Absolute>
    <NoteOn Channel="1" Note="40" Velocity="100"/>
  </Event>
  <Event>
    <Absolute>47280</Absolute>
    <NoteOn Channel="1" Note="40" Velocity="0"/>
  </Event>
  <Event>
    <Absolute>47280</Absolute>
    <NoteOn Channel="1" Note="55" Velocity="100"/>
  </Event>
  <Event>
    <Absolute>47520</Absolute>
    <NoteOn Channel="1" Note="55" Velocity="0"/>
  </Event>
  <Event>
    <Absolute>47520</Absolute>
    <NoteOn Channel="1" Note="57" Velocity="100"/>
  </Event>
  <Event>
    <Absolute>47760</Absolute>
    <NoteOn Channel="1" Note="57" Velocity="0"/>
  </Event>
  <Event>
    <Absolute>47760</Absolute>
    <NoteOn Channel="1" Note="54" Velocity="100"/>
  </Event>
  <Event>
    <Absolute>48000</Absolute>
    <NoteOn Channel="1" Note="54" Velocity="0"/>
  </Event>
  <Event>
    <Absolute>48000</Absolute>
    <NoteOn Channel="1" Note="55" Velocity="100"/>
  </Event>
  <Event>
    <Absolute>48240</Absolute>
    <NoteOn Channel="1" Note="55" Velocity="0"/>
  </Event>
  <Event>
    <Absolute>48240</Absolute>
    <NoteOn Channel="1" Note="61" Velocity="100"/>
  </Event>
  <Event>
    <Absolute>48360</Absolute>
    <NoteOn Channel="1" Note="61" Velocity="0"/>
  </Event>
  <Event>
    <Absolute>48360</Absolute>
    <NoteOn Channel="1" Note="62" Velocity="100"/>
  </Event>
  <Event>
    <Absolute>48480</Absolute>
    <NoteOn Channel="1" Note="62" Velocity="0"/>
  </Event>
  <Event>
    <Absolute>48480</Absolute>
    <NoteOn Channel="1" Note="64" Velocity="100"/>
  </Event>
  <Event>
    <Absolute>48720</Absolute>
    <NoteOn Channel="1" Note="64" Velocity="0"/>
  </Event>
  <Event>
    <Absolute>48720</Absolute>
    <NoteOn Channel="1" Note="54" Velocity="100"/>
  </Event>
  <Event>
    <Absolute>48960</Absolute>
    <NoteOn Channel="1" Note="54" Velocity="0"/>
  </Event>
  <Event>
    <Absolute>48960</Absolute>
    <NoteOn Channel="1" Note="55" Velocity="100"/>
  </Event>
  <Event>
    <Absolute>49200</Absolute>
    <NoteOn Channel="1" Note="55" Velocity="0"/>
  </Event>
  <Event>
    <Absolute>49200</Absolute>
    <NoteOn Channel="1" Note="52" Velocity="100"/>
  </Event>
  <Event>
    <Absolute>49440</Absolute>
    <NoteOn Channel="1" Note="52" Velocity="0"/>
  </Event>
  <Event>
    <Absolute>49440</Absolute>
    <NoteOn Channel="1" Note="53" Velocity="100"/>
  </Event>
  <Event>
    <Absolute>49680</Absolute>
    <NoteOn Channel="1" Note="53" Velocity="0"/>
  </Event>
  <Event>
    <Absolute>49680</Absolute>
    <NoteOn Channel="1" Note="59" Velocity="100"/>
  </Event>
  <Event>
    <Absolute>49800</Absolute>
    <NoteOn Channel="1" Note="59" Velocity="0"/>
  </Event>
  <Event>
    <Absolute>49800</Absolute>
    <NoteOn Channel="1" Note="60" Velocity="100"/>
  </Event>
  <Event>
    <Absolute>49920</Absolute>
    <NoteOn Channel="1" Note="60" Velocity="0"/>
  </Event>
  <Event>
    <Absolute>49920</Absolute>
    <NoteOn Channel="1" Note="62" Velocity="100"/>
  </Event>
  <Event>
    <Absolute>50160</Absolute>
    <NoteOn Channel="1" Note="62" Velocity="0"/>
  </Event>
  <Event>
    <Absolute>50160</Absolute>
    <NoteOn Channel="1" Note="52" Velocity="100"/>
  </Event>
  <Event>
    <Absolute>50400</Absolute>
    <NoteOn Channel="1" Note="52" Velocity="0"/>
  </Event>
  <Event>
    <Absolute>50400</Absolute>
    <NoteOn Channel="1" Note="53" Velocity="100"/>
  </Event>
  <Event>
    <Absolute>50640</Absolute>
    <NoteOn Channel="1" Note="53" Velocity="0"/>
  </Event>
  <Event>
    <Absolute>50640</Absolute>
    <NoteOn Channel="1" Note="50" Velocity="100"/>
  </Event>
  <Event>
    <Absolute>50880</Absolute>
    <NoteOn Channel="1" Note="50" Velocity="0"/>
  </Event>
  <Event>
    <Absolute>50880</Absolute>
    <NoteOn Channel="1" Note="52" Velocity="100"/>
  </Event>
  <Event>
    <Absolute>51120</Absolute>
    <NoteOn Channel="1" Note="52" Velocity="0"/>
  </Event>
  <Event>
    <Absolute>51120</Absolute>
    <NoteOn Channel="1" Note="57" Velocity="100"/>
  </Event>
  <Event>
    <Absolute>51240</Absolute>
    <NoteOn Channel="1" Note="57" Velocity="0"/>
  </Event>
  <Event>
    <Absolute>51240</Absolute>
    <NoteOn Channel="1" Note="59" Velocity="100"/>
  </Event>
  <Event>
    <Absolute>51360</Absolute>
    <NoteOn Channel="1" Note="59" Velocity="0"/>
  </Event>
  <Event>
    <Absolute>51360</Absolute>
    <NoteOn Channel="1" Note="60" Velocity="100"/>
  </Event>
  <Event>
    <Absolute>51600</Absolute>
    <NoteOn Channel="1" Note="60" Velocity="0"/>
  </Event>
  <Event>
    <Absolute>51600</Absolute>
    <NoteOn Channel="1" Note="57" Velocity="100"/>
  </Event>
  <Event>
    <Absolute>51840</Absolute>
    <NoteOn Channel="1" Note="57" Velocity="0"/>
  </Event>
  <Event>
    <Absolute>51840</Absolute>
    <NoteOn Channel="1" Note="54" Velocity="100"/>
  </Event>
  <Event>
    <Absolute>51960</Absolute>
    <NoteOn Channel="1" Note="54" Velocity="0"/>
  </Event>
  <Event>
    <Absolute>51960</Absolute>
    <NoteOn Channel="1" Note="55" Velocity="100"/>
  </Event>
  <Event>
    <Absolute>52080</Absolute>
    <NoteOn Channel="1" Note="55" Velocity="0"/>
  </Event>
  <Event>
    <Absolute>52080</Absolute>
    <NoteOn Channel="1" Note="57" Velocity="100"/>
  </Event>
  <Event>
    <Absolute>52320</Absolute>
    <NoteOn Channel="1" Note="57" Velocity="0"/>
  </Event>
  <Event>
    <Absolute>52320</Absolute>
    <NoteOn Channel="1" Note="54" Velocity="100"/>
  </Event>
  <Event>
    <Absolute>52560</Absolute>
    <NoteOn Channel="1" Note="54" Velocity="0"/>
  </Event>
  <Event>
    <Absolute>52560</Absolute>
    <NoteOn Channel="1" Note="50" Velocity="100"/>
  </Event>
  <Event>
    <Absolute>53040</Absolute>
    <NoteOn Channel="1" Note="50" Velocity="0"/>
  </Event>
  <Event>
    <Absolute>53040</Absolute>
    <NoteOn Channel="1" Note="57" Velocity="100"/>
  </Event>
  <Event>
    <Absolute>53280</Absolute>
    <NoteOn Channel="1" Note="57" Velocity="0"/>
  </Event>
  <Event>
    <Absolute>53280</Absolute>
    <NoteOn Channel="1" Note="58" Velocity="100"/>
  </Event>
  <Event>
    <Absolute>53520</Absolute>
    <NoteOn Channel="1" Note="58" Velocity="0"/>
  </Event>
  <Event>
    <Absolute>53520</Absolute>
    <NoteOn Channel="1" Note="57" Velocity="100"/>
  </Event>
  <Event>
    <Absolute>53760</Absolute>
    <NoteOn Channel="1" Note="57" Velocity="0"/>
  </Event>
  <Event>
    <Absolute>53760</Absolute>
    <NoteOn Channel="1" Note="60" Velocity="100"/>
  </Event>
  <Event>
    <Absolute>54000</Absolute>
    <NoteOn Channel="1" Note="60" Velocity="0"/>
  </Event>
  <Event>
    <Absolute>54000</Absolute>
    <NoteOn Channel="1" Note="60" Velocity="100"/>
  </Event>
  <Event>
    <Absolute>54240</Absolute>
    <NoteOn Channel="1" Note="60" Velocity="0"/>
  </Event>
  <Event>
    <Absolute>54240</Absolute>
    <NoteOn Channel="1" Note="58" Velocity="100"/>
  </Event>
  <Event>
    <Absolute>54480</Absolute>
    <NoteOn Channel="1" Note="58" Velocity="0"/>
  </Event>
  <Event>
    <Absolute>54480</Absolute>
    <NoteOn Channel="1" Note="62" Velocity="100"/>
  </Event>
  <Event>
    <Absolute>54720</Absolute>
    <NoteOn Channel="1" Note="62" Velocity="0"/>
  </Event>
  <Event>
    <Absolute>54720</Absolute>
    <NoteOn Channel="1" Note="62" Velocity="100"/>
  </Event>
  <Event>
    <Absolute>54960</Absolute>
    <NoteOn Channel="1" Note="62" Velocity="0"/>
  </Event>
  <Event>
    <Absolute>54960</Absolute>
    <NoteOn Channel="1" Note="60" Velocity="100"/>
  </Event>
  <Event>
    <Absolute>55200</Absolute>
    <NoteOn Channel="1" Note="60" Velocity="0"/>
  </Event>
  <Event>
    <Absolute>55200</Absolute>
    <NoteOn Channel="1" Note="63" Velocity="100"/>
  </Event>
  <Event>
    <Absolute>55440</Absolute>
    <NoteOn Channel="1" Note="63" Velocity="0"/>
  </Event>
  <Event>
    <Absolute>55440</Absolute>
    <NoteOn Channel="1" Note="63" Velocity="100"/>
  </Event>
  <Event>
    <Absolute>55680</Absolute>
    <NoteOn Channel="1" Note="63" Velocity="0"/>
  </Event>
  <Event>
    <Absolute>55680</Absolute>
    <NoteOn Channel="1" Note="62" Velocity="100"/>
  </Event>
  <Event>
    <Absolute>55920</Absolute>
    <NoteOn Channel="1" Note="62" Velocity="0"/>
  </Event>
  <Event>
    <Absolute>55920</Absolute>
    <NoteOn Channel="1" Note="60" Velocity="100"/>
  </Event>
  <Event>
    <Absolute>56160</Absolute>
    <NoteOn Channel="1" Note="60" Velocity="0"/>
  </Event>
  <Event>
    <Absolute>56160</Absolute>
    <NoteOn Channel="1" Note="58" Velocity="100"/>
  </Event>
  <Event>
    <Absolute>56400</Absolute>
    <NoteOn Channel="1" Note="58" Velocity="0"/>
  </Event>
  <Event>
    <Absolute>56400</Absolute>
    <NoteOn Channel="1" Note="57" Velocity="100"/>
  </Event>
  <Event>
    <Absolute>56640</Absolute>
    <NoteOn Channel="1" Note="57" Velocity="0"/>
  </Event>
  <Event>
    <Absolute>56640</Absolute>
    <NoteOn Channel="1" Note="55" Velocity="100"/>
  </Event>
  <Event>
    <Absolute>56880</Absolute>
    <NoteOn Channel="1" Note="55" Velocity="0"/>
  </Event>
  <Event>
    <Absolute>56880</Absolute>
    <NoteOn Channel="1" Note="50" Velocity="100"/>
  </Event>
  <Event>
    <Absolute>57120</Absolute>
    <NoteOn Channel="1" Note="50" Velocity="0"/>
  </Event>
  <Event>
    <Absolute>57120</Absolute>
    <NoteOn Channel="1" Note="55" Velocity="100"/>
  </Event>
  <Event>
    <Absolute>57360</Absolute>
    <NoteOn Channel="1" Note="55" Velocity="0"/>
  </Event>
  <Event>
    <Absolute>57360</Absolute>
    <NoteOn Channel="1" Note="54" Velocity="100"/>
  </Event>
  <Event>
    <Absolute>57600</Absolute>
    <NoteOn Channel="1" Note="54" Velocity="0"/>
  </Event>
  <Event>
    <Absolute>57600</Absolute>
    <NoteOn Channel="1" Note="55" Velocity="100"/>
  </Event>
  <Event>
    <Absolute>57840</Absolute>
    <NoteOn Channel="1" Note="55" Velocity="0"/>
  </Event>
  <Event>
    <Absolute>57840</Absolute>
    <NoteOn Channel="1" Note="47" Velocity="100"/>
  </Event>
  <Event>
    <Absolute>57960</Absolute>
    <NoteOn Channel="1" Note="47" Velocity="0"/>
  </Event>
  <Event>
    <Absolute>57960</Absolute>
    <NoteOn Channel="1" Note="48" Velocity="100"/>
  </Event>
  <Event>
    <Absolute>58080</Absolute>
    <NoteOn Channel="1" Note="48" Velocity="0"/>
  </Event>
  <Event>
    <Absolute>58080</Absolute>
    <NoteOn Channel="1" Note="50" Velocity="100"/>
  </Event>
  <Event>
    <Absolute>58320</Absolute>
    <NoteOn Channel="1" Note="50" Velocity="0"/>
  </Event>
  <Event>
    <Absolute>58320</Absolute>
    <NoteOn Channel="1" Note="43" Velocity="100"/>
  </Event>
  <Event>
    <Absolute>58560</Absolute>
    <NoteOn Channel="1" Note="43" Velocity="0"/>
  </Event>
  <Event>
    <Absolute>58560</Absolute>
    <NoteOn Channel="1" Note="47" Velocity="100"/>
  </Event>
  <Event>
    <Absolute>58800</Absolute>
    <NoteOn Channel="1" Note="47" Velocity="0"/>
  </Event>
  <Event>
    <Absolute>58800</Absolute>
    <NoteOn Channel="1" Note="50" Velocity="100"/>
  </Event>
  <Event>
    <Absolute>59040</Absolute>
    <NoteOn Channel="1" Note="50" Velocity="0"/>
  </Event>
  <Event>
    <Absolute>59040</Absolute>
    <NoteOn Channel="1" Note="55" Velocity="100"/>
  </Event>
  <Event>
    <Absolute>59280</Absolute>
    <NoteOn Channel="1" Note="55" Velocity="0"/>
  </Event>
  <Event>
    <Absolute>59280</Absolute>
    <NoteOn Channel="1" Note="52" Velocity="100"/>
  </Event>
  <Event>
    <Absolute>59400</Absolute>
    <NoteOn Channel="1" Note="52" Velocity="0"/>
  </Event>
  <Event>
    <Absolute>59400</Absolute>
    <NoteOn Channel="1" Note="53" Velocity="100"/>
  </Event>
  <Event>
    <Absolute>59520</Absolute>
    <NoteOn Channel="1" Note="53" Velocity="0"/>
  </Event>
  <Event>
    <Absolute>59520</Absolute>
    <NoteOn Channel="1" Note="55" Velocity="100"/>
  </Event>
  <Event>
    <Absolute>59760</Absolute>
    <NoteOn Channel="1" Note="55" Velocity="0"/>
  </Event>
  <Event>
    <Absolute>59760</Absolute>
    <NoteOn Channel="1" Note="47" Velocity="100"/>
  </Event>
  <Event>
    <Absolute>60000</Absolute>
    <NoteOn Channel="1" Note="47" Velocity="0"/>
  </Event>
  <Event>
    <Absolute>60000</Absolute>
    <NoteOn Channel="1" Note="48" Velocity="100"/>
  </Event>
  <Event>
    <Absolute>60240</Absolute>
    <NoteOn Channel="1" Note="48" Velocity="0"/>
  </Event>
  <Event>
    <Absolute>60240</Absolute>
    <NoteOn Channel="1" Note="52" Velocity="100"/>
  </Event>
  <Event>
    <Absolute>60480</Absolute>
    <NoteOn Channel="1" Note="52" Velocity="0"/>
  </Event>
  <Event>
    <Absolute>60480</Absolute>
    <NoteOn Channel="1" Note="57" Velocity="100"/>
  </Event>
  <Event>
    <Absolute>60720</Absolute>
    <NoteOn Channel="1" Note="57" Velocity="0"/>
  </Event>
  <Event>
    <Absolute>60720</Absolute>
    <NoteOn Channel="1" Note="54" Velocity="100"/>
  </Event>
  <Event>
    <Absolute>60840</Absolute>
    <NoteOn Channel="1" Note="54" Velocity="0"/>
  </Event>
  <Event>
    <Absolute>60840</Absolute>
    <NoteOn Channel="1" Note="55" Velocity="100"/>
  </Event>
  <Event>
    <Absolute>60960</Absolute>
    <NoteOn Channel="1" Note="55" Velocity="0"/>
  </Event>
  <Event>
    <Absolute>60960</Absolute>
    <NoteOn Channel="1" Note="57" Velocity="100"/>
  </Event>
  <Event>
    <Absolute>61200</Absolute>
    <NoteOn Channel="1" Note="57" Velocity="0"/>
  </Event>
  <Event>
    <Absolute>61200</Absolute>
    <NoteOn Channel="1" Note="49" Velocity="100"/>
  </Event>
  <Event>
    <Absolute>61440</Absolute>
    <NoteOn Channel="1" Note="49" Velocity="0"/>
  </Event>
  <Event>
    <Absolute>61440</Absolute>
    <NoteOn Channel="1" Note="50" Velocity="100"/>
  </Event>
  <Event>
    <Absolute>61680</Absolute>
    <NoteOn Channel="1" Note="50" Velocity="0"/>
  </Event>
  <Event>
    <Absolute>61680</Absolute>
    <NoteOn Channel="1" Note="54" Velocity="100"/>
  </Event>
  <Event>
    <Absolute>61920</Absolute>
    <NoteOn Channel="1" Note="54" Velocity="0"/>
  </Event>
  <Event>
    <Absolute>61920</Absolute>
    <NoteOn Channel="1" Note="59" Velocity="100"/>
  </Event>
  <Event>
    <Absolute>62160</Absolute>
    <NoteOn Channel="1" Note="59" Velocity="0"/>
  </Event>
  <Event>
    <Absolute>62160</Absolute>
    <NoteOn Channel="1" Note="55" Velocity="100"/>
  </Event>
  <Event>
    <Absolute>62280</Absolute>
    <NoteOn Channel="1" Note="55" Velocity="0"/>
  </Event>
  <Event>
    <Absolute>62280</Absolute>
    <NoteOn Channel="1" Note="57" Velocity="100"/>
  </Event>
  <Event>
    <Absolute>62400</Absolute>
    <NoteOn Channel="1" Note="57" Velocity="0"/>
  </Event>
  <Event>
    <Absolute>62400</Absolute>
    <NoteOn Channel="1" Note="59" Velocity="100"/>
  </Event>
  <Event>
    <Absolute>62640</Absolute>
    <NoteOn Channel="1" Note="59" Velocity="0"/>
  </Event>
  <Event>
    <Absolute>62640</Absolute>
    <NoteOn Channel="1" Note="51" Velocity="100"/>
  </Event>
  <Event>
    <Absolute>62880</Absolute>
    <NoteOn Channel="1" Note="51" Velocity="0"/>
  </Event>
  <Event>
    <Absolute>62880</Absolute>
    <NoteOn Channel="1" Note="52" Velocity="100"/>
  </Event>
  <Event>
    <Absolute>63120</Absolute>
    <NoteOn Channel="1" Note="52" Velocity="0"/>
  </Event>
  <Event>
    <Absolute>63120</Absolute>
    <NoteOn Channel="1" Note="60" Velocity="100"/>
  </Event>
  <Event>
    <Absolute>63360</Absolute>
    <NoteOn Channel="1" Note="60" Velocity="0"/>
  </Event>
  <Event>
    <Absolute>63360</Absolute>
    <NoteOn Channel="1" Note="52" Velocity="100"/>
  </Event>
  <Event>
    <Absolute>63600</Absolute>
    <NoteOn Channel="1" Note="52" Velocity="0"/>
  </Event>
  <Event>
    <Absolute>63600</Absolute>
    <NoteOn Channel="1" Note="54" Velocity="100"/>
  </Event>
  <Event>
    <Absolute>63840</Absolute>
    <NoteOn Channel="1" Note="54" Velocity="0"/>
  </Event>
  <Event>
    <Absolute>63840</Absolute>
    <NoteOn Channel="1" Note="62" Velocity="100"/>
  </Event>
  <Event>
    <Absolute>64080</Absolute>
    <NoteOn Channel="1" Note="62" Velocity="0"/>
  </Event>
  <Event>
    <Absolute>64080</Absolute>
    <NoteOn Channel="1" Note="54" Velocity="100"/>
  </Event>
  <Event>
    <Absolute>64320</Absolute>
    <NoteOn Channel="1" Note="54" Velocity="0"/>
  </Event>
  <Event>
    <Absolute>64320</Absolute>
    <NoteOn Channel="1" Note="55" Velocity="100"/>
  </Event>
  <Event>
    <Absolute>64560</Absolute>
    <NoteOn Channel="1" Note="55" Velocity="0"/>
  </Event>
  <Event>
    <Absolute>64560</Absolute>
    <NoteOn Channel="1" Note="64" Velocity="100"/>
  </Event>
  <Event>
    <Absolute>64800</Absolute>
    <NoteOn Channel="1" Note="64" Velocity="0"/>
  </Event>
  <Event>
    <Absolute>64800</Absolute>
    <NoteOn Channel="1" Note="50" Velocity="100"/>
  </Event>
  <Event>
    <Absolute>65040</Absolute>
    <NoteOn Channel="1" Note="50" Velocity="0"/>
  </Event>
  <Event>
    <Absolute>65040</Absolute>
    <NoteOn Channel="1" Note="52" Velocity="100"/>
  </Event>
  <Event>
    <Absolute>65160</Absolute>
    <NoteOn Channel="1" Note="52" Velocity="0"/>
  </Event>
  <Event>
    <Absolute>65160</Absolute>
    <NoteOn Channel="1" Note="54" Velocity="100"/>
  </Event>
  <Event>
    <Absolute>65280</Absolute>
    <NoteOn Channel="1" Note="54" Velocity="0"/>
  </Event>
  <Event>
    <Absolute>65280</Absolute>
    <NoteOn Channel="1" Note="55" Velocity="100"/>
  </Event>
  <Event>
    <Absolute>65400</Absolute>
    <NoteOn Channel="1" Note="55" Velocity="0"/>
  </Event>
  <Event>
    <Absolute>65400</Absolute>
    <NoteOn Channel="1" Note="57" Velocity="100"/>
  </Event>
  <Event>
    <Absolute>65520</Absolute>
    <NoteOn Channel="1" Note="57" Velocity="0"/>
  </Event>
  <Event>
    <Absolute>65520</Absolute>
    <NoteOn Channel="1" Note="59" Velocity="100"/>
  </Event>
  <Event>
    <Absolute>65760</Absolute>
    <NoteOn Channel="1" Note="59" Velocity="0"/>
  </Event>
  <Event>
    <Absolute>65760</Absolute>
    <NoteOn Channel="1" Note="55" Velocity="100"/>
  </Event>
  <Event>
    <Absolute>66000</Absolute>
    <NoteOn Channel="1" Note="55" Velocity="0"/>
  </Event>
  <Event>
    <Absolute>66000</Absolute>
    <NoteOn Channel="1" Note="54" Velocity="100"/>
  </Event>
  <Event>
    <Absolute>66240</Absolute>
    <NoteOn Channel="1" Note="54" Velocity="0"/>
  </Event>
  <Event>
    <Absolute>66240</Absolute>
    <NoteOn Channel="1" Note="55" Velocity="100"/>
  </Event>
  <Event>
    <Absolute>66480</Absolute>
    <NoteOn Channel="1" Note="55" Velocity="0"/>
  </Event>
  <Event>
    <Absolute>66480</Absolute>
    <NoteOn Channel="1" Note="50" Velocity="100"/>
  </Event>
  <Event>
    <Absolute>66720</Absolute>
    <NoteOn Channel="1" Note="50" Velocity="0"/>
  </Event>
  <Event>
    <Absolute>66720</Absolute>
    <NoteOn Channel="1" Note="47" Velocity="100"/>
  </Event>
  <Event>
    <Absolute>66960</Absolute>
    <NoteOn Channel="1" Note="47" Velocity="0"/>
  </Event>
  <Event>
    <Absolute>66960</Absolute>
    <NoteOn Channel="1" Note="43" Velocity="100"/>
  </Event>
  <Event>
    <Absolute>67440</Absolute>
    <NoteOn Channel="1" Note="43" Velocity="0"/>
  </Event>
  <Event>
    <Absolute>67440</Absolute>
    <NoteOn Channel="1" Note="57" Velocity="100"/>
  </Event>
  <Event>
    <Absolute>67680</Absolute>
    <NoteOn Channel="1" Note="57" Velocity="0"/>
  </Event>
  <Event>
    <Absolute>67680</Absolute>
    <NoteOn Channel="1" Note="57" Velocity="100"/>
  </Event>
  <Event>
    <Absolute>67920</Absolute>
    <NoteOn Channel="1" Note="57" Velocity="0"/>
  </Event>
  <Event>
    <Absolute>67920</Absolute>
    <NoteOn Channel="1" Note="54" Velocity="100"/>
  </Event>
  <Event>
    <Absolute>68160</Absolute>
    <NoteOn Channel="1" Note="54" Velocity="0"/>
  </Event>
  <Event>
    <Absolute>68160</Absolute>
    <NoteOn Channel="1" Note="55" Velocity="100"/>
  </Event>
  <Event>
    <Absolute>68400</Absolute>
    <NoteOn Channel="1" Note="55" Velocity="0"/>
  </Event>
  <Event>
    <Absolute>68400</Absolute>
    <NoteOn Channel="1" Note="55" Velocity="100"/>
  </Event>
  <Event>
    <Absolute>68640</Absolute>
    <NoteOn Channel="1" Note="55" Velocity="0"/>
  </Event>
  <Event>
    <Absolute>68640</Absolute>
    <NoteOn Channel="1" Note="52" Velocity="100"/>
  </Event>
  <Event>
    <Absolute>68880</Absolute>
    <NoteOn Channel="1" Note="52" Velocity="0"/>
  </Event>
  <Event>
    <Absolute>68880</Absolute>
    <NoteOn Channel="1" Note="54" Velocity="100"/>
  </Event>
  <Event>
    <Absolute>69120</Absolute>
    <NoteOn Channel="1" Note="54" Velocity="0"/>
  </Event>
  <Event>
    <Absolute>69120</Absolute>
    <NoteOn Channel="1" Note="54" Velocity="100"/>
  </Event>
  <Event>
    <Absolute>69240</Absolute>
    <NoteOn Channel="1" Note="54" Velocity="0"/>
  </Event>
  <Event>
    <Absolute>69240</Absolute>
    <NoteOn Channel="1" Note="55" Velocity="100"/>
  </Event>
  <Event>
    <Absolute>69360</Absolute>
    <NoteOn Channel="1" Note="55" Velocity="0"/>
  </Event>
  <Event>
    <Absolute>69360</Absolute>
    <NoteOn Channel="1" Note="57" Velocity="100"/>
  </Event>
  <Event>
    <Absolute>69600</Absolute>
    <NoteOn Channel="1" Note="57" Velocity="0"/>
  </Event>
  <Event>
    <Absolute>69600</Absolute>
    <NoteOn Channel="1" Note="54" Velocity="100"/>
  </Event>
  <Event>
    <Absolute>69840</Absolute>
    <NoteOn Channel="1" Note="54" Velocity="0"/>
  </Event>
  <Event>
    <Absolute>69840</Absolute>
    <NoteOn Channel="1" Note="50" Velocity="100"/>
  </Event>
  <Event>
    <Absolute>70080</Absolute>
    <NoteOn Channel="1" Note="50" Velocity="0"/>
  </Event>
  <Event>
    <Absolute>70080</Absolute>
    <NoteOn Channel="1" Note="60" Velocity="100"/>
  </Event>
  <Event>
    <Absolute>70320</Absolute>
    <NoteOn Channel="1" Note="60" Velocity="0"/>
  </Event>
  <Event>
    <Absolute>70320</Absolute>
    <NoteOn Channel="1" Note="59" Velocity="100"/>
  </Event>
  <Event>
    <Absolute>70560</Absolute>
    <NoteOn Channel="1" Note="59" Velocity="0"/>
  </Event>
  <Event>
    <Absolute>70560</Absolute>
    <NoteOn Channel="1" Note="59" Velocity="100"/>
  </Event>
  <Event>
    <Absolute>70800</Absolute>
    <NoteOn Channel="1" Note="59" Velocity="0"/>
  </Event>
  <Event>
    <Absolute>70800</Absolute>
    <NoteOn Channel="1" Note="55" Velocity="100"/>
  </Event>
  <Event>
    <Absolute>71040</Absolute>
    <NoteOn Channel="1" Note="55" Velocity="0"/>
  </Event>
  <Event>
    <Absolute>71040</Absolute>
    <NoteOn Channel="1" Note="57" Velocity="100"/>
  </Event>
  <Event>
    <Absolute>71280</Absolute>
    <NoteOn Channel="1" Note="57" Velocity="0"/>
  </Event>
  <Event>
    <Absolute>71280</Absolute>
    <NoteOn Channel="1" Note="57" Velocity="100"/>
  </Event>
  <Event>
    <Absolute>71520</Absolute>
    <NoteOn Channel="1" Note="57" Velocity="0"/>
  </Event>
  <Event>
    <Absolute>71520</Absolute>
    <NoteOn Channel="1" Note="54" Velocity="100"/>
  </Event>
  <Event>
    <Absolute>71760</Absolute>
    <NoteOn Channel="1" Note="54" Velocity="0"/>
  </Event>
  <Event>
    <Absolute>71760</Absolute>
    <NoteOn Channel="1" Note="55" Velocity="100"/>
  </Event>
  <Event>
    <Absolute>72000</Absolute>
    <NoteOn Channel="1" Note="55" Velocity="0"/>
  </Event>
  <Event>
    <Absolute>72000</Absolute>
    <NoteOn Channel="1" Note="55" Velocity="100"/>
  </Event>
  <Event>
    <Absolute>72120</Absolute>
    <NoteOn Channel="1" Note="55" Velocity="0"/>
  </Event>
  <Event>
    <Absolute>72120</Absolute>
    <NoteOn Channel="1" Note="57" Velocity="100"/>
  </Event>
  <Event>
    <Absolute>72240</Absolute>
    <NoteOn Channel="1" Note="57" Velocity="0"/>
  </Event>
  <Event>
    <Absolute>72240</Absolute>
    <NoteOn Channel="1" Note="59" Velocity="100"/>
  </Event>
  <Event>
    <Absolute>72480</Absolute>
    <NoteOn Channel="1" Note="59" Velocity="0"/>
  </Event>
  <Event>
    <Absolute>72480</Absolute>
    <NoteOn Channel="1" Note="55" Velocity="100"/>
  </Event>
  <Event>
    <Absolute>72720</Absolute>
    <NoteOn Channel="1" Note="55" Velocity="0"/>
  </Event>
  <Event>
    <Absolute>72720</Absolute>
    <NoteOn Channel="1" Note="52" Velocity="100"/>
  </Event>
  <Event>
    <Absolute>72960</Absolute>
    <NoteOn Channel="1" Note="52" Velocity="0"/>
  </Event>
  <Event>
    <Absolute>72960</Absolute>
    <NoteOn Channel="1" Note="62" Velocity="100"/>
  </Event>
  <Event>
    <Absolute>73200</Absolute>
    <NoteOn Channel="1" Note="62" Velocity="0"/>
  </Event>
  <Event>
    <Absolute>73200</Absolute>
    <NoteOn Channel="1" Note="60" Velocity="100"/>
  </Event>
  <Event>
    <Absolute>73440</Absolute>
    <NoteOn Channel="1" Note="60" Velocity="0"/>
  </Event>
  <Event>
    <Absolute>73440</Absolute>
    <NoteOn Channel="1" Note="57" Velocity="100"/>
  </Event>
  <Event>
    <Absolute>73680</Absolute>
    <NoteOn Channel="1" Note="57" Velocity="0"/>
  </Event>
  <Event>
    <Absolute>73680</Absolute>
    <NoteOn Channel="1" Note="62" Velocity="100"/>
  </Event>
  <Event>
    <Absolute>73920</Absolute>
    <NoteOn Channel="1" Note="62" Velocity="0"/>
  </Event>
  <Event>
    <Absolute>73920</Absolute>
    <NoteOn Channel="1" Note="60" Velocity="100"/>
  </Event>
  <Event>
    <Absolute>74160</Absolute>
    <NoteOn Channel="1" Note="60" Velocity="0"/>
  </Event>
  <Event>
    <Absolute>74160</Absolute>
    <NoteOn Channel="1" Note="50" Velocity="100"/>
  </Event>
  <Event>
    <Absolute>74400</Absolute>
    <NoteOn Channel="1" Note="50" Velocity="0"/>
  </Event>
  <Event>
    <Absolute>74400</Absolute>
    <NoteOn Channel="1" Note="60" Velocity="100"/>
  </Event>
  <Event>
    <Absolute>74640</Absolute>
    <NoteOn Channel="1" Note="60" Velocity="0"/>
  </Event>
  <Event>
    <Absolute>74640</Absolute>
    <NoteOn Channel="1" Note="59" Velocity="100"/>
  </Event>
  <Event>
    <Absolute>74880</Absolute>
    <NoteOn Channel="1" Note="59" Velocity="0"/>
  </Event>
  <Event>
    <Absolute>74880</Absolute>
    <NoteOn Channel="1" Note="55" Velocity="100"/>
  </Event>
  <Event>
    <Absolute>75120</Absolute>
    <NoteOn Channel="1" Note="55" Velocity="0"/>
  </Event>
  <Event>
    <Absolute>75120</Absolute>
    <NoteOn Channel="1" Note="60" Velocity="100"/>
  </Event>
  <Event>
    <Absolute>75360</Absolute>
    <NoteOn Channel="1" Note="60" Velocity="0"/>
  </Event>
  <Event>
    <Absolute>75360</Absolute>
    <NoteOn Channel="1" Note="59" Velocity="100"/>
  </Event>
  <Event>
    <Absolute>75600</Absolute>
    <NoteOn Channel="1" Note="59" Velocity="0"/>
  </Event>
  <Event>
    <Absolute>75600</Absolute>
    <NoteOn Channel="1" Note="48" Velocity="100"/>
  </Event>
  <Event>
    <Absolute>75840</Absolute>
    <NoteOn Channel="1" Note="48" Velocity="0"/>
  </Event>
  <Event>
    <Absolute>75840</Absolute>
    <NoteOn Channel="1" Note="59" Velocity="100"/>
  </Event>
  <Event>
    <Absolute>76080</Absolute>
    <NoteOn Channel="1" Note="59" Velocity="0"/>
  </Event>
  <Event>
    <Absolute>76080</Absolute>
    <NoteOn Channel="1" Note="57" Velocity="100"/>
  </Event>
  <Event>
    <Absolute>76320</Absolute>
    <NoteOn Channel="1" Note="57" Velocity="0"/>
  </Event>
  <Event>
    <Absolute>76320</Absolute>
    <NoteOn Channel="1" Note="55" Velocity="100"/>
  </Event>
  <Event>
    <Absolute>76560</Absolute>
    <NoteOn Channel="1" Note="55" Velocity="0"/>
  </Event>
  <Event>
    <Absolute>76560</Absolute>
    <NoteOn Channel="1" Note="54" Velocity="100"/>
  </Event>
  <Event>
    <Absolute>76800</Absolute>
    <NoteOn Channel="1" Note="54" Velocity="0"/>
  </Event>
  <Event>
    <Absolute>76800</Absolute>
    <NoteOn Channel="1" Note="52" Velocity="100"/>
  </Event>
  <Event>
    <Absolute>77040</Absolute>
    <NoteOn Channel="1" Note="52" Velocity="0"/>
  </Event>
  <Event>
    <Absolute>77040</Absolute>
    <NoteOn Channel="1" Note="47" Velocity="100"/>
  </Event>
  <Event>
    <Absolute>77280</Absolute>
    <NoteOn Channel="1" Note="47" Velocity="0"/>
  </Event>
  <Event>
    <Absolute>77280</Absolute>
    <NoteOn Channel="1" Note="52" Velocity="100"/>
  </Event>
  <Event>
    <Absolute>77520</Absolute>
    <NoteOn Channel="1" Note="52" Velocity="0"/>
  </Event>
  <Event>
    <Absolute>77520</Absolute>
    <NoteOn Channel="1" Note="51" Velocity="100"/>
  </Event>
  <Event>
    <Absolute>77760</Absolute>
    <NoteOn Channel="1" Note="51" Velocity="0"/>
  </Event>
  <Event>
    <Absolute>77760</Absolute>
    <NoteOn Channel="1" Note="52" Velocity="100"/>
  </Event>
  <Event>
    <Absolute>78000</Absolute>
    <NoteOn Channel="1" Note="52" Velocity="0"/>
  </Event>
  <Event>
    <Absolute>78000</Absolute>
    <NoteOn Channel="1" Note="47" Velocity="100"/>
  </Event>
  <Event>
    <Absolute>78240</Absolute>
    <NoteOn Channel="1" Note="47" Velocity="0"/>
  </Event>
  <Event>
    <Absolute>78240</Absolute>
    <NoteOn Channel="1" Note="43" Velocity="100"/>
  </Event>
  <Event>
    <Absolute>78480</Absolute>
    <NoteOn Channel="1" Note="43" Velocity="0"/>
  </Event>
  <Event>
    <Absolute>78480</Absolute>
    <NoteOn Channel="1" Note="40" Velocity="100"/>
  </Event>
  <Event>
    <Absolute>78960</Absolute>
    <NoteOn Channel="1" Note="40" Velocity="0"/>
  </Event>
  <Event>
    <Absolute>78960</Absolute>
    <NoteOn Channel="1" Note="55" Velocity="100"/>
  </Event>
  <Event>
    <Absolute>79200</Absolute>
    <NoteOn Channel="1" Note="55" Velocity="0"/>
  </Event>
  <Event>
    <Absolute>79200</Absolute>
    <NoteOn Channel="1" Note="57" Velocity="100"/>
  </Event>
  <Event>
    <Absolute>79440</Absolute>
    <NoteOn Channel="1" Note="57" Velocity="0"/>
  </Event>
  <Event>
    <Absolute>79440</Absolute>
    <NoteOn Channel="1" Note="54" Velocity="100"/>
  </Event>
  <Event>
    <Absolute>79680</Absolute>
    <NoteOn Channel="1" Note="54" Velocity="0"/>
  </Event>
  <Event>
    <Absolute>79680</Absolute>
    <NoteOn Channel="1" Note="55" Velocity="100"/>
  </Event>
  <Event>
    <Absolute>79920</Absolute>
    <NoteOn Channel="1" Note="55" Velocity="0"/>
  </Event>
  <Event>
    <Absolute>79920</Absolute>
    <NoteOn Channel="1" Note="61" Velocity="100"/>
  </Event>
  <Event>
    <Absolute>80040</Absolute>
    <NoteOn Channel="1" Note="61" Velocity="0"/>
  </Event>
  <Event>
    <Absolute>80040</Absolute>
    <NoteOn Channel="1" Note="62" Velocity="100"/>
  </Event>
  <Event>
    <Absolute>80160</Absolute>
    <NoteOn Channel="1" Note="62" Velocity="0"/>
  </Event>
  <Event>
    <Absolute>80160</Absolute>
    <NoteOn Channel="1" Note="64" Velocity="100"/>
  </Event>
  <Event>
    <Absolute>80400</Absolute>
    <NoteOn Channel="1" Note="64" Velocity="0"/>
  </Event>
  <Event>
    <Absolute>80400</Absolute>
    <NoteOn Channel="1" Note="54" Velocity="100"/>
  </Event>
  <Event>
    <Absolute>80640</Absolute>
    <NoteOn Channel="1" Note="54" Velocity="0"/>
  </Event>
  <Event>
    <Absolute>80640</Absolute>
    <NoteOn Channel="1" Note="55" Velocity="100"/>
  </Event>
  <Event>
    <Absolute>80880</Absolute>
    <NoteOn Channel="1" Note="55" Velocity="0"/>
  </Event>
  <Event>
    <Absolute>80880</Absolute>
    <NoteOn Channel="1" Note="52" Velocity="100"/>
  </Event>
  <Event>
    <Absolute>81120</Absolute>
    <NoteOn Channel="1" Note="52" Velocity="0"/>
  </Event>
  <Event>
    <Absolute>81120</Absolute>
    <NoteOn Channel="1" Note="53" Velocity="100"/>
  </Event>
  <Event>
    <Absolute>81360</Absolute>
    <NoteOn Channel="1" Note="53" Velocity="0"/>
  </Event>
  <Event>
    <Absolute>81360</Absolute>
    <NoteOn Channel="1" Note="59" Velocity="100"/>
  </Event>
  <Event>
    <Absolute>81480</Absolute>
    <NoteOn Channel="1" Note="59" Velocity="0"/>
  </Event>
  <Event>
    <Absolute>81480</Absolute>
    <NoteOn Channel="1" Note="60" Velocity="100"/>
  </Event>
  <Event>
    <Absolute>81600</Absolute>
    <NoteOn Channel="1" Note="60" Velocity="0"/>
  </Event>
  <Event>
    <Absolute>81600</Absolute>
    <NoteOn Channel="1" Note="62" Velocity="100"/>
  </Event>
  <Event>
    <Absolute>81840</Absolute>
    <NoteOn Channel="1" Note="62" Velocity="0"/>
  </Event>
  <Event>
    <Absolute>81840</Absolute>
    <NoteOn Channel="1" Note="52" Velocity="100"/>
  </Event>
  <Event>
    <Absolute>82080</Absolute>
    <NoteOn Channel="1" Note="52" Velocity="0"/>
  </Event>
  <Event>
    <Absolute>82080</Absolute>
    <NoteOn Channel="1" Note="53" Velocity="100"/>
  </Event>
  <Event>
    <Absolute>82320</Absolute>
    <NoteOn Channel="1" Note="53" Velocity="0"/>
  </Event>
  <Event>
    <Absolute>82320</Absolute>
    <NoteOn Channel="1" Note="50" Velocity="100"/>
  </Event>
  <Event>
    <Absolute>82560</Absolute>
    <NoteOn Channel="1" Note="50" Velocity="0"/>
  </Event>
  <Event>
    <Absolute>82560</Absolute>
    <NoteOn Channel="1" Note="52" Velocity="100"/>
  </Event>
  <Event>
    <Absolute>82800</Absolute>
    <NoteOn Channel="1" Note="52" Velocity="0"/>
  </Event>
  <Event>
    <Absolute>82800</Absolute>
    <NoteOn Channel="1" Note="57" Velocity="100"/>
  </Event>
  <Event>
    <Absolute>82920</Absolute>
    <NoteOn Channel="1" Note="57" Velocity="0"/>
  </Event>
  <Event>
    <Absolute>82920</Absolute>
    <NoteOn Channel="1" Note="59" Velocity="100"/>
  </Event>
  <Event>
    <Absolute>83040</Absolute>
    <NoteOn Channel="1" Note="59" Velocity="0"/>
  </Event>
  <Event>
    <Absolute>83040</Absolute>
    <NoteOn Channel="1" Note="60" Velocity="100"/>
  </Event>
  <Event>
    <Absolute>83280</Absolute>
    <NoteOn Channel="1" Note="60" Velocity="0"/>
  </Event>
  <Event>
    <Absolute>83280</Absolute>
    <NoteOn Channel="1" Note="57" Velocity="100"/>
  </Event>
  <Event>
    <Absolute>83520</Absolute>
    <NoteOn Channel="1" Note="57" Velocity="0"/>
  </Event>
  <Event>
    <Absolute>83520</Absolute>
    <NoteOn Channel="1" Note="54" Velocity="100"/>
  </Event>
  <Event>
    <Absolute>83640</Absolute>
    <NoteOn Channel="1" Note="54" Velocity="0"/>
  </Event>
  <Event>
    <Absolute>83640</Absolute>
    <NoteOn Channel="1" Note="55" Velocity="100"/>
  </Event>
  <Event>
    <Absolute>83760</Absolute>
    <NoteOn Channel="1" Note="55" Velocity="0"/>
  </Event>
  <Event>
    <Absolute>83760</Absolute>
    <NoteOn Channel="1" Note="57" Velocity="100"/>
  </Event>
  <Event>
    <Absolute>84000</Absolute>
    <NoteOn Channel="1" Note="57" Velocity="0"/>
  </Event>
  <Event>
    <Absolute>84000</Absolute>
    <NoteOn Channel="1" Note="54" Velocity="100"/>
  </Event>
  <Event>
    <Absolute>84240</Absolute>
    <NoteOn Channel="1" Note="54" Velocity="0"/>
  </Event>
  <Event>
    <Absolute>84240</Absolute>
    <NoteOn Channel="1" Note="50" Velocity="100"/>
  </Event>
  <Event>
    <Absolute>84720</Absolute>
    <NoteOn Channel="1" Note="50" Velocity="0"/>
  </Event>
  <Event>
    <Absolute>84720</Absolute>
    <NoteOn Channel="1" Note="57" Velocity="100"/>
  </Event>
  <Event>
    <Absolute>84960</Absolute>
    <NoteOn Channel="1" Note="57" Velocity="0"/>
  </Event>
  <Event>
    <Absolute>84960</Absolute>
    <NoteOn Channel="1" Note="58" Velocity="100"/>
  </Event>
  <Event>
    <Absolute>85200</Absolute>
    <NoteOn Channel="1" Note="58" Velocity="0"/>
  </Event>
  <Event>
    <Absolute>85200</Absolute>
    <NoteOn Channel="1" Note="57" Velocity="100"/>
  </Event>
  <Event>
    <Absolute>85440</Absolute>
    <NoteOn Channel="1" Note="57" Velocity="0"/>
  </Event>
  <Event>
    <Absolute>85440</Absolute>
    <NoteOn Channel="1" Note="60" Velocity="100"/>
  </Event>
  <Event>
    <Absolute>85680</Absolute>
    <NoteOn Channel="1" Note="60" Velocity="0"/>
  </Event>
  <Event>
    <Absolute>85680</Absolute>
    <NoteOn Channel="1" Note="60" Velocity="100"/>
  </Event>
  <Event>
    <Absolute>85920</Absolute>
    <NoteOn Channel="1" Note="60" Velocity="0"/>
  </Event>
  <Event>
    <Absolute>85920</Absolute>
    <NoteOn Channel="1" Note="58" Velocity="100"/>
  </Event>
  <Event>
    <Absolute>86160</Absolute>
    <NoteOn Channel="1" Note="58" Velocity="0"/>
  </Event>
  <Event>
    <Absolute>86160</Absolute>
    <NoteOn Channel="1" Note="62" Velocity="100"/>
  </Event>
  <Event>
    <Absolute>86400</Absolute>
    <NoteOn Channel="1" Note="62" Velocity="0"/>
  </Event>
  <Event>
    <Absolute>86400</Absolute>
    <NoteOn Channel="1" Note="62" Velocity="100"/>
  </Event>
  <Event>
    <Absolute>86640</Absolute>
    <NoteOn Channel="1" Note="62" Velocity="0"/>
  </Event>
  <Event>
    <Absolute>86640</Absolute>
    <NoteOn Channel="1" Note="60" Velocity="100"/>
  </Event>
  <Event>
    <Absolute>86880</Absolute>
    <NoteOn Channel="1" Note="60" Velocity="0"/>
  </Event>
  <Event>
    <Absolute>86880</Absolute>
    <NoteOn Channel="1" Note="63" Velocity="100"/>
  </Event>
  <Event>
    <Absolute>87120</Absolute>
    <NoteOn Channel="1" Note="63" Velocity="0"/>
  </Event>
  <Event>
    <Absolute>87120</Absolute>
    <NoteOn Channel="1" Note="63" Velocity="100"/>
  </Event>
  <Event>
    <Absolute>87360</Absolute>
    <NoteOn Channel="1" Note="63" Velocity="0"/>
  </Event>
  <Event>
    <Absolute>87360</Absolute>
    <NoteOn Channel="1" Note="62" Velocity="100"/>
  </Event>
  <Event>
    <Absolute>87600</Absolute>
    <NoteOn Channel="1" Note="62" Velocity="0"/>
  </Event>
  <Event>
    <Absolute>87600</Absolute>
    <NoteOn Channel="1" Note="60" Velocity="100"/>
  </Event>
  <Event>
    <Absolute>87840</Absolute>
    <NoteOn Channel="1" Note="60" Velocity="0"/>
  </Event>
  <Event>
    <Absolute>87840</Absolute>
    <NoteOn Channel="1" Note="58" Velocity="100"/>
  </Event>
  <Event>
    <Absolute>88080</Absolute>
    <NoteOn Channel="1" Note="58" Velocity="0"/>
  </Event>
  <Event>
    <Absolute>88080</Absolute>
    <NoteOn Channel="1" Note="57" Velocity="100"/>
  </Event>
  <Event>
    <Absolute>88320</Absolute>
    <NoteOn Channel="1" Note="57" Velocity="0"/>
  </Event>
  <Event>
    <Absolute>88320</Absolute>
    <NoteOn Channel="1" Note="55" Velocity="100"/>
  </Event>
  <Event>
    <Absolute>88560</Absolute>
    <NoteOn Channel="1" Note="55" Velocity="0"/>
  </Event>
  <Event>
    <Absolute>88560</Absolute>
    <NoteOn Channel="1" Note="50" Velocity="100"/>
  </Event>
  <Event>
    <Absolute>88800</Absolute>
    <NoteOn Channel="1" Note="50" Velocity="0"/>
  </Event>
  <Event>
    <Absolute>88800</Absolute>
    <NoteOn Channel="1" Note="55" Velocity="100"/>
  </Event>
  <Event>
    <Absolute>89040</Absolute>
    <NoteOn Channel="1" Note="55" Velocity="0"/>
  </Event>
  <Event>
    <Absolute>89040</Absolute>
    <NoteOn Channel="1" Note="54" Velocity="100"/>
  </Event>
  <Event>
    <Absolute>89280</Absolute>
    <NoteOn Channel="1" Note="54" Velocity="0"/>
  </Event>
  <Event>
    <Absolute>89280</Absolute>
    <NoteOn Channel="1" Note="55" Velocity="100"/>
  </Event>
  <Event>
    <Absolute>89520</Absolute>
    <NoteOn Channel="1" Note="55" Velocity="0"/>
  </Event>
  <Event>
    <Absolute>89520</Absolute>
    <NoteOn Channel="1" Note="47" Velocity="100"/>
  </Event>
  <Event>
    <Absolute>89640</Absolute>
    <NoteOn Channel="1" Note="47" Velocity="0"/>
  </Event>
  <Event>
    <Absolute>89640</Absolute>
    <NoteOn Channel="1" Note="48" Velocity="100"/>
  </Event>
  <Event>
    <Absolute>89760</Absolute>
    <NoteOn Channel="1" Note="48" Velocity="0"/>
  </Event>
  <Event>
    <Absolute>89760</Absolute>
    <NoteOn Channel="1" Note="50" Velocity="100"/>
  </Event>
  <Event>
    <Absolute>90000</Absolute>
    <NoteOn Channel="1" Note="50" Velocity="0"/>
  </Event>
  <Event>
    <Absolute>90000</Absolute>
    <NoteOn Channel="1" Note="43" Velocity="100"/>
  </Event>
  <Event>
    <Absolute>90240</Absolute>
    <NoteOn Channel="1" Note="43" Velocity="0"/>
  </Event>
  <Event>
    <Absolute>90240</Absolute>
    <NoteOn Channel="1" Note="47" Velocity="100"/>
  </Event>
  <Event>
    <Absolute>90480</Absolute>
    <NoteOn Channel="1" Note="47" Velocity="0"/>
  </Event>
  <Event>
    <Absolute>90480</Absolute>
    <NoteOn Channel="1" Note="50" Velocity="100"/>
  </Event>
  <Event>
    <Absolute>90720</Absolute>
    <NoteOn Channel="1" Note="50" Velocity="0"/>
  </Event>
  <Event>
    <Absolute>90720</Absolute>
    <NoteOn Channel="1" Note="55" Velocity="100"/>
  </Event>
  <Event>
    <Absolute>90960</Absolute>
    <NoteOn Channel="1" Note="55" Velocity="0"/>
  </Event>
  <Event>
    <Absolute>90960</Absolute>
    <NoteOn Channel="1" Note="52" Velocity="100"/>
  </Event>
  <Event>
    <Absolute>91080</Absolute>
    <NoteOn Channel="1" Note="52" Velocity="0"/>
  </Event>
  <Event>
    <Absolute>91080</Absolute>
    <NoteOn Channel="1" Note="53" Velocity="100"/>
  </Event>
  <Event>
    <Absolute>91200</Absolute>
    <NoteOn Channel="1" Note="53" Velocity="0"/>
  </Event>
  <Event>
    <Absolute>91200</Absolute>
    <NoteOn Channel="1" Note="55" Velocity="100"/>
  </Event>
  <Event>
    <Absolute>91440</Absolute>
    <NoteOn Channel="1" Note="55" Velocity="0"/>
  </Event>
  <Event>
    <Absolute>91440</Absolute>
    <NoteOn Channel="1" Note="47" Velocity="100"/>
  </Event>
  <Event>
    <Absolute>91680</Absolute>
    <NoteOn Channel="1" Note="47" Velocity="0"/>
  </Event>
  <Event>
    <Absolute>91680</Absolute>
    <NoteOn Channel="1" Note="48" Velocity="100"/>
  </Event>
  <Event>
    <Absolute>91920</Absolute>
    <NoteOn Channel="1" Note="48" Velocity="0"/>
  </Event>
  <Event>
    <Absolute>91920</Absolute>
    <NoteOn Channel="1" Note="52" Velocity="100"/>
  </Event>
  <Event>
    <Absolute>92160</Absolute>
    <NoteOn Channel="1" Note="52" Velocity="0"/>
  </Event>
  <Event>
    <Absolute>92160</Absolute>
    <NoteOn Channel="1" Note="57" Velocity="100"/>
  </Event>
  <Event>
    <Absolute>92400</Absolute>
    <NoteOn Channel="1" Note="57" Velocity="0"/>
  </Event>
  <Event>
    <Absolute>92400</Absolute>
    <NoteOn Channel="1" Note="54" Velocity="100"/>
  </Event>
  <Event>
    <Absolute>92520</Absolute>
    <NoteOn Channel="1" Note="54" Velocity="0"/>
  </Event>
  <Event>
    <Absolute>92520</Absolute>
    <NoteOn Channel="1" Note="55" Velocity="100"/>
  </Event>
  <Event>
    <Absolute>92640</Absolute>
    <NoteOn Channel="1" Note="55" Velocity="0"/>
  </Event>
  <Event>
    <Absolute>92640</Absolute>
    <NoteOn Channel="1" Note="57" Velocity="100"/>
  </Event>
  <Event>
    <Absolute>92880</Absolute>
    <NoteOn Channel="1" Note="57" Velocity="0"/>
  </Event>
  <Event>
    <Absolute>92880</Absolute>
    <NoteOn Channel="1" Note="49" Velocity="100"/>
  </Event>
  <Event>
    <Absolute>93120</Absolute>
    <NoteOn Channel="1" Note="49" Velocity="0"/>
  </Event>
  <Event>
    <Absolute>93120</Absolute>
    <NoteOn Channel="1" Note="50" Velocity="100"/>
  </Event>
  <Event>
    <Absolute>93360</Absolute>
    <NoteOn Channel="1" Note="50" Velocity="0"/>
  </Event>
  <Event>
    <Absolute>93360</Absolute>
    <NoteOn Channel="1" Note="54" Velocity="100"/>
  </Event>
  <Event>
    <Absolute>93600</Absolute>
    <NoteOn Channel="1" Note="54" Velocity="0"/>
  </Event>
  <Event>
    <Absolute>93600</Absolute>
    <NoteOn Channel="1" Note="59" Velocity="100"/>
  </Event>
  <Event>
    <Absolute>93840</Absolute>
    <NoteOn Channel="1" Note="59" Velocity="0"/>
  </Event>
  <Event>
    <Absolute>93840</Absolute>
    <NoteOn Channel="1" Note="55" Velocity="100"/>
  </Event>
  <Event>
    <Absolute>93960</Absolute>
    <NoteOn Channel="1" Note="55" Velocity="0"/>
  </Event>
  <Event>
    <Absolute>93960</Absolute>
    <NoteOn Channel="1" Note="57" Velocity="100"/>
  </Event>
  <Event>
    <Absolute>94080</Absolute>
    <NoteOn Channel="1" Note="57" Velocity="0"/>
  </Event>
  <Event>
    <Absolute>94080</Absolute>
    <NoteOn Channel="1" Note="59" Velocity="100"/>
  </Event>
  <Event>
    <Absolute>94320</Absolute>
    <NoteOn Channel="1" Note="59" Velocity="0"/>
  </Event>
  <Event>
    <Absolute>94320</Absolute>
    <NoteOn Channel="1" Note="51" Velocity="100"/>
  </Event>
  <Event>
    <Absolute>94560</Absolute>
    <NoteOn Channel="1" Note="51" Velocity="0"/>
  </Event>
  <Event>
    <Absolute>94560</Absolute>
    <NoteOn Channel="1" Note="52" Velocity="100"/>
  </Event>
  <Event>
    <Absolute>94800</Absolute>
    <NoteOn Channel="1" Note="52" Velocity="0"/>
  </Event>
  <Event>
    <Absolute>94800</Absolute>
    <NoteOn Channel="1" Note="60" Velocity="100"/>
  </Event>
  <Event>
    <Absolute>95040</Absolute>
    <NoteOn Channel="1" Note="60" Velocity="0"/>
  </Event>
  <Event>
    <Absolute>95040</Absolute>
    <NoteOn Channel="1" Note="52" Velocity="100"/>
  </Event>
  <Event>
    <Absolute>95280</Absolute>
    <NoteOn Channel="1" Note="52" Velocity="0"/>
  </Event>
  <Event>
    <Absolute>95280</Absolute>
    <NoteOn Channel="1" Note="54" Velocity="100"/>
  </Event>
  <Event>
    <Absolute>95520</Absolute>
    <NoteOn Channel="1" Note="54" Velocity="0"/>
  </Event>
  <Event>
    <Absolute>95520</Absolute>
    <NoteOn Channel="1" Note="62" Velocity="100"/>
  </Event>
  <Event>
    <Absolute>95760</Absolute>
    <NoteOn Channel="1" Note="62" Velocity="0"/>
  </Event>
  <Event>
    <Absolute>95760</Absolute>
    <NoteOn Channel="1" Note="54" Velocity="100"/>
  </Event>
  <Event>
    <Absolute>96000</Absolute>
    <NoteOn Channel="1" Note="54" Velocity="0"/>
  </Event>
  <Event>
    <Absolute>96000</Absolute>
    <NoteOn Channel="1" Note="55" Velocity="100"/>
  </Event>
  <Event>
    <Absolute>96240</Absolute>
    <NoteOn Channel="1" Note="55" Velocity="0"/>
  </Event>
  <Event>
    <Absolute>96240</Absolute>
    <NoteOn Channel="1" Note="64" Velocity="100"/>
  </Event>
  <Event>
    <Absolute>96480</Absolute>
    <NoteOn Channel="1" Note="64" Velocity="0"/>
  </Event>
  <Event>
    <Absolute>96480</Absolute>
    <NoteOn Channel="1" Note="50" Velocity="100"/>
  </Event>
  <Event>
    <Absolute>96720</Absolute>
    <NoteOn Channel="1" Note="50" Velocity="0"/>
  </Event>
  <Event>
    <Absolute>96720</Absolute>
    <NoteOn Channel="1" Note="52" Velocity="100"/>
  </Event>
  <Event>
    <Absolute>96840</Absolute>
    <NoteOn Channel="1" Note="52" Velocity="0"/>
  </Event>
  <Event>
    <Absolute>96840</Absolute>
    <NoteOn Channel="1" Note="54" Velocity="100"/>
  </Event>
  <Event>
    <Absolute>96960</Absolute>
    <NoteOn Channel="1" Note="54" Velocity="0"/>
  </Event>
  <Event>
    <Absolute>96960</Absolute>
    <NoteOn Channel="1" Note="55" Velocity="100"/>
  </Event>
  <Event>
    <Absolute>97080</Absolute>
    <NoteOn Channel="1" Note="55" Velocity="0"/>
  </Event>
  <Event>
    <Absolute>97080</Absolute>
    <NoteOn Channel="1" Note="57" Velocity="100"/>
  </Event>
  <Event>
    <Absolute>97200</Absolute>
    <NoteOn Channel="1" Note="57" Velocity="0"/>
  </Event>
  <Event>
    <Absolute>97200</Absolute>
    <NoteOn Channel="1" Note="59" Velocity="100"/>
  </Event>
  <Event>
    <Absolute>97440</Absolute>
    <NoteOn Channel="1" Note="59" Velocity="0"/>
  </Event>
  <Event>
    <Absolute>97440</Absolute>
    <NoteOn Channel="1" Note="55" Velocity="100"/>
  </Event>
  <Event>
    <Absolute>97680</Absolute>
    <NoteOn Channel="1" Note="55" Velocity="0"/>
  </Event>
  <Event>
    <Absolute>97680</Absolute>
    <NoteOn Channel="1" Note="54" Velocity="100"/>
  </Event>
  <Event>
    <Absolute>97920</Absolute>
    <NoteOn Channel="1" Note="54" Velocity="0"/>
  </Event>
  <Event>
    <Absolute>97920</Absolute>
    <NoteOn Channel="1" Note="55" Velocity="100"/>
  </Event>
  <Event>
    <Absolute>98160</Absolute>
    <NoteOn Channel="1" Note="55" Velocity="0"/>
  </Event>
  <Event>
    <Absolute>98160</Absolute>
    <NoteOn Channel="1" Note="50" Velocity="100"/>
  </Event>
  <Event>
    <Absolute>98400</Absolute>
    <NoteOn Channel="1" Note="50" Velocity="0"/>
  </Event>
  <Event>
    <Absolute>98400</Absolute>
    <NoteOn Channel="1" Note="47" Velocity="100"/>
  </Event>
  <Event>
    <Absolute>98640</Absolute>
    <NoteOn Channel="1" Note="47" Velocity="0"/>
  </Event>
  <Event>
    <Absolute>98640</Absolute>
    <NoteOn Channel="1" Note="43" Velocity="100"/>
  </Event>
  <Event>
    <Absolute>99120</Absolute>
    <NoteOn Channel="1" Note="43" Velocity="0"/>
  </Event>
  <Event>
    <Absolute>99120</Absolute>
    <EndOfTrack/>
  </Event>
</Track>
<Track Number="2">
  <Event>
    <Absolute>0</Absolute>
    <MIDIChannelPrefix Value="00"/>
  </Event>
  <Event>
    <Absolute>0</Absolute>
    <TrackName>--------------------------------------</TrackName>
  </Event>
  <Event>
    <Absolute>0</Absolute>
    <ProgramChange Channel="2" Number="42"/>
  </Event>
  <Event>
    <Absolute>0</Absolute>
    <ControlChange Channel="2" Control="7" Value="100"/>
  </Event>
  <Event>
    <Absolute>0</Absolute>
    <ControlChange Channel="2" Control="10" Value="74"/>
  </Event>
  <Event>
    <Absolute>5760</Absolute>
    <NoteOn Channel="2" Note="50" Velocity="100"/>
  </Event>
  <Event>
    <Absolute>6480</Absolute>
    <NoteOn Channel="2" Note="50" Velocity="0"/>
  </Event>
  <Event>
    <Absolute>6480</Absolute>
    <NoteOn Channel="2" Note="50" Velocity="100"/>
  </Event>
  <Event>
    <Absolute>6960</Absolute>
    <NoteOn Channel="2" Note="50" Velocity="0"/>
  </Event>
  <Event>
    <Absolute>23040</Absolute>
    <NoteOn Channel="2" Note="50" Velocity="100"/>
  </Event>
  <Event>
    <Absolute>23760</Absolute>
    <NoteOn Channel="2" Note="50" Velocity="0"/>
  </Event>
  <Event>
    <Absolute>23760</Absolute>
    <NoteOn Channel="2" Note="50" Velocity="100"/>
  </Event>
  <Event>
    <Absolute>24240</Absolute>
    <NoteOn Channel="2" Note="50" Velocity="0"/>
  </Event>
  <Event>
    <Absolute>24240</Absolute>
    <EndOfTrack/>
  </Event>
</Track>
<Track Number="3">
  <Event>
    <Absolute>0</Absolute>
    <MIDIChannelPrefix Value="00"/>
  </Event>
  <Event>
    <Absolute>0</Absolute>
    <TrackName>Johann Sebastian Bach  (1685-1750)</TrackName>
  </Event>
  <Event>
    <Absolute>0</Absolute>
    <ProgramChange Channel="3" Number="42"/>
  </Event>
  <Event>
    <Absolute>0</Absolute>
    <ControlChange Channel="3" Control="7" Value="100"/>
  </Event>
  <Event>
    <Absolute>0</Absolute>
    <ControlChange Channel="3" Control="10" Value="54"/>
  </Event>
  <Event>
    <Absolute>5760</Absolute>
    <NoteOn Channel="3" Note="43" Velocity="100"/>
  </Event>
  <Event>
    <Absolute>6480</Absolute>
    <NoteOn Channel="3" Note="43" Velocity="0"/>
  </Event>
  <Event>
    <Absolute>23040</Absolute>
    <NoteOn Channel="3" Note="43" Velocity="100"/>
  </Event>
  <Event>
    <Absolute>23760</Absolute>
    <NoteOn Channel="3" Note="43" Velocity="0"/>
  </Event>
  <Event>
    <Absolute>23760</Absolute>
    <EndOfTrack/>
  </Event>
</Track>
<Track Number="4">
  <Event>
    <Absolute>0</Absolute>
    <MIDIChannelPrefix Value="00"/>
  </Event>
  <Event>
    <Absolute>0</Absolute>
    <TrackName>Six Suites for Solo Cello</TrackName>
  </Event>
  <Event>
    <Absolute>0</Absolute>
    <EndOfTrack/>
  </Event>
</Track>
<Track Number="5">
  <Event>
    <Absolute>0</Absolute>
    <MIDIChannelPrefix Value="00"/>
  </Event>
  <Event>
    <Absolute>0</Absolute>
    <TrackName>--------------------------------------</TrackName>
  </Event>
  <Event>
    <Absolute>0</Absolute>
    <EndOfTrack/>
  </Event>
</Track>
<Track Number="6">
  <Event>
    <Absolute>0</Absolute>
    <MIDIChannelPrefix Value="00"/>
  </Event>
  <Event>
    <Absolute>0</Absolute>
    <TrackName>Suite No. 1 in G major - BWV 1007</TrackName>
  </Event>
  <Event>
    <Absolute>0</Absolute>
    <EndOfTrack/>
  </Event>
</Track>
<Track Number="7">
  <Event>
    <Absolute>0</Absolute>
    <MIDIChannelPrefix Value="00"/>
  </Event>
  <Event>
    <Absolute>0</Absolute>
    <TrackName>6th Movement: Gigue</TrackName>
  </Event>
  <Event>
    <Absolute>0</Absolute>
    <EndOfTrack/>
  </Event>
</Track>
<Track Number="8">
  <Event>
    <Absolute>0</Absolute>
    <MIDIChannelPrefix Value="00"/>
  </Event>
  <Event>
    <Absolute>0</Absolute>
    <TrackName>--------------------------------------</TrackName>
  </Event>
  <Event>
    <Absolute>0</Absolute>
    <EndOfTrack/>
  </Event>
</Track>
<Track Number="9">
  <Event>
    <Absolute>0</Absolute>
    <MIDIChannelPrefix Value="00"/>
  </Event>
  <Event>
    <Absolute>0</Absolute>
    <TrackName>Sequenced with Cakewalk Pro Audio by</TrackName>
  </Event>
  <Event>
    <Absolute>0</Absolute>
    <EndOfTrack/>
  </Event>
</Track>
<Track Number="10">
  <Event>
    <Absolute>0</Absolute>
    <MIDIChannelPrefix Value="00"/>
  </Event>
  <Event>
    <Absolute>0</Absolute>
    <TrackName>David J. Grossman - dave@unpronounceable.com</TrackName>
  </Event>
  <Event>
    <Absolute>0</Absolute>
    <EndOfTrack/>
  </Event>
</Track>
<Track Number="11">
  <Event>
    <Absolute>0</Absolute>
    <MIDIChannelPrefix Value="00"/>
  </Event>
  <Event>
    <Absolute>0</Absolute>
    <TrackName>This and other Bach MIDI files can be found at:</TrackName>
  </Event>
  <Event>
    <Absolute>0</Absolute>
    <EndOfTrack/>
  </Event>
</Track>
<Track Number="12">
  <Event>
    <Absolute>0</Absolute>
    <MIDIChannelPrefix Value="00"/>
  </Event>
  <Event>
    <Absolute>0</Absolute>
    <TrackName>Dave's J.S. Bach Page</TrackName>
  </Event>
  <Event>
    <Absolute>0</Absolute>
    <EndOfTrack/>
  </Event>
</Track>
<Track Number="13">
  <Event>
    <Absolute>0</Absolute>
    <MIDIChannelPrefix Value="00"/>
  </Event>
  <Event>
    <Absolute>0</Absolute>
    <TrackName>http://www.unpronounceable.com/bach</TrackName>
  </Event>
  <Event>
    <Absolute>0</Absolute>
    <EndOfTrack/>
  </Event>
</Track>
<Track Number="14">
  <Event>
    <Absolute>0</Absolute>
    <MIDIChannelPrefix Value="00"/>
  </Event>
  <Event>
    <Absolute>0</Absolute>
    <TrackName>--------------------------------------</TrackName>
  </Event>
  <Event>
    <Absolute>0</Absolute>
    <EndOfTrack/>
  </Event>
</Track>
<Track Number="15">
  <Event>
    <Absolute>0</Absolute>
    <MIDIChannelPrefix Value="00"/>
  </Event>
  <Event>
    <Absolute>0</Absolute>
    <TrackName>Original Filename: cs1-6gig.mid</TrackName>
  </Event>
  <Event>
    <Absolute>0</Absolute>
    <EndOfTrack/>
  </Event>
</Track>
<Track Number="16">
  <Event>
    <Absolute>0</Absolute>
    <MIDIChannelPrefix Value="00"/>
  </Event>
  <Event>
    <Absolute>0</Absolute>
    <TrackName>Last Modified: February 22, 1997</TrackName>
  </Event>
  <Event>
    <Absolute>0</Absolute>
    <EndOfTrack/>
  </Event>
</Track>
</MIDIFile>