<MIDIFile>

    <Track Number="1">
        <Event>
            <Absolute>0</Absolute>
            <MIDIChannelPrefix Value="00"/>
        </Event>
        <Event>
            <Absolute>0</Absolute>
            <TrackName>Solo Cello</TrackName>
        </Event>
        <Event>
            <Absolute>0</Absolute>
            <ProgramChange Channel="1" Number="42"/>
        </Event>
        <Event>
            <Absolute>0</Absolute>
            <ControlChange Channel="1" Control="7" Value="100"/>
        </Event>
        <Event>
            <Absolute>0</Absolute>
            <ControlChange Channel="1" Control="10" Value="64"/>
        </Event>
        <Event>
            <Absolute>0</Absolute>
            <NoteOn Channel="1" Note="43" Velocity="100"/>
        </Event>
        <Event>
            <Absolute>120</Absolute>
            <NoteOn Channel="1" Note="43" Velocity="0"/>
        </Event>
        <Event>
            <Absolute>120</Absolute>
            <NoteOn Channel="1" Note="50" Velocity="100"/>
        </Event>
        <Event>
            <Absolute>240</Absolute>
            <NoteOn Channel="1" Note="50" Velocity="0"/>
        </Event>
        <Event>
            <Absolute>240</Absolute>
            <NoteOn Channel="1" Note="59" Velocity="100"/>
        </Event>
        <Event>
            <Absolute>360</Absolute>
            <NoteOn Channel="1" Note="59" Velocity="0"/>
        </Event>
        <Event>
            <Absolute>360</Absolute>
            <NoteOn Channel="1" Note="57" Velocity="100"/>
        </Event>
        <Event>
            <Absolute>480</Absolute>
            <NoteOn Channel="1" Note="57" Velocity="0"/>
        </Event>
        <Event>
            <Absolute>480</Absolute>
            <NoteOn Channel="1" Note="59" Velocity="100"/>
        </Event>
        <Event>
            <Absolute>600</Absolute>
            <NoteOn Channel="1" Note="59" Velocity="0"/>
        </Event>
        <Event>
            <Absolute>600</Absolute>
            <NoteOn Channel="1" Note="50" Velocity="100"/>
        </Event>
        <Event>
            <Absolute>720</Absolute>
            <NoteOn Channel="1" Note="50" Velocity="0"/>
        </Event>
        <Event>
            <Absolute>720</Absolute>
            <NoteOn Channel="1" Note="59" Velocity="100"/>
        </Event>
        <Event>
            <Absolute>840</Absolute>
            <NoteOn Channel="1" Note="59" Velocity="0"/>
        </Event>
        <Event>
            <Absolute>840</Absolute>
            <NoteOn Channel="1" Note="50" Velocity="100"/>
        </Event>
        <Event>
            <Absolute>960</Absolute>
            <NoteOn Channel="1" Note="50" Velocity="0"/>
        </Event>
        <Event>
            <Absolute>960</Absolute>
            <NoteOn Channel="1" Note="43" Velocity="100"/>
        </Event>
        <Event>
            <Absolute>1080</Absolute>
            <NoteOn Channel="1" Note="43" Velocity="0"/>
        </Event>
        <Event>
            <Absolute>1080</Absolute>
            <NoteOn Channel="1" Note="50" Velocity="100"/>
        </Event>
        <Event>
            <Absolute>1200</Absolute>
            <NoteOn Channel="1" Note="50" Velocity="0"/>
        </Event>
        <Event>
            <Absolute>1200</Absolute>
            <NoteOn Channel="1" Note="59" Velocity="100"/>
        </Event>
        <Event>
            <Absolute>1320</Absolute>
            <NoteOn Channel="1" Note="59" Velocity="0"/>
        </Event>
        <Event>
            <Absolute>1320</Absolute>
            <NoteOn Channel="1" Note="57" Velocity="100"/>
        </Event>
        <Event>
            <Absolute>1440</Absolute>
            <NoteOn Channel="1" Note="57" Velocity="0"/>
        </Event>
        <Event>
            <Absolute>1440</Absolute>
            <NoteOn Channel="1" Note="59" Velocity="100"/>
        </Event>
        <Event>
            <Absolute>1560</Absolute>
            <NoteOn Channel="1" Note="59" Velocity="0"/>
        </Event>
        <Event>
            <Absolute>1560</Absolute>
            <NoteOn Channel="1" Note="50" Velocity="100"/>
        </Event>
        <Event>
            <Absolute>1680</Absolute>
            <NoteOn Channel="1" Note="50" Velocity="0"/>
        </Event>
        <Event>
            <Absolute>1680</Absolute>
            <NoteOn Channel="1" Note="59" Velocity="100"/>
        </Event>
        <Event>
            <Absolute>1800</Absolute>
            <NoteOn Channel="1" Note="59" Velocity="0"/>
        </Event>
        <Event>
            <Absolute>1800</Absolute>
            <NoteOn Channel="1" Note="50" Velocity="100"/>
        </Event>
        <Event>
            <Absolute>1920</Absolute>
            <NoteOn Channel="1" Note="50" Velocity="0"/>
        </Event>
        <Event>
            <Absolute>1920</Absolute>
            <NoteOn Channel="1" Note="43" Velocity="100"/>
        </Event>
        <Event>
            <Absolute>2040</Absolute>
            <NoteOn Channel="1" Note="43" Velocity="0"/>
        </Event>
        <Event>
            <Absolute>2040</Absolute>
            <NoteOn Channel="1" Note="52" Velocity="100"/>
        </Event>
        <Event>
            <Absolute>2160</Absolute>
            <NoteOn Channel="1" Note="52" Velocity="0"/>
        </Event>
        <Event>
            <Absolute>2160</Absolute>
            <NoteOn Channel="1" Note="60" Velocity="100"/>
        </Event>
        <Event>
            <Absolute>2280</Absolute>
            <NoteOn Channel="1" Note="60" Velocity="0"/>
        </Event>
        <Event>
            <Absolute>2280</Absolute>
            <NoteOn Channel="1" Note="59" Velocity="100"/>
        </Event>
        <Event>
            <Absolute>2400</Absolute>
            <NoteOn Channel="1" Note="59" Velocity="0"/>
        </Event>
        <Event>
            <Absolute>2400</Absolute>
            <NoteOn Channel="1" Note="60" Velocity="100"/>
        </Event>
        <Event>
            <Absolute>2520</Absolute>
            <NoteOn Channel="1" Note="60" Velocity="0"/>
        </Event>
        <Event>
            <Absolute>2520</Absolute>
            <NoteOn Channel="1" Note="52" Velocity="100"/>
        </Event>
        <Event>
            <Absolute>2640</Absolute>
            <NoteOn Channel="1" Note="52" Velocity="0"/>
        </Event>
        <Event>
            <Absolute>2640</Absolute>
            <NoteOn Channel="1" Note="60" Velocity="100"/>
        </Event>
        <Event>
            <Absolute>2760</Absolute>
            <NoteOn Channel="1" Note="60" Velocity="0"/>
        </Event>
        <Event>
            <Absolute>2760</Absolute>
            <NoteOn Channel="1" Note="52" Velocity="100"/>
        </Event>
        <Event>
            <Absolute>2880</Absolute>
            <NoteOn Channel="1" Note="52" Velocity="0"/>
        </Event>
        <Event>
            <Absolute>2880</Absolute>
            <NoteOn Channel="1" Note="43" Velocity="100"/>
        </Event>
        <Event>
            <Absolute>3000</Absolute>
            <NoteOn Channel="1" Note="43" Velocity="0"/>
        </Event>
        <Event>
            <Absolute>3000</Absolute>
            <NoteOn Channel="1" Note="52" Velocity="100"/>
        </Event>
        <Event>
            <Absolute>3120</Absolute>
            <NoteOn Channel="1" Note="52" Velocity="0"/>
        </Event>
        <Event>
            <Absolute>3120</Absolute>
            <NoteOn Channel="1" Note="60" Velocity="100"/>
        </Event>
        <Event>
            <Absolute>3240</Absolute>
            <NoteOn Channel="1" Note="60" Velocity="0"/>
        </Event>
        <Event>
            <Absolute>3240</Absolute>
            <NoteOn Channel="1" Note="59" Velocity="100"/>
        </Event>
        <Event>
            <Absolute>3360</Absolute>
            <NoteOn Channel="1" Note="59" Velocity="0"/>
        </Event>
        <Event>
            <Absolute>3360</Absolute>
            <NoteOn Channel="1" Note="60" Velocity="100"/>
        </Event>
        <Event>
            <Absolute>3480</Absolute>
            <NoteOn Channel="1" Note="60" Velocity="0"/>
        </Event>
        <Event>
            <Absolute>3480</Absolute>
            <NoteOn Channel="1" Note="52" Velocity="100"/>
        </Event>
        <Event>
            <Absolute>3600</Absolute>
            <NoteOn Channel="1" Note="52" Velocity="0"/>
        </Event>
        <Event>
            <Absolute>3600</Absolute>
            <NoteOn Channel="1" Note="60" Velocity="100"/>
        </Event>
        <Event>
            <Absolute>3720</Absolute>
            <NoteOn Channel="1" Note="60" Velocity="0"/>
        </Event>
        <Event>
            <Absolute>3720</Absolute>
            <NoteOn Channel="1" Note="52" Velocity="100"/>
        </Event>
        <Event>
            <Absolute>3840</Absolute>
            <NoteOn Channel="1" Note="52" Velocity="0"/>
        </Event>
        <Event>
            <Absolute>3840</Absolute>
            <NoteOn Channel="1" Note="43" Velocity="100"/>
        </Event>
        <Event>
            <Absolute>3960</Absolute>
            <NoteOn Channel="1" Note="43" Velocity="0"/>
        </Event>
        <Event>
            <Absolute>3960</Absolute>
            <NoteOn Channel="1" Note="54" Velocity="100"/>
        </Event>
        <Event>
            <Absolute>4080</Absolute>
            <NoteOn Channel="1" Note="54" Velocity="0"/>
        </Event>
        <Event>
            <Absolute>4080</Absolute>
            <NoteOn Channel="1" Note="60" Velocity="100"/>
        </Event>
        <Event>
            <Absolute>4200</Absolute>
            <NoteOn Channel="1" Note="60" Velocity="0"/>
        </Event>
        <Event>
            <Absolute>4200</Absolute>
            <NoteOn Channel="1" Note="59" Velocity="100"/>
        </Event>
        <Event>
            <Absolute>4320</Absolute>
            <NoteOn Channel="1" Note="59" Velocity="0"/>
        </Event>
        <Event>
            <Absolute>4320</Absolute>
            <NoteOn Channel="1" Note="60" Velocity="100"/>
        </Event>
        <Event>
            <Absolute>4440</Absolute>
            <NoteOn Channel="1" Note="60" Velocity="0"/>
        </Event>
        <Event>
            <Absolute>4440</Absolute>
            <NoteOn Channel="1" Note="54" Velocity="100"/>
        </Event>
        <Event>
            <Absolute>4560</Absolute>
            <NoteOn Channel="1" Note="54" Velocity="0"/>
        </Event>
        <Event>
            <Absolute>4560</Absolute>
            <NoteOn Channel="1" Note="60" Velocity="100"/>
        </Event>
        <Event>
            <Absolute>4680</Absolute>
            <NoteOn Channel="1" Note="60" Velocity="0"/>
        </Event>
        <Event>
            <Absolute>4680</Absolute>
            <NoteOn Channel="1" Note="54" Velocity="100"/>
        </Event>
        <Event>
            <Absolute>4800</Absolute>
            <NoteOn Channel="1" Note="54" Velocity="0"/>
        </Event>
        <Event>
            <Absolute>4800</Absolute>
            <NoteOn Channel="1" Note="43" Velocity="100"/>
        </Event>
        <Event>
            <Absolute>4920</Absolute>
            <NoteOn Channel="1" Note="43" Velocity="0"/>
        </Event>
        <Event>
            <Absolute>4920</Absolute>
            <NoteOn Channel="1" Note="54" Velocity="100"/>
        </Event>
        <Event>
            <Absolute>5040</Absolute>
            <NoteOn Channel="1" Note="54" Velocity="0"/>
        </Event>
        <Event>
            <Absolute>5040</Absolute>
            <NoteOn Channel="1" Note="60" Velocity="100"/>
        </Event>
        <Event>
            <Absolute>5160</Absolute>
            <NoteOn Channel="1" Note="60" Velocity="0"/>
        </Event>
        <Event>
            <Absolute>5160</Absolute>
            <NoteOn Channel="1" Note="59" Velocity="100"/>
        </Event>
        <Event>
            <Absolute>5280</Absolute>
            <NoteOn Channel="1" Note="59" Velocity="0"/>
        </Event>
        <Event>
            <Absolute>5280</Absolute>
            <NoteOn Channel="1" Note="60" Velocity="100"/>
        </Event>
        <Event>
            <Absolute>5400</Absolute>
            <NoteOn Channel="1" Note="60" Velocity="0"/>
        </Event>
        <Event>
            <Absolute>5400</Absolute>
            <NoteOn Channel="1" Note="54" Velocity="100"/>
        </Event>
        <Event>
            <Absolute>5520</Absolute>
            <NoteOn Channel="1" Note="54" Velocity="0"/>
        </Event>
        <Event>
            <Absolute>5520</Absolute>
            <NoteOn Channel="1" Note="60" Velocity="100"/>
        </Event>
        <Event>
            <Absolute>5640</Absolute>
            <NoteOn Channel="1" Note="60" Velocity="0"/>
        </Event>
        <Event>
            <Absolute>5640</Absolute>
            <NoteOn Channel="1" Note="54" Velocity="100"/>
        </Event>
        <Event>
            <Absolute>5760</Absolute>
            <NoteOn Channel="1" Note="54" Velocity="0"/>
        </Event>
        <Event>
            <Absolute>5760</Absolute>
            <NoteOn Channel="1" Note="43" Velocity="100"/>
        </Event>
        <Event>
            <Absolute>5880</Absolute>
            <NoteOn Channel="1" Note="43" Velocity="0"/>
        </Event>
        <Event>
            <Absolute>5880</Absolute>
            <NoteOn Channel="1" Note="55" Velocity="100"/>
        </Event>
        <Event>
            <Absolute>6000</Absolute>
            <NoteOn Channel="1" Note="55" Velocity="0"/>
        </Event>
        <Event>
            <Absolute>6000</Absolute>
            <NoteOn Channel="1" Note="59" Velocity="100"/>
        </Event>
        <Event>
            <Absolute>6120</Absolute>
            <NoteOn Channel="1" Note="59" Velocity="0"/>
        </Event>
        <Event>
            <Absolute>6120</Absolute>
            <NoteOn Channel="1" Note="57" Velocity="100"/>
        </Event>
        <Event>
            <Absolute>6240</Absolute>
            <NoteOn Channel="1" Note="57" Velocity="0"/>
        </Event>
        <Event>
            <Absolute>6240</Absolute>
            <NoteOn Channel="1" Note="59" Velocity="100"/>
        </Event>
        <Event>
            <Absolute>6360</Absolute>
            <NoteOn Channel="1" Note="59" Velocity="0"/>
        </Event>
        <Event>
            <Absolute>6360</Absolute>
            <NoteOn Channel="1" Note="55" Velocity="100"/>
        </Event>
        <Event>
            <Absolute>6480</Absolute>
            <NoteOn Channel="1" Note="55" Velocity="0"/>
        </Event>
        <Event>
            <Absolute>6480</Absolute>
            <NoteOn Channel="1" Note="59" Velocity="100"/>
        </Event>
        <Event>
            <Absolute>6600</Absolute>
            <NoteOn Channel="1" Note="59" Velocity="0"/>
        </Event>
        <Event>
            <Absolute>6600</Absolute>
            <NoteOn Channel="1" Note="55" Velocity="100"/>
        </Event>
        <Event>
            <Absolute>6720</Absolute>
            <NoteOn Channel="1" Note="55" Velocity="0"/>
        </Event>
        <Event>
            <Absolute>6720</Absolute>
            <NoteOn Channel="1" Note="43" Velocity="100"/>
        </Event>
        <Event>
            <Absolute>6840</Absolute>
            <NoteOn Channel="1" Note="43" Velocity="0"/>
        </Event>
        <Event>
            <Absolute>6840</Absolute>
            <NoteOn Channel="1" Note="55" Velocity="100"/>
        </Event>
        <Event>
            <Absolute>6960</Absolute>
            <NoteOn Channel="1" Note="55" Velocity="0"/>
        </Event>
        <Event>
            <Absolute>6960</Absolute>
            <NoteOn Channel="1" Note="59" Velocity="100"/>
        </Event>
        <Event>
            <Absolute>7080</Absolute>
            <NoteOn Channel="1" Note="59" Velocity="0"/>
        </Event>
        <Event>
            <Absolute>7080</Absolute>
            <NoteOn Channel="1" Note="57" Velocity="100"/>
        </Event>
        <Event>
            <Absolute>7200</Absolute>
            <NoteOn Channel="1" Note="57" Velocity="0"/>
        </Event>
        <Event>
            <Absolute>7200</Absolute>
            <NoteOn Channel="1" Note="59" Velocity="100"/>
        </Event>
        <Event>
            <Absolute>7320</Absolute>
            <NoteOn Channel="1" Note="59" Velocity="0"/>
        </Event>
        <Event>
            <Absolute>7320</Absolute>
            <NoteOn Channel="1" Note="55" Velocity="100"/>
        </Event>
        <Event>
            <Absolute>7440</Absolute>
            <NoteOn Channel="1" Note="55" Velocity="0"/>
        </Event>
        <Event>
            <Absolute>7440</Absolute>
            <NoteOn Channel="1" Note="59" Velocity="100"/>
        </Event>
        <Event>
            <Absolute>7560</Absolute>
            <NoteOn Channel="1" Note="59" Velocity="0"/>
        </Event>
        <Event>
            <Absolute>7560</Absolute>
            <NoteOn Channel="1" Note="54" Velocity="100"/>
        </Event>
        <Event>
            <Absolute>7680</Absolute>
            <NoteOn Channel="1" Note="54" Velocity="0"/>
        </Event>
        <Event>
            <Absolute>7680</Absolute>
            <NoteOn Channel="1" Note="43" Velocity="100"/>
        </Event>
        <Event>
            <Absolute>7800</Absolute>
            <NoteOn Channel="1" Note="43" Velocity="0"/>
        </Event>
        <Event>
            <Absolute>7800</Absolute>
            <NoteOn Channel="1" Note="52" Velocity="100"/>
        </Event>
        <Event>
            <Absolute>7920</Absolute>
            <NoteOn Channel="1" Note="52" Velocity="0"/>
        </Event>
        <Event>
            <Absolute>7920</Absolute>
            <NoteOn Channel="1" Note="59" Velocity="100"/>
        </Event>
        <Event>
            <Absolute>8040</Absolute>
            <NoteOn Channel="1" Note="59" Velocity="0"/>
        </Event>
        <Event>
            <Absolute>8040</Absolute>
            <NoteOn Channel="1" Note="57" Velocity="100"/>
        </Event>
        <Event>
            <Absolute>8160</Absolute>
            <NoteOn Channel="1" Note="57" Velocity="0"/>
        </Event>
        <Event>
            <Absolute>8160</Absolute>
            <NoteOn Channel="1" Note="59" Velocity="100"/>
        </Event>
        <Event>
            <Absolute>8280</Absolute>
            <NoteOn Channel="1" Note="59" Velocity="0"/>
        </Event>
        <Event>
            <Absolute>8280</Absolute>
            <NoteOn Channel="1" Note="55" Velocity="100"/>
        </Event>
        <Event>
            <Absolute>8400</Absolute>
            <NoteOn Channel="1" Note="55" Velocity="0"/>
        </Event>
        <Event>
            <Absolute>8400</Absolute>
            <NoteOn Channel="1" Note="54" Velocity="100"/>
        </Event>
        <Event>
            <Absolute>8520</Absolute>
            <NoteOn Channel="1" Note="54" Velocity="0"/>
        </Event>
        <Event>
            <Absolute>8520</Absolute>
            <NoteOn Channel="1" Note="55" Velocity="100"/>
        </Event>
        <Event>
            <Absolute>8640</Absolute>
            <NoteOn Channel="1" Note="55" Velocity="0"/>
        </Event>
        <Event>
            <Absolute>8640</Absolute>
            <NoteOn Channel="1" Note="52" Velocity="100"/>
        </Event>
        <Event>
            <Absolute>8760</Absolute>
            <NoteOn Channel="1" Note="52" Velocity="0"/>
        </Event>
        <Event>
            <Absolute>8760</Absolute>
            <NoteOn Channel="1" Note="55" Velocity="100"/>
        </Event>
        <Event>
            <Absolute>8880</Absolute>
            <NoteOn Channel="1" Note="55" Velocity="0"/>
        </Event>
        <Event>
            <Absolute>8880</Absolute>
            <NoteOn Channel="1" Note="54" Velocity="100"/>
        </Event>
        <Event>
            <Absolute>9000</Absolute>
            <NoteOn Channel="1" Note="54" Velocity="0"/>
        </Event>
        <Event>
            <Absolute>9000</Absolute>
            <NoteOn Channel="1" Note="55" Velocity="100"/>
        </Event>
        <Event>
            <Absolute>9120</Absolute>
            <NoteOn Channel="1" Note="55" Velocity="0"/>
        </Event>
        <Event>
            <Absolute>9120</Absolute>
            <NoteOn Channel="1" Note="47" Velocity="100"/>
        </Event>
        <Event>
            <Absolute>9240</Absolute>
            <NoteOn Channel="1" Note="47" Velocity="0"/>
        </Event>
        <Event>
            <Absolute>9240</Absolute>
            <NoteOn Channel="1" Note="50" Velocity="100"/>
        </Event>
        <Event>
            <Absolute>9360</Absolute>
            <NoteOn Channel="1" Note="50" Velocity="0"/>
        </Event>
        <Event>
            <Absolute>9360</Absolute>
            <NoteOn Channel="1" Note="49" Velocity="100"/>
        </Event>
        <Event>
            <Absolute>9480</Absolute>
            <NoteOn Channel="1" Note="49" Velocity="0"/>
        </Event>
        <Event>
            <Absolute>9480</Absolute>
            <NoteOn Channel="1" Note="47" Velocity="100"/>
        </Event>
        <Event>
            <Absolute>9600</Absolute>
            <NoteOn Channel="1" Note="47" Velocity="0"/>
        </Event>
        <Event>
            <Absolute>9600</Absolute>
            <NoteOn Channel="1" Note="49" Velocity="100"/>
        </Event>
        <Event>
            <Absolute>9720</Absolute>
            <NoteOn Channel="1" Note="49" Velocity="0"/>
        </Event>
        <Event>
            <Absolute>9720</Absolute>
            <NoteOn Channel="1" Note="55" Velocity="100"/>
        </Event>
        <Event>
            <Absolute>9840</Absolute>
            <NoteOn Channel="1" Note="55" Velocity="0"/>
        </Event>
        <Event>
            <Absolute>9840</Absolute>
            <NoteOn Channel="1" Note="57" Velocity="100"/>
        </Event>
        <Event>
            <Absolute>9960</Absolute>
            <NoteOn Channel="1" Note="57" Velocity="0"/>
        </Event>
        <Event>
            <Absolute>9960</Absolute>
            <NoteOn Channel="1" Note="55" Velocity="100"/>
        </Event>
        <Event>
            <Absolute>10080</Absolute>
            <NoteOn Channel="1" Note="55" Velocity="0"/>
        </Event>
        <Event>
            <Absolute>10080</Absolute>
            <NoteOn Channel="1" Note="57" Velocity="100"/>
        </Event>
        <Event>
            <Absolute>10200</Absolute>
            <NoteOn Channel="1" Note="57" Velocity="0"/>
        </Event>
        <Event>
            <Absolute>10200</Absolute>
            <NoteOn Channel="1" Note="55" Velocity="100"/>
        </Event>
        <Event>
            <Absolute>10320</Absolute>
            <NoteOn Channel="1" Note="55" Velocity="0"/>
        </Event>
        <Event>
            <Absolute>10320</Absolute>
            <NoteOn Channel="1" Note="57" Velocity="100"/>
        </Event>
        <Event>
            <Absolute>10440</Absolute>
            <NoteOn Channel="1" Note="57" Velocity="0"/>
        </Event>
        <Event>
            <Absolute>10440</Absolute>
            <NoteOn Channel="1" Note="55" Velocity="100"/>
        </Event>
        <Event>
            <Absolute>10560</Absolute>
            <NoteOn Channel="1" Note="55" Velocity="0"/>
        </Event>
        <Event>
            <Absolute>10560</Absolute>
            <NoteOn Channel="1" Note="49" Velocity="100"/>
        </Event>
        <Event>
            <Absolute>10680</Absolute>
            <NoteOn Channel="1" Note="49" Velocity="0"/>
        </Event>
        <Event>
            <Absolute>10680</Absolute>
            <NoteOn Channel="1" Note="55" Velocity="100"/>
        </Event>
        <Event>
            <Absolute>10800</Absolute>
            <NoteOn Channel="1" Note="55" Velocity="0"/>
        </Event>
        <Event>
            <Absolute>10800</Absolute>
            <NoteOn Channel="1" Note="57" Velocity="100"/>
        </Event>
        <Event>
            <Absolute>10920</Absolute>
            <NoteOn Channel="1" Note="57" Velocity="0"/>
        </Event>
        <Event>
            <Absolute>10920</Absolute>
            <NoteOn Channel="1" Note="55" Velocity="100"/>
        </Event>
        <Event>
            <Absolute>11040</Absolute>
            <NoteOn Channel="1" Note="55" Velocity="0"/>
        </Event>
        <Event>
            <Absolute>11040</Absolute>
            <NoteOn Channel="1" Note="57" Velocity="100"/>
        </Event>
        <Event>
            <Absolute>11160</Absolute>
            <NoteOn Channel="1" Note="57" Velocity="0"/>
        </Event>
        <Event>
            <Absolute>11160</Absolute>
            <NoteOn Channel="1" Note="55" Velocity="100"/>
        </Event>
        <Event>
            <Absolute>11280</Absolute>
            <NoteOn Channel="1" Note="55" Velocity="0"/>
        </Event>
        <Event>
            <Absolute>11280</Absolute>
            <NoteOn Channel="1" Note="57" Velocity="100"/>
        </Event>
        <Event>
            <Absolute>11400</Absolute>
            <NoteOn Channel="1" Note="57" Velocity="0"/>
        </Event>
        <Event>
            <Absolute>11400</Absolute>
            <NoteOn Channel="1" Note="55" Velocity="100"/>
        </Event>
        <Event>
            <Absolute>11520</Absolute>
            <NoteOn Channel="1" Note="55" Velocity="0"/>
        </Event>
        <Event>
            <Absolute>11520</Absolute>
            <NoteOn Channel="1" Note="54" Velocity="100"/>
        </Event>
        <Event>
            <Absolute>11640</Absolute>
            <NoteOn Channel="1" Note="54" Velocity="0"/>
        </Event>
        <Event>
            <Absolute>11640</Absolute>
            <NoteOn Channel="1" Note="57" Velocity="100"/>
        </Event>
        <Event>
            <Absolute>11760</Absolute>
            <NoteOn Channel="1" Note="57" Velocity="0"/>
        </Event>
        <Event>
            <Absolute>11760</Absolute>
            <NoteOn Channel="1" Note="62" Velocity="100"/>
        </Event>
        <Event>
            <Absolute>11880</Absolute>
            <NoteOn Channel="1" Note="62" Velocity="0"/>
        </Event>
        <Event>
            <Absolute>11880</Absolute>
            <NoteOn Channel="1" Note="61" Velocity="100"/>
        </Event>
        <Event>
            <Absolute>12000</Absolute>
            <NoteOn Channel="1" Note="61" Velocity="0"/>
        </Event>
        <Event>
            <Absolute>12000</Absolute>
            <NoteOn Channel="1" Note="62" Velocity="100"/>
        </Event>
        <Event>
            <Absolute>12120</Absolute>
            <NoteOn Channel="1" Note="62" Velocity="0"/>
        </Event>
        <Event>
            <Absolute>12120</Absolute>
            <NoteOn Channel="1" Note="57" Velocity="100"/>
        </Event>
        <Event>
            <Absolute>12240</Absolute>
            <NoteOn Channel="1" Note="57" Velocity="0"/>
        </Event>
        <Event>
            <Absolute>12240</Absolute>
            <NoteOn Channel="1" Note="55" Velocity="100"/>
        </Event>
        <Event>
            <Absolute>12360</Absolute>
            <NoteOn Channel="1" Note="55" Velocity="0"/>
        </Event>
        <Event>
            <Absolute>12360</Absolute>
            <NoteOn Channel="1" Note="57" Velocity="100"/>
        </Event>
        <Event>
            <Absolute>12480</Absolute>
            <NoteOn Channel="1" Note="57" Velocity="0"/>
        </Event>
        <Event>
            <Absolute>12480</Absolute>
            <NoteOn Channel="1" Note="54" Velocity="100"/>
        </Event>
        <Event>
            <Absolute>12600</Absolute>
            <NoteOn Channel="1" Note="54" Velocity="0"/>
        </Event>
        <Event>
            <Absolute>12600</Absolute>
            <NoteOn Channel="1" Note="57" Velocity="100"/>
        </Event>
        <Event>
            <Absolute>12720</Absolute>
            <NoteOn Channel="1" Note="57" Velocity="0"/>
        </Event>
        <Event>
            <Absolute>12720</Absolute>
            <NoteOn Channel="1" Note="55" Velocity="100"/>
        </Event>
        <Event>
            <Absolute>12840</Absolute>
            <NoteOn Channel="1" Note="55" Velocity="0"/>
        </Event>
        <Event>
            <Absolute>12840</Absolute>
            <NoteOn Channel="1" Note="57" Velocity="100"/>
        </Event>
        <Event>
            <Absolute>12960</Absolute>
            <NoteOn Channel="1" Note="57" Velocity="0"/>
        </Event>
        <Event>
            <Absolute>12960</Absolute>
            <NoteOn Channel="1" Note="50" Velocity="100"/>
        </Event>
        <Event>
            <Absolute>13080</Absolute>
            <NoteOn Channel="1" Note="50" Velocity="0"/>
        </Event>
        <Event>
            <Absolute>13080</Absolute>
            <NoteOn Channel="1" Note="54" Velocity="100"/>
        </Event>
        <Event>
            <Absolute>13200</Absolute>
            <NoteOn Channel="1" Note="54" Velocity="0"/>
        </Event>
        <Event>
            <Absolute>13200</Absolute>
            <NoteOn Channel="1" Note="52" Velocity="100"/>
        </Event>
        <Event>
            <Absolute>13320</Absolute>
            <NoteOn Channel="1" Note="52" Velocity="0"/>
        </Event>
        <Event>
            <Absolute>13320</Absolute>
            <NoteOn Channel="1" Note="50" Velocity="100"/>
        </Event>
        <Event>
            <Absolute>13440</Absolute>
            <NoteOn Channel="1" Note="50" Velocity="0"/>
        </Event>
        <Event>
            <Absolute>13440</Absolute>
            <NoteOn Channel="1" Note="40" Velocity="100"/>
        </Event>
        <Event>
            <Absolute>13560</Absolute>
            <NoteOn Channel="1" Note="40" Velocity="0"/>
        </Event>
        <Event>
            <Absolute>13560</Absolute>
            <NoteOn Channel="1" Note="47" Velocity="100"/>
        </Event>
        <Event>
            <Absolute>13680</Absolute>
            <NoteOn Channel="1" Note="47" Velocity="0"/>
        </Event>
        <Event>
            <Absolute>13680</Absolute>
            <NoteOn Channel="1" Note="55" Velocity="100"/>
        </Event>
        <Event>
            <Absolute>13800</Absolute>
            <NoteOn Channel="1" Note="55" Velocity="0"/>
        </Event>
        <Event>
            <Absolute>13800</Absolute>
            <NoteOn Channel="1" Note="54" Velocity="100"/>
        </Event>
        <Event>
            <Absolute>13920</Absolute>
            <NoteOn Channel="1" Note="54" Velocity="0"/>
        </Event>
        <Event>
            <Absolute>13920</Absolute>
            <NoteOn Channel="1" Note="55" Velocity="100"/>
        </Event>
        <Event>
            <Absolute>14040</Absolute>
            <NoteOn Channel="1" Note="55" Velocity="0"/>
        </Event>
        <Event>
            <Absolute>14040</Absolute>
            <NoteOn Channel="1" Note="47" Velocity="100"/>
        </Event>
        <Event>
            <Absolute>14160</Absolute>
            <NoteOn Channel="1" Note="47" Velocity="0"/>
        </Event>
        <Event>
            <Absolute>14160</Absolute>
            <NoteOn Channel="1" Note="55" Velocity="100"/>
        </Event>
        <Event>
            <Absolute>14280</Absolute>
            <NoteOn Channel="1" Note="55" Velocity="0"/>
        </Event>
        <Event>
            <Absolute>14280</Absolute>
            <NoteOn Channel="1" Note="47" Velocity="100"/>
        </Event>
        <Event>
            <Absolute>14400</Absolute>
            <NoteOn Channel="1" Note="47" Velocity="0"/>
        </Event>
        <Event>
            <Absolute>14400</Absolute>
            <NoteOn Channel="1" Note="40" Velocity="100"/>
        </Event>
        <Event>
            <Absolute>14520</Absolute>
            <NoteOn Channel="1" Note="40" Velocity="0"/>
        </Event>
        <Event>
            <Absolute>14520</Absolute>
            <NoteOn Channel="1" Note="47" Velocity="100"/>
        </Event>
        <Event>
            <Absolute>14640</Absolute>
            <NoteOn Channel="1" Note="47" Velocity="0"/>
        </Event>
        <Event>
            <Absolute>14640</Absolute>
            <NoteOn Channel="1" Note="55" Velocity="100"/>
        </Event>
        <Event>
            <Absolute>14760</Absolute>
            <NoteOn Channel="1" Note="55" Velocity="0"/>
        </Event>
        <Event>
            <Absolute>14760</Absolute>
            <NoteOn Channel="1" Note="54" Velocity="100"/>
        </Event>
        <Event>
            <Absolute>14880</Absolute>
            <NoteOn Channel="1" Note="54" Velocity="0"/>
        </Event>
        <Event>
            <Absolute>14880</Absolute>
            <NoteOn Channel="1" Note="55" Velocity="100"/>
        </Event>
        <Event>
            <Absolute>15000</Absolute>
            <NoteOn Channel="1" Note="55" Velocity="0"/>
        </Event>
        <Event>
            <Absolute>15000</Absolute>
            <NoteOn Channel="1" Note="47" Velocity="100"/>
        </Event>
        <Event>
            <Absolute>15120</Absolute>
            <NoteOn Channel="1" Note="47" Velocity="0"/>
        </Event>
        <Event>
            <Absolute>15120</Absolute>
            <NoteOn Channel="1" Note="55" Velocity="100"/>
        </Event>
        <Event>
            <Absolute>15240</Absolute>
            <NoteOn Channel="1" Note="55" Velocity="0"/>
        </Event>
        <Event>
            <Absolute>15240</Absolute>
            <NoteOn Channel="1" Note="47" Velocity="100"/>
        </Event>
        <Event>
            <Absolute>15360</Absolute>
            <NoteOn Channel="1" Note="47" Velocity="0"/>
        </Event>
        <Event>
            <Absolute>15360</Absolute>
            <NoteOn Channel="1" Note="40" Velocity="100"/>
        </Event>
        <Event>
            <Absolute>15480</Absolute>
            <NoteOn Channel="1" Note="40" Velocity="0"/>
        </Event>
        <Event>
            <Absolute>15480</Absolute>
            <NoteOn Channel="1" Note="49" Velocity="100"/>
        </Event>
        <Event>
            <Absolute>15600</Absolute>
            <NoteOn Channel="1" Note="49" Velocity="0"/>
        </Event>
        <Event>
            <Absolute>15600</Absolute>
            <NoteOn Channel="1" Note="50" Velocity="100"/>
        </Event>
        <Event>
            <Absolute>15720</Absolute>
            <NoteOn Channel="1" Note="50" Velocity="0"/>
        </Event>
        <Event>
            <Absolute>15720</Absolute>
            <NoteOn Channel="1" Note="52" Velocity="100"/>
        </Event>
        <Event>
            <Absolute>15840</Absolute>
            <NoteOn Channel="1" Note="52" Velocity="0"/>
        </Event>
        <Event>
            <Absolute>15840</Absolute>
            <NoteOn Channel="1" Note="50" Velocity="100"/>
        </Event>
        <Event>
            <Absolute>15960</Absolute>
            <NoteOn Channel="1" Note="50" Velocity="0"/>
        </Event>
        <Event>
            <Absolute>15960</Absolute>
            <NoteOn Channel="1" Note="49" Velocity="100"/>
        </Event>
        <Event>
            <Absolute>16080</Absolute>
            <NoteOn Channel="1" Note="49" Velocity="0"/>
        </Event>
        <Event>
            <Absolute>16080</Absolute>
            <NoteOn Channel="1" Note="47" Velocity="100"/>
        </Event>
        <Event>
            <Absolute>16200</Absolute>
            <NoteOn Channel="1" Note="47" Velocity="0"/>
        </Event>
        <Event>
            <Absolute>16200</Absolute>
            <NoteOn Channel="1" Note="45" Velocity="100"/>
        </Event>
        <Event>
            <Absolute>16320</Absolute>
            <NoteOn Channel="1" Note="45" Velocity="0"/>
        </Event>
        <Event>
            <Absolute>16320</Absolute>
            <NoteOn Channel="1" Note="55" Velocity="100"/>
        </Event>
        <Event>
            <Absolute>16440</Absolute>
            <NoteOn Channel="1" Note="55" Velocity="0"/>
        </Event>
        <Event>
            <Absolute>16440</Absolute>
            <NoteOn Channel="1" Note="54" Velocity="100"/>
        </Event>
        <Event>
            <Absolute>16560</Absolute>
            <NoteOn Channel="1" Note="54" Velocity="0"/>
        </Event>
        <Event>
            <Absolute>16560</Absolute>
            <NoteOn Channel="1" Note="52" Velocity="100"/>
        </Event>
        <Event>
            <Absolute>16680</Absolute>
            <NoteOn Channel="1" Note="52" Velocity="0"/>
        </Event>
        <Event>
            <Absolute>16680</Absolute>
            <NoteOn Channel="1" Note="62" Velocity="100"/>
        </Event>
        <Event>
            <Absolute>16800</Absolute>
            <NoteOn Channel="1" Note="62" Velocity="0"/>
        </Event>
        <Event>
            <Absolute>16800</Absolute>
            <NoteOn Channel="1" Note="61" Velocity="100"/>
        </Event>
        <Event>
            <Absolute>16920</Absolute>
            <NoteOn Channel="1" Note="61" Velocity="0"/>
        </Event>
        <Event>
            <Absolute>16920</Absolute>
            <NoteOn Channel="1" Note="59" Velocity="100"/>
        </Event>
        <Event>
            <Absolute>17040</Absolute>
            <NoteOn Channel="1" Note="59" Velocity="0"/>
        </Event>
        <Event>
            <Absolute>17040</Absolute>
            <NoteOn Channel="1" Note="57" Velocity="100"/>
        </Event>
        <Event>
            <Absolute>17160</Absolute>
            <NoteOn Channel="1" Note="57" Velocity="0"/>
        </Event>
        <Event>
            <Absolute>17160</Absolute>
            <NoteOn Channel="1" Note="55" Velocity="100"/>
        </Event>
        <Event>
            <Absolute>17280</Absolute>
            <NoteOn Channel="1" Note="55" Velocity="0"/>
        </Event>
        <Event>
            <Absolute>17280</Absolute>
            <NoteOn Channel="1" Note="54" Velocity="100"/>
        </Event>
        <Event>
            <Absolute>17400</Absolute>
            <NoteOn Channel="1" Note="54" Velocity="0"/>
        </Event>
        <Event>
            <Absolute>17400</Absolute>
            <NoteOn Channel="1" Note="52" Velocity="100"/>
        </Event>
        <Event>
            <Absolute>17520</Absolute>
            <NoteOn Channel="1" Note="52" Velocity="0"/>
        </Event>
        <Event>
            <Absolute>17520</Absolute>
            <NoteOn Channel="1" Note="50" Velocity="100"/>
        </Event>
        <Event>
            <Absolute>17640</Absolute>
            <NoteOn Channel="1" Note="50" Velocity="0"/>
        </Event>
        <Event>
            <Absolute>17640</Absolute>
            <NoteOn Channel="1" Note="62" Velocity="100"/>
        </Event>
        <Event>
            <Absolute>17760</Absolute>
            <NoteOn Channel="1" Note="62" Velocity="0"/>
        </Event>
        <Event>
            <Absolute>17760</Absolute>
            <NoteOn Channel="1" Note="57" Velocity="100"/>
        </Event>
        <Event>
            <Absolute>17880</Absolute>
            <NoteOn Channel="1" Note="57" Velocity="0"/>
        </Event>
        <Event>
            <Absolute>17880</Absolute>
            <NoteOn Channel="1" Note="62" Velocity="100"/>
        </Event>
        <Event>
            <Absolute>18000</Absolute>
            <NoteOn Channel="1" Note="62" Velocity="0"/>
        </Event>
        <Event>
            <Absolute>18000</Absolute>
            <NoteOn Channel="1" Note="54" Velocity="100"/>
        </Event>
        <Event>
            <Absolute>18120</Absolute>
            <NoteOn Channel="1" Note="54" Velocity="0"/>
        </Event>
        <Event>
            <Absolute>18120</Absolute>
            <NoteOn Channel="1" Note="57" Velocity="100"/>
        </Event>
        <Event>
            <Absolute>18240</Absolute>
            <NoteOn Channel="1" Note="57" Velocity="0"/>
        </Event>
        <Event>
            <Absolute>18240</Absolute>
            <NoteOn Channel="1" Note="50" Velocity="100"/>
        </Event>
        <Event>
            <Absolute>18360</Absolute>
            <NoteOn Channel="1" Note="50" Velocity="0"/>
        </Event>
        <Event>
            <Absolute>18360</Absolute>
            <NoteOn Channel="1" Note="52" Velocity="100"/>
        </Event>
        <Event>
            <Absolute>18480</Absolute>
            <NoteOn Channel="1" Note="52" Velocity="0"/>
        </Event>
        <Event>
            <Absolute>18480</Absolute>
            <NoteOn Channel="1" Note="54" Velocity="100"/>
        </Event>
        <Event>
            <Absolute>18600</Absolute>
            <NoteOn Channel="1" Note="54" Velocity="0"/>
        </Event>
        <Event>
            <Absolute>18600</Absolute>
            <NoteOn Channel="1" Note="57" Velocity="100"/>
        </Event>
        <Event>
            <Absolute>18720</Absolute>
            <NoteOn Channel="1" Note="57" Velocity="0"/>
        </Event>
        <Event>
            <Absolute>18720</Absolute>
            <NoteOn Channel="1" Note="55" Velocity="100"/>
        </Event>
        <Event>
            <Absolute>18840</Absolute>
            <NoteOn Channel="1" Note="55" Velocity="0"/>
        </Event>
        <Event>
            <Absolute>18840</Absolute>
            <NoteOn Channel="1" Note="54" Velocity="100"/>
        </Event>
        <Event>
            <Absolute>18960</Absolute>
            <NoteOn Channel="1" Note="54" Velocity="0"/>
        </Event>
        <Event>
            <Absolute>18960</Absolute>
            <NoteOn Channel="1" Note="52" Velocity="100"/>
        </Event>
        <Event>
            <Absolute>19080</Absolute>
            <NoteOn Channel="1" Note="52" Velocity="0"/>
        </Event>
        <Event>
            <Absolute>19080</Absolute>
            <NoteOn Channel="1" Note="50" Velocity="100"/>
        </Event>
        <Event>
            <Absolute>19200</Absolute>
            <NoteOn Channel="1" Note="50" Velocity="0"/>
        </Event>
        <Event>
            <Absolute>19200</Absolute>
            <NoteOn Channel="1" Note="56" Velocity="100"/>
        </Event>
        <Event>
            <Absolute>19320</Absolute>
            <NoteOn Channel="1" Note="56" Velocity="0"/>
        </Event>
        <Event>
            <Absolute>19320</Absolute>
            <NoteOn Channel="1" Note="50" Velocity="100"/>
        </Event>
        <Event>
            <Absolute>19440</Absolute>
            <NoteOn Channel="1" Note="50" Velocity="0"/>
        </Event>
        <Event>
            <Absolute>19440</Absolute>
            <NoteOn Channel="1" Note="53" Velocity="100"/>
        </Event>
        <Event>
            <Absolute>19560</Absolute>
            <NoteOn Channel="1" Note="53" Velocity="0"/>
        </Event>
        <Event>
            <Absolute>19560</Absolute>
            <NoteOn Channel="1" Note="52" Velocity="100"/>
        </Event>
        <Event>
            <Absolute>19680</Absolute>
            <NoteOn Channel="1" Note="52" Velocity="0"/>
        </Event>
        <Event>
            <Absolute>19680</Absolute>
            <NoteOn Channel="1" Note="53" Velocity="100"/>
        </Event>
        <Event>
            <Absolute>19800</Absolute>
            <NoteOn Channel="1" Note="53" Velocity="0"/>
        </Event>
        <Event>
            <Absolute>19800</Absolute>
            <NoteOn Channel="1" Note="50" Velocity="100"/>
        </Event>
        <Event>
            <Absolute>19920</Absolute>
            <NoteOn Channel="1" Note="50" Velocity="0"/>
        </Event>
        <Event>
            <Absolute>19920</Absolute>
            <NoteOn Channel="1" Note="56" Velocity="100"/>
        </Event>
        <Event>
            <Absolute>20040</Absolute>
            <NoteOn Channel="1" Note="56" Velocity="0"/>
        </Event>
        <Event>
            <Absolute>20040</Absolute>
            <NoteOn Channel="1" Note="50" Velocity="100"/>
        </Event>
        <Event>
            <Absolute>20160</Absolute>
            <NoteOn Channel="1" Note="50" Velocity="0"/>
        </Event>
        <Event>
            <Absolute>20160</Absolute>
            <NoteOn Channel="1" Note="59" Velocity="100"/>
        </Event>
        <Event>
            <Absolute>20280</Absolute>
            <NoteOn Channel="1" Note="59" Velocity="0"/>
        </Event>
        <Event>
            <Absolute>20280</Absolute>
            <NoteOn Channel="1" Note="50" Velocity="100"/>
        </Event>
        <Event>
            <Absolute>20400</Absolute>
            <NoteOn Channel="1" Note="50" Velocity="0"/>
        </Event>
        <Event>
            <Absolute>20400</Absolute>
            <NoteOn Channel="1" Note="53" Velocity="100"/>
        </Event>
        <Event>
            <Absolute>20520</Absolute>
            <NoteOn Channel="1" Note="53" Velocity="0"/>
        </Event>
        <Event>
            <Absolute>20520</Absolute>
            <NoteOn Channel="1" Note="52" Velocity="100"/>
        </Event>
        <Event>
            <Absolute>20640</Absolute>
            <NoteOn Channel="1" Note="52" Velocity="0"/>
        </Event>
        <Event>
            <Absolute>20640</Absolute>
            <NoteOn Channel="1" Note="53" Velocity="100"/>
        </Event>
        <Event>
            <Absolute>20760</Absolute>
            <NoteOn Channel="1" Note="53" Velocity="0"/>
        </Event>
        <Event>
            <Absolute>20760</Absolute>
            <NoteOn Channel="1" Note="50" Velocity="100"/>
        </Event>
        <Event>
            <Absolute>20880</Absolute>
            <NoteOn Channel="1" Note="50" Velocity="0"/>
        </Event>
        <Event>
            <Absolute>20880</Absolute>
            <NoteOn Channel="1" Note="56" Velocity="100"/>
        </Event>
        <Event>
            <Absolute>21000</Absolute>
            <NoteOn Channel="1" Note="56" Velocity="0"/>
        </Event>
        <Event>
            <Absolute>21000</Absolute>
            <NoteOn Channel="1" Note="50" Velocity="100"/>
        </Event>
        <Event>
            <Absolute>21120</Absolute>
            <NoteOn Channel="1" Note="50" Velocity="0"/>
        </Event>
        <Event>
            <Absolute>21120</Absolute>
            <NoteOn Channel="1" Note="48" Velocity="100"/>
        </Event>
        <Event>
            <Absolute>21240</Absolute>
            <NoteOn Channel="1" Note="48" Velocity="0"/>
        </Event>
        <Event>
            <Absolute>21240</Absolute>
            <NoteOn Channel="1" Note="52" Velocity="100"/>
        </Event>
        <Event>
            <Absolute>21360</Absolute>
            <NoteOn Channel="1" Note="52" Velocity="0"/>
        </Event>
        <Event>
            <Absolute>21360</Absolute>
            <NoteOn Channel="1" Note="57" Velocity="100"/>
        </Event>
        <Event>
            <Absolute>21480</Absolute>
            <NoteOn Channel="1" Note="57" Velocity="0"/>
        </Event>
        <Event>
            <Absolute>21480</Absolute>
            <NoteOn Channel="1" Note="59" Velocity="100"/>
        </Event>
        <Event>
            <Absolute>21600</Absolute>
            <NoteOn Channel="1" Note="59" Velocity="0"/>
        </Event>
        <Event>
            <Absolute>21600</Absolute>
            <NoteOn Channel="1" Note="60" Velocity="100"/>
        </Event>
        <Event>
            <Absolute>21720</Absolute>
            <NoteOn Channel="1" Note="60" Velocity="0"/>
        </Event>
        <Event>
            <Absolute>21720</Absolute>
            <NoteOn Channel="1" Note="57" Velocity="100"/>
        </Event>
        <Event>
            <Absolute>21840</Absolute>
            <NoteOn Channel="1" Note="57" Velocity="0"/>
        </Event>
        <Event>
            <Absolute>21840</Absolute>
            <NoteOn Channel="1" Note="52" Velocity="100"/>
        </Event>
        <Event>
            <Absolute>21960</Absolute>
            <NoteOn Channel="1" Note="52" Velocity="0"/>
        </Event>
        <Event>
            <Absolute>21960</Absolute>
            <NoteOn Channel="1" Note="50" Velocity="100"/>
        </Event>
        <Event>
            <Absolute>22080</Absolute>
            <NoteOn Channel="1" Note="50" Velocity="0"/>
        </Event>
        <Event>
            <Absolute>22080</Absolute>
            <NoteOn Channel="1" Note="48" Velocity="100"/>
        </Event>
        <Event>
            <Absolute>22200</Absolute>
            <NoteOn Channel="1" Note="48" Velocity="0"/>
        </Event>
        <Event>
            <Absolute>22200</Absolute>
            <NoteOn Channel="1" Note="52" Velocity="100"/>
        </Event>
        <Event>
            <Absolute>22320</Absolute>
            <NoteOn Channel="1" Note="52" Velocity="0"/>
        </Event>
        <Event>
            <Absolute>22320</Absolute>
            <NoteOn Channel="1" Note="57" Velocity="100"/>
        </Event>
        <Event>
            <Absolute>22440</Absolute>
            <NoteOn Channel="1" Note="57" Velocity="0"/>
        </Event>
        <Event>
            <Absolute>22440</Absolute>
            <NoteOn Channel="1" Note="59" Velocity="100"/>
        </Event>
        <Event>
            <Absolute>22560</Absolute>
            <NoteOn Channel="1" Note="59" Velocity="0"/>
        </Event>
        <Event>
            <Absolute>22560</Absolute>
            <NoteOn Channel="1" Note="60" Velocity="100"/>
        </Event>
        <Event>
            <Absolute>22680</Absolute>
            <NoteOn Channel="1" Note="60" Velocity="0"/>
        </Event>
        <Event>
            <Absolute>22680</Absolute>
            <NoteOn Channel="1" Note="57" Velocity="100"/>
        </Event>
        <Event>
            <Absolute>22800</Absolute>
            <NoteOn Channel="1" Note="57" Velocity="0"/>
        </Event>
        <Event>
            <Absolute>22800</Absolute>
            <NoteOn Channel="1" Note="54" Velocity="100"/>
        </Event>
        <Event>
            <Absolute>22920</Absolute>
            <NoteOn Channel="1" Note="54" Velocity="0"/>
        </Event>
        <Event>
            <Absolute>22920</Absolute>
            <NoteOn Channel="1" Note="52" Velocity="100"/>
        </Event>
        <Event>
            <Absolute>23040</Absolute>
            <NoteOn Channel="1" Note="52" Velocity="0"/>
        </Event>
        <Event>
            <Absolute>23040</Absolute>
            <NoteOn Channel="1" Note="51" Velocity="100"/>
        </Event>
        <Event>
            <Absolute>23160</Absolute>
            <NoteOn Channel="1" Note="51" Velocity="0"/>
        </Event>
        <Event>
            <Absolute>23160</Absolute>
            <NoteOn Channel="1" Note="54" Velocity="100"/>
        </Event>
        <Event>
            <Absolute>23280</Absolute>
            <NoteOn Channel="1" Note="54" Velocity="0"/>
        </Event>
        <Event>
            <Absolute>23280</Absolute>
            <NoteOn Channel="1" Note="51" Velocity="100"/>
        </Event>
        <Event>
            <Absolute>23400</Absolute>
            <NoteOn Channel="1" Note="51" Velocity="0"/>
        </Event>
        <Event>
            <Absolute>23400</Absolute>
            <NoteOn Channel="1" Note="54" Velocity="100"/>
        </Event>
        <Event>
            <Absolute>23520</Absolute>
            <NoteOn Channel="1" Note="54" Velocity="0"/>
        </Event>
        <Event>
            <Absolute>23520</Absolute>
            <NoteOn Channel="1" Note="57" Velocity="100"/>
        </Event>
        <Event>
            <Absolute>23640</Absolute>
            <NoteOn Channel="1" Note="57" Velocity="0"/>
        </Event>
        <Event>
            <Absolute>23640</Absolute>
            <NoteOn Channel="1" Note="54" Velocity="100"/>
        </Event>
        <Event>
            <Absolute>23760</Absolute>
            <NoteOn Channel="1" Note="54" Velocity="0"/>
        </Event>
        <Event>
            <Absolute>23760</Absolute>
            <NoteOn Channel="1" Note="57" Velocity="100"/>
        </Event>
        <Event>
            <Absolute>23880</Absolute>
            <NoteOn Channel="1" Note="57" Velocity="0"/>
        </Event>
        <Event>
            <Absolute>23880</Absolute>
            <NoteOn Channel="1" Note="54" Velocity="100"/>
        </Event>
        <Event>
            <Absolute>24000</Absolute>
            <NoteOn Channel="1" Note="54" Velocity="0"/>
        </Event>
        <Event>
            <Absolute>24000</Absolute>
            <NoteOn Channel="1" Note="51" Velocity="100"/>
        </Event>
        <Event>
            <Absolute>24120</Absolute>
            <NoteOn Channel="1" Note="51" Velocity="0"/>
        </Event>
        <Event>
            <Absolute>24120</Absolute>
            <NoteOn Channel="1" Note="54" Velocity="100"/>
        </Event>
        <Event>
            <Absolute>24240</Absolute>
            <NoteOn Channel="1" Note="54" Velocity="0"/>
        </Event>
        <Event>
            <Absolute>24240</Absolute>
            <NoteOn Channel="1" Note="51" Velocity="100"/>
        </Event>
        <Event>
            <Absolute>24360</Absolute>
            <NoteOn Channel="1" Note="51" Velocity="0"/>
        </Event>
        <Event>
            <Absolute>24360</Absolute>
            <NoteOn Channel="1" Note="54" Velocity="100"/>
        </Event>
        <Event>
            <Absolute>24480</Absolute>
            <NoteOn Channel="1" Note="54" Velocity="0"/>
        </Event>
        <Event>
            <Absolute>24480</Absolute>
            <NoteOn Channel="1" Note="57" Velocity="100"/>
        </Event>
        <Event>
            <Absolute>24600</Absolute>
            <NoteOn Channel="1" Note="57" Velocity="0"/>
        </Event>
        <Event>
            <Absolute>24600</Absolute>
            <NoteOn Channel="1" Note="54" Velocity="100"/>
        </Event>
        <Event>
            <Absolute>24720</Absolute>
            <NoteOn Channel="1" Note="54" Velocity="0"/>
        </Event>
        <Event>
            <Absolute>24720</Absolute>
            <NoteOn Channel="1" Note="57" Velocity="100"/>
        </Event>
        <Event>
            <Absolute>24840</Absolute>
            <NoteOn Channel="1" Note="57" Velocity="0"/>
        </Event>
        <Event>
            <Absolute>24840</Absolute>
            <NoteOn Channel="1" Note="54" Velocity="100"/>
        </Event>
        <Event>
            <Absolute>24960</Absolute>
            <NoteOn Channel="1" Note="54" Velocity="0"/>
        </Event>
        <Event>
            <Absolute>24960</Absolute>
            <NoteOn Channel="1" Note="55" Velocity="100"/>
        </Event>
        <Event>
            <Absolute>25080</Absolute>
            <NoteOn Channel="1" Note="55" Velocity="0"/>
        </Event>
        <Event>
            <Absolute>25080</Absolute>
            <NoteOn Channel="1" Note="54" Velocity="100"/>
        </Event>
        <Event>
            <Absolute>25200</Absolute>
            <NoteOn Channel="1" Note="54" Velocity="0"/>
        </Event>
        <Event>
            <Absolute>25200</Absolute>
            <NoteOn Channel="1" Note="52" Velocity="100"/>
        </Event>
        <Event>
            <Absolute>25320</Absolute>
            <NoteOn Channel="1" Note="52" Velocity="0"/>
        </Event>
        <Event>
            <Absolute>25320</Absolute>
            <NoteOn Channel="1" Note="55" Velocity="100"/>
        </Event>
        <Event>
            <Absolute>25440</Absolute>
            <NoteOn Channel="1" Note="55" Velocity="0"/>
        </Event>
        <Event>
            <Absolute>25440</Absolute>
            <NoteOn Channel="1" Note="54" Velocity="100"/>
        </Event>
        <Event>
            <Absolute>25560</Absolute>
            <NoteOn Channel="1" Note="54" Velocity="0"/>
        </Event>
        <Event>
            <Absolute>25560</Absolute>
            <NoteOn Channel="1" Note="55" Velocity="100"/>
        </Event>
        <Event>
            <Absolute>25680</Absolute>
            <NoteOn Channel="1" Note="55" Velocity="0"/>
        </Event>
        <Event>
            <Absolute>25680</Absolute>
            <NoteOn Channel="1" Note="57" Velocity="100"/>
        </Event>
        <Event>
            <Absolute>25800</Absolute>
            <NoteOn Channel="1" Note="57" Velocity="0"/>
        </Event>
        <Event>
            <Absolute>25800</Absolute>
            <NoteOn Channel="1" Note="54" Velocity="100"/>
        </Event>
        <Event>
            <Absolute>25920</Absolute>
            <NoteOn Channel="1" Note="54" Velocity="0"/>
        </Event>
        <Event>
            <Absolute>25920</Absolute>
            <NoteOn Channel="1" Note="55" Velocity="100"/>
        </Event>
        <Event>
            <Absolute>26040</Absolute>
            <NoteOn Channel="1" Note="55" Velocity="0"/>
        </Event>
        <Event>
            <Absolute>26040</Absolute>
            <NoteOn Channel="1" Note="54" Velocity="100"/>
        </Event>
        <Event>
            <Absolute>26160</Absolute>
            <NoteOn Channel="1" Note="54" Velocity="0"/>
        </Event>
        <Event>
            <Absolute>26160</Absolute>
            <NoteOn Channel="1" Note="52" Velocity="100"/>
        </Event>
        <Event>
            <Absolute>26280</Absolute>
            <NoteOn Channel="1" Note="52" Velocity="0"/>
        </Event>
        <Event>
            <Absolute>26280</Absolute>
            <NoteOn Channel="1" Note="50" Velocity="100"/>
        </Event>
        <Event>
            <Absolute>26400</Absolute>
            <NoteOn Channel="1" Note="50" Velocity="0"/>
        </Event>
        <Event>
            <Absolute>26400</Absolute>
            <NoteOn Channel="1" Note="48" Velocity="100"/>
        </Event>
        <Event>
            <Absolute>26520</Absolute>
            <NoteOn Channel="1" Note="48" Velocity="0"/>
        </Event>
        <Event>
            <Absolute>26520</Absolute>
            <NoteOn Channel="1" Note="47" Velocity="100"/>
        </Event>
        <Event>
            <Absolute>26640</Absolute>
            <NoteOn Channel="1" Note="47" Velocity="0"/>
        </Event>
        <Event>
            <Absolute>26640</Absolute>
            <NoteOn Channel="1" Note="45" Velocity="100"/>
        </Event>
        <Event>
            <Absolute>26760</Absolute>
            <NoteOn Channel="1" Note="45" Velocity="0"/>
        </Event>
        <Event>
            <Absolute>26760</Absolute>
            <NoteOn Channel="1" Note="43" Velocity="100"/>
        </Event>
        <Event>
            <Absolute>26880</Absolute>
            <NoteOn Channel="1" Note="43" Velocity="0"/>
        </Event>
        <Event>
            <Absolute>26880</Absolute>
            <NoteOn Channel="1" Note="42" Velocity="100"/>
        </Event>
        <Event>
            <Absolute>27000</Absolute>
            <NoteOn Channel="1" Note="42" Velocity="0"/>
        </Event>
        <Event>
            <Absolute>27000</Absolute>
            <NoteOn Channel="1" Note="48" Velocity="100"/>
        </Event>
        <Event>
            <Absolute>27120</Absolute>
            <NoteOn Channel="1" Note="48" Velocity="0"/>
        </Event>
        <Event>
            <Absolute>27120</Absolute>
            <NoteOn Channel="1" Note="50" Velocity="100"/>
        </Event>
        <Event>
            <Absolute>27240</Absolute>
            <NoteOn Channel="1" Note="50" Velocity="0"/>
        </Event>
        <Event>
            <Absolute>27240</Absolute>
            <NoteOn Channel="1" Note="48" Velocity="100"/>
        </Event>
        <Event>
            <Absolute>27360</Absolute>
            <NoteOn Channel="1" Note="48" Velocity="0"/>
        </Event>
        <Event>
            <Absolute>27360</Absolute>
            <NoteOn Channel="1" Note="50" Velocity="100"/>
        </Event>
        <Event>
            <Absolute>27480</Absolute>
            <NoteOn Channel="1" Note="50" Velocity="0"/>
        </Event>
        <Event>
            <Absolute>27480</Absolute>
            <NoteOn Channel="1" Note="48" Velocity="100"/>
        </Event>
        <Event>
            <Absolute>27600</Absolute>
            <NoteOn Channel="1" Note="48" Velocity="0"/>
        </Event>
        <Event>
            <Absolute>27600</Absolute>
            <NoteOn Channel="1" Note="50" Velocity="100"/>
        </Event>
        <Event>
            <Absolute>27720</Absolute>
            <NoteOn Channel="1" Note="50" Velocity="0"/>
        </Event>
        <Event>
            <Absolute>27720</Absolute>
            <NoteOn Channel="1" Note="48" Velocity="100"/>
        </Event>
        <Event>
            <Absolute>27840</Absolute>
            <NoteOn Channel="1" Note="48" Velocity="0"/>
        </Event>
        <Event>
            <Absolute>27840</Absolute>
            <NoteOn Channel="1" Note="42" Velocity="100"/>
        </Event>
        <Event>
            <Absolute>27960</Absolute>
            <NoteOn Channel="1" Note="42" Velocity="0"/>
        </Event>
        <Event>
            <Absolute>27960</Absolute>
            <NoteOn Channel="1" Note="48" Velocity="100"/>
        </Event>
        <Event>
            <Absolute>28080</Absolute>
            <NoteOn Channel="1" Note="48" Velocity="0"/>
        </Event>
        <Event>
            <Absolute>28080</Absolute>
            <NoteOn Channel="1" Note="50" Velocity="100"/>
        </Event>
        <Event>
            <Absolute>28200</Absolute>
            <NoteOn Channel="1" Note="50" Velocity="0"/>
        </Event>
        <Event>
            <Absolute>28200</Absolute>
            <NoteOn Channel="1" Note="48" Velocity="100"/>
        </Event>
        <Event>
            <Absolute>28320</Absolute>
            <NoteOn Channel="1" Note="48" Velocity="0"/>
        </Event>
        <Event>
            <Absolute>28320</Absolute>
            <NoteOn Channel="1" Note="50" Velocity="100"/>
        </Event>
        <Event>
            <Absolute>28440</Absolute>
            <NoteOn Channel="1" Note="50" Velocity="0"/>
        </Event>
        <Event>
            <Absolute>28440</Absolute>
            <NoteOn Channel="1" Note="48" Velocity="100"/>
        </Event>
        <Event>
            <Absolute>28560</Absolute>
            <NoteOn Channel="1" Note="48" Velocity="0"/>
        </Event>
        <Event>
            <Absolute>28560</Absolute>
            <NoteOn Channel="1" Note="50" Velocity="100"/>
        </Event>
        <Event>
            <Absolute>28680</Absolute>
            <NoteOn Channel="1" Note="50" Velocity="0"/>
        </Event>
        <Event>
            <Absolute>28680</Absolute>
            <NoteOn Channel="1" Note="48" Velocity="100"/>
        </Event>
        <Event>
            <Absolute>28800</Absolute>
            <NoteOn Channel="1" Note="48" Velocity="0"/>
        </Event>
        <Event>
            <Absolute>28800</Absolute>
            <NoteOn Channel="1" Note="43" Velocity="100"/>
        </Event>
        <Event>
            <Absolute>28920</Absolute>
            <NoteOn Channel="1" Note="43" Velocity="0"/>
        </Event>
        <Event>
            <Absolute>28920</Absolute>
            <NoteOn Channel="1" Note="47" Velocity="100"/>
        </Event>
        <Event>
            <Absolute>29040</Absolute>
            <NoteOn Channel="1" Note="47" Velocity="0"/>
        </Event>
        <Event>
            <Absolute>29040</Absolute>
            <NoteOn Channel="1" Note="53" Velocity="100"/>
        </Event>
        <Event>
            <Absolute>29160</Absolute>
            <NoteOn Channel="1" Note="53" Velocity="0"/>
        </Event>
        <Event>
            <Absolute>29160</Absolute>
            <NoteOn Channel="1" Note="52" Velocity="100"/>
        </Event>
        <Event>
            <Absolute>29280</Absolute>
            <NoteOn Channel="1" Note="52" Velocity="0"/>
        </Event>
        <Event>
            <Absolute>29280</Absolute>
            <NoteOn Channel="1" Note="53" Velocity="100"/>
        </Event>
        <Event>
            <Absolute>29400</Absolute>
            <NoteOn Channel="1" Note="53" Velocity="0"/>
        </Event>
        <Event>
            <Absolute>29400</Absolute>
            <NoteOn Channel="1" Note="47" Velocity="100"/>
        </Event>
        <Event>
            <Absolute>29520</Absolute>
            <NoteOn Channel="1" Note="47" Velocity="0"/>
        </Event>
        <Event>
            <Absolute>29520</Absolute>
            <NoteOn Channel="1" Note="53" Velocity="100"/>
        </Event>
        <Event>
            <Absolute>29640</Absolute>
            <NoteOn Channel="1" Note="53" Velocity="0"/>
        </Event>
        <Event>
            <Absolute>29640</Absolute>
            <NoteOn Channel="1" Note="47" Velocity="100"/>
        </Event>
        <Event>
            <Absolute>29760</Absolute>
            <NoteOn Channel="1" Note="47" Velocity="0"/>
        </Event>
        <Event>
            <Absolute>29760</Absolute>
            <NoteOn Channel="1" Note="43" Velocity="100"/>
        </Event>
        <Event>
            <Absolute>29880</Absolute>
            <NoteOn Channel="1" Note="43" Velocity="0"/>
        </Event>
        <Event>
            <Absolute>29880</Absolute>
            <NoteOn Channel="1" Note="47" Velocity="100"/>
        </Event>
        <Event>
            <Absolute>30000</Absolute>
            <NoteOn Channel="1" Note="47" Velocity="0"/>
        </Event>
        <Event>
            <Absolute>30000</Absolute>
            <NoteOn Channel="1" Note="53" Velocity="100"/>
        </Event>
        <Event>
            <Absolute>30120</Absolute>
            <NoteOn Channel="1" Note="53" Velocity="0"/>
        </Event>
        <Event>
            <Absolute>30120</Absolute>
            <NoteOn Channel="1" Note="52" Velocity="100"/>
        </Event>
        <Event>
            <Absolute>30240</Absolute>
            <NoteOn Channel="1" Note="52" Velocity="0"/>
        </Event>
        <Event>
            <Absolute>30240</Absolute>
            <NoteOn Channel="1" Note="53" Velocity="100"/>
        </Event>
        <Event>
            <Absolute>30360</Absolute>
            <NoteOn Channel="1" Note="53" Velocity="0"/>
        </Event>
        <Event>
            <Absolute>30360</Absolute>
            <NoteOn Channel="1" Note="47" Velocity="100"/>
        </Event>
        <Event>
            <Absolute>30480</Absolute>
            <NoteOn Channel="1" Note="47" Velocity="0"/>
        </Event>
        <Event>
            <Absolute>30480</Absolute>
            <NoteOn Channel="1" Note="53" Velocity="100"/>
        </Event>
        <Event>
            <Absolute>30600</Absolute>
            <NoteOn Channel="1" Note="53" Velocity="0"/>
        </Event>
        <Event>
            <Absolute>30600</Absolute>
            <NoteOn Channel="1" Note="47" Velocity="100"/>
        </Event>
        <Event>
            <Absolute>30720</Absolute>
            <NoteOn Channel="1" Note="47" Velocity="0"/>
        </Event>
        <Event>
            <Absolute>30720</Absolute>
            <NoteOn Channel="1" Note="43" Velocity="100"/>
        </Event>
        <Event>
            <Absolute>30840</Absolute>
            <NoteOn Channel="1" Note="43" Velocity="0"/>
        </Event>
        <Event>
            <Absolute>30840</Absolute>
            <NoteOn Channel="1" Note="48" Velocity="100"/>
        </Event>
        <Event>
            <Absolute>30960</Absolute>
            <NoteOn Channel="1" Note="48" Velocity="0"/>
        </Event>
        <Event>
            <Absolute>30960</Absolute>
            <NoteOn Channel="1" Note="52" Velocity="100"/>
        </Event>
        <Event>
            <Absolute>31080</Absolute>
            <NoteOn Channel="1" Note="52" Velocity="0"/>
        </Event>
        <Event>
            <Absolute>31080</Absolute>
            <NoteOn Channel="1" Note="50" Velocity="100"/>
        </Event>
        <Event>
            <Absolute>31200</Absolute>
            <NoteOn Channel="1" Note="50" Velocity="0"/>
        </Event>
        <Event>
            <Absolute>31200</Absolute>
            <NoteOn Channel="1" Note="52" Velocity="100"/>
        </Event>
        <Event>
            <Absolute>31320</Absolute>
            <NoteOn Channel="1" Note="52" Velocity="0"/>
        </Event>
        <Event>
            <Absolute>31320</Absolute>
            <NoteOn Channel="1" Note="48" Velocity="100"/>
        </Event>
        <Event>
            <Absolute>31440</Absolute>
            <NoteOn Channel="1" Note="48" Velocity="0"/>
        </Event>
        <Event>
            <Absolute>31440</Absolute>
            <NoteOn Channel="1" Note="52" Velocity="100"/>
        </Event>
        <Event>
            <Absolute>31560</Absolute>
            <NoteOn Channel="1" Note="52" Velocity="0"/>
        </Event>
        <Event>
            <Absolute>31560</Absolute>
            <NoteOn Channel="1" Note="48" Velocity="100"/>
        </Event>
        <Event>
            <Absolute>31680</Absolute>
            <NoteOn Channel="1" Note="48" Velocity="0"/>
        </Event>
        <Event>
            <Absolute>31680</Absolute>
            <NoteOn Channel="1" Note="43" Velocity="100"/>
        </Event>
        <Event>
            <Absolute>31800</Absolute>
            <NoteOn Channel="1" Note="43" Velocity="0"/>
        </Event>
        <Event>
            <Absolute>31800</Absolute>
            <NoteOn Channel="1" Note="48" Velocity="100"/>
        </Event>
        <Event>
            <Absolute>31920</Absolute>
            <NoteOn Channel="1" Note="48" Velocity="0"/>
        </Event>
        <Event>
            <Absolute>31920</Absolute>
            <NoteOn Channel="1" Note="52" Velocity="100"/>
        </Event>
        <Event>
            <Absolute>32040</Absolute>
            <NoteOn Channel="1" Note="52" Velocity="0"/>
        </Event>
        <Event>
            <Absolute>32040</Absolute>
            <NoteOn Channel="1" Note="50" Velocity="100"/>
        </Event>
        <Event>
            <Absolute>32160</Absolute>
            <NoteOn Channel="1" Note="50" Velocity="0"/>
        </Event>
        <Event>
            <Absolute>32160</Absolute>
            <NoteOn Channel="1" Note="52" Velocity="100"/>
        </Event>
        <Event>
            <Absolute>32280</Absolute>
            <NoteOn Channel="1" Note="52" Velocity="0"/>
        </Event>
        <Event>
            <Absolute>32280</Absolute>
            <NoteOn Channel="1" Note="48" Velocity="100"/>
        </Event>
        <Event>
            <Absolute>32400</Absolute>
            <NoteOn Channel="1" Note="48" Velocity="0"/>
        </Event>
        <Event>
            <Absolute>32400</Absolute>
            <NoteOn Channel="1" Note="52" Velocity="100"/>
        </Event>
        <Event>
            <Absolute>32520</Absolute>
            <NoteOn Channel="1" Note="52" Velocity="0"/>
        </Event>
        <Event>
            <Absolute>32520</Absolute>
            <NoteOn Channel="1" Note="48" Velocity="100"/>
        </Event>
        <Event>
            <Absolute>32640</Absolute>
            <NoteOn Channel="1" Note="48" Velocity="0"/>
        </Event>
        <Event>
            <Absolute>32640</Absolute>
            <NoteOn Channel="1" Note="43" Velocity="100"/>
        </Event>
        <Event>
            <Absolute>32760</Absolute>
            <NoteOn Channel="1" Note="43" Velocity="0"/>
        </Event>
        <Event>
            <Absolute>32760</Absolute>
            <NoteOn Channel="1" Note="54" Velocity="100"/>
        </Event>
        <Event>
            <Absolute>32880</Absolute>
            <NoteOn Channel="1" Note="54" Velocity="0"/>
        </Event>
        <Event>
            <Absolute>32880</Absolute>
            <NoteOn Channel="1" Note="60" Velocity="100"/>
        </Event>
        <Event>
            <Absolute>33000</Absolute>
            <NoteOn Channel="1" Note="60" Velocity="0"/>
        </Event>
        <Event>
            <Absolute>33000</Absolute>
            <NoteOn Channel="1" Note="59" Velocity="100"/>
        </Event>
        <Event>
            <Absolute>33120</Absolute>
            <NoteOn Channel="1" Note="59" Velocity="0"/>
        </Event>
        <Event>
            <Absolute>33120</Absolute>
            <NoteOn Channel="1" Note="60" Velocity="100"/>
        </Event>
        <Event>
            <Absolute>33240</Absolute>
            <NoteOn Channel="1" Note="60" Velocity="0"/>
        </Event>
        <Event>
            <Absolute>33240</Absolute>
            <NoteOn Channel="1" Note="54" Velocity="100"/>
        </Event>
        <Event>
            <Absolute>33360</Absolute>
            <NoteOn Channel="1" Note="54" Velocity="0"/>
        </Event>
        <Event>
            <Absolute>33360</Absolute>
            <NoteOn Channel="1" Note="60" Velocity="100"/>
        </Event>
        <Event>
            <Absolute>33480</Absolute>
            <NoteOn Channel="1" Note="60" Velocity="0"/>
        </Event>
        <Event>
            <Absolute>33480</Absolute>
            <NoteOn Channel="1" Note="54" Velocity="100"/>
        </Event>
        <Event>
            <Absolute>33600</Absolute>
            <NoteOn Channel="1" Note="54" Velocity="0"/>
        </Event>
        <Event>
            <Absolute>33600</Absolute>
            <NoteOn Channel="1" Note="43" Velocity="100"/>
        </Event>
        <Event>
            <Absolute>33720</Absolute>
            <NoteOn Channel="1" Note="43" Velocity="0"/>
        </Event>
        <Event>
            <Absolute>33720</Absolute>
            <NoteOn Channel="1" Note="54" Velocity="100"/>
        </Event>
        <Event>
            <Absolute>33840</Absolute>
            <NoteOn Channel="1" Note="54" Velocity="0"/>
        </Event>
        <Event>
            <Absolute>33840</Absolute>
            <NoteOn Channel="1" Note="60" Velocity="100"/>
        </Event>
        <Event>
            <Absolute>33960</Absolute>
            <NoteOn Channel="1" Note="60" Velocity="0"/>
        </Event>
        <Event>
            <Absolute>33960</Absolute>
            <NoteOn Channel="1" Note="59" Velocity="100"/>
        </Event>
        <Event>
            <Absolute>34080</Absolute>
            <NoteOn Channel="1" Note="59" Velocity="0"/>
        </Event>
        <Event>
            <Absolute>34080</Absolute>
            <NoteOn Channel="1" Note="60" Velocity="100"/>
        </Event>
        <Event>
            <Absolute>34200</Absolute>
            <NoteOn Channel="1" Note="60" Velocity="0"/>
        </Event>
        <Event>
            <Absolute>34200</Absolute>
            <NoteOn Channel="1" Note="54" Velocity="100"/>
        </Event>
        <Event>
            <Absolute>34320</Absolute>
            <NoteOn Channel="1" Note="54" Velocity="0"/>
        </Event>
        <Event>
            <Absolute>34320</Absolute>
            <NoteOn Channel="1" Note="60" Velocity="100"/>
        </Event>
        <Event>
            <Absolute>34440</Absolute>
            <NoteOn Channel="1" Note="60" Velocity="0"/>
        </Event>
        <Event>
            <Absolute>34440</Absolute>
            <NoteOn Channel="1" Note="54" Velocity="100"/>
        </Event>
        <Event>
            <Absolute>34560</Absolute>
            <NoteOn Channel="1" Note="54" Velocity="0"/>
        </Event>
        <Event>
            <Absolute>34560</Absolute>
            <NoteOn Channel="1" Note="43" Velocity="100"/>
        </Event>
        <Event>
            <Absolute>34680</Absolute>
            <NoteOn Channel="1" Note="43" Velocity="0"/>
        </Event>
        <Event>
            <Absolute>34680</Absolute>
            <NoteOn Channel="1" Note="50" Velocity="100"/>
        </Event>
        <Event>
            <Absolute>34800</Absolute>
            <NoteOn Channel="1" Note="50" Velocity="0"/>
        </Event>
        <Event>
            <Absolute>34800</Absolute>
            <NoteOn Channel="1" Note="59" Velocity="100"/>
        </Event>
        <Event>
            <Absolute>34920</Absolute>
            <NoteOn Channel="1" Note="59" Velocity="0"/>
        </Event>
        <Event>
            <Absolute>34920</Absolute>
            <NoteOn Channel="1" Note="57" Velocity="100"/>
        </Event>
        <Event>
            <Absolute>35040</Absolute>
            <NoteOn Channel="1" Note="57" Velocity="0"/>
        </Event>
        <Event>
            <Absolute>35040</Absolute>
            <NoteOn Channel="1" Note="59" Velocity="100"/>
        </Event>
        <Event>
            <Absolute>35160</Absolute>
            <NoteOn Channel="1" Note="59" Velocity="0"/>
        </Event>
        <Event>
            <Absolute>35160</Absolute>
            <NoteOn Channel="1" Note="55" Velocity="100"/>
        </Event>
        <Event>
            <Absolute>35280</Absolute>
            <NoteOn Channel="1" Note="55" Velocity="0"/>
        </Event>
        <Event>
            <Absolute>35280</Absolute>
            <NoteOn Channel="1" Note="54" Velocity="100"/>
        </Event>
        <Event>
            <Absolute>35400</Absolute>
            <NoteOn Channel="1" Note="54" Velocity="0"/>
        </Event>
        <Event>
            <Absolute>35400</Absolute>
            <NoteOn Channel="1" Note="52" Velocity="100"/>
        </Event>
        <Event>
            <Absolute>35520</Absolute>
            <NoteOn Channel="1" Note="52" Velocity="0"/>
        </Event>
        <Event>
            <Absolute>35520</Absolute>
            <NoteOn Channel="1" Note="50" Velocity="100"/>
        </Event>
        <Event>
            <Absolute>35640</Absolute>
            <NoteOn Channel="1" Note="50" Velocity="0"/>
        </Event>
        <Event>
            <Absolute>35640</Absolute>
            <NoteOn Channel="1" Note="48" Velocity="100"/>
        </Event>
        <Event>
            <Absolute>35760</Absolute>
            <NoteOn Channel="1" Note="48" Velocity="0"/>
        </Event>
        <Event>
            <Absolute>35760</Absolute>
            <NoteOn Channel="1" Note="47" Velocity="100"/>
        </Event>
        <Event>
            <Absolute>35880</Absolute>
            <NoteOn Channel="1" Note="47" Velocity="0"/>
        </Event>
        <Event>
            <Absolute>35880</Absolute>
            <NoteOn Channel="1" Note="45" Velocity="100"/>
        </Event>
        <Event>
            <Absolute>36000</Absolute>
            <NoteOn Channel="1" Note="45" Velocity="0"/>
        </Event>
        <Event>
            <Absolute>36000</Absolute>
            <NoteOn Channel="1" Note="43" Velocity="100"/>
        </Event>
        <Event>
            <Absolute>36120</Absolute>
            <NoteOn Channel="1" Note="43" Velocity="0"/>
        </Event>
        <Event>
            <Absolute>36120</Absolute>
            <NoteOn Channel="1" Note="42" Velocity="100"/>
        </Event>
        <Event>
            <Absolute>36240</Absolute>
            <NoteOn Channel="1" Note="42" Velocity="0"/>
        </Event>
        <Event>
            <Absolute>36240</Absolute>
            <NoteOn Channel="1" Note="40" Velocity="100"/>
        </Event>
        <Event>
            <Absolute>36360</Absolute>
            <NoteOn Channel="1" Note="40" Velocity="0"/>
        </Event>
        <Event>
            <Absolute>36360</Absolute>
            <NoteOn Channel="1" Note="38" Velocity="100"/>
        </Event>
        <Event>
            <Absolute>36480</Absolute>
            <NoteOn Channel="1" Note="38" Velocity="0"/>
        </Event>
        <Event>
            <Absolute>36480</Absolute>
            <NoteOn Channel="1" Note="37" Velocity="100"/>
        </Event>
        <Event>
            <Absolute>36600</Absolute>
            <NoteOn Channel="1" Note="37" Velocity="0"/>
        </Event>
        <Event>
            <Absolute>36600</Absolute>
            <NoteOn Channel="1" Note="45" Velocity="100"/>
        </Event>
        <Event>
            <Absolute>36720</Absolute>
            <NoteOn Channel="1" Note="45" Velocity="0"/>
        </Event>
        <Event>
            <Absolute>36720</Absolute>
            <NoteOn Channel="1" Note="52" Velocity="100"/>
        </Event>
        <Event>
            <Absolute>36840</Absolute>
            <NoteOn Channel="1" Note="52" Velocity="0"/>
        </Event>
        <Event>
            <Absolute>36840</Absolute>
            <NoteOn Channel="1" Note="54" Velocity="100"/>
        </Event>
        <Event>
            <Absolute>36960</Absolute>
            <NoteOn Channel="1" Note="54" Velocity="0"/>
        </Event>
        <Event>
            <Absolute>36960</Absolute>
            <NoteOn Channel="1" Note="55" Velocity="100"/>
        </Event>
        <Event>
            <Absolute>37080</Absolute>
            <NoteOn Channel="1" Note="55" Velocity="0"/>
        </Event>
        <Event>
            <Absolute>37080</Absolute>
            <NoteOn Channel="1" Note="52" Velocity="100"/>
        </Event>
        <Event>
            <Absolute>37200</Absolute>
            <NoteOn Channel="1" Note="52" Velocity="0"/>
        </Event>
        <Event>
            <Absolute>37200</Absolute>
            <NoteOn Channel="1" Note="54" Velocity="100"/>
        </Event>
        <Event>
            <Absolute>37320</Absolute>
            <NoteOn Channel="1" Note="54" Velocity="0"/>
        </Event>
        <Event>
            <Absolute>37320</Absolute>
            <NoteOn Channel="1" Note="55" Velocity="100"/>
        </Event>
        <Event>
            <Absolute>37440</Absolute>
            <NoteOn Channel="1" Note="55" Velocity="0"/>
        </Event>
        <Event>
            <Absolute>37440</Absolute>
            <NoteOn Channel="1" Note="37" Velocity="100"/>
        </Event>
        <Event>
            <Absolute>37560</Absolute>
            <NoteOn Channel="1" Note="37" Velocity="0"/>
        </Event>
        <Event>
            <Absolute>37560</Absolute>
            <NoteOn Channel="1" Note="45" Velocity="100"/>
        </Event>
        <Event>
            <Absolute>37680</Absolute>
            <NoteOn Channel="1" Note="45" Velocity="0"/>
        </Event>
        <Event>
            <Absolute>37680</Absolute>
            <NoteOn Channel="1" Note="52" Velocity="100"/>
        </Event>
        <Event>
            <Absolute>37800</Absolute>
            <NoteOn Channel="1" Note="52" Velocity="0"/>
        </Event>
        <Event>
            <Absolute>37800</Absolute>
            <NoteOn Channel="1" Note="54" Velocity="100"/>
        </Event>
        <Event>
            <Absolute>37920</Absolute>
            <NoteOn Channel="1" Note="54" Velocity="0"/>
        </Event>
        <Event>
            <Absolute>37920</Absolute>
            <NoteOn Channel="1" Note="55" Velocity="100"/>
        </Event>
        <Event>
            <Absolute>38040</Absolute>
            <NoteOn Channel="1" Note="55" Velocity="0"/>
        </Event>
        <Event>
            <Absolute>38040</Absolute>
            <NoteOn Channel="1" Note="52" Velocity="100"/>
        </Event>
        <Event>
            <Absolute>38160</Absolute>
            <NoteOn Channel="1" Note="52" Velocity="0"/>
        </Event>
        <Event>
            <Absolute>38160</Absolute>
            <NoteOn Channel="1" Note="54" Velocity="100"/>
        </Event>
        <Event>
            <Absolute>38280</Absolute>
            <NoteOn Channel="1" Note="54" Velocity="0"/>
        </Event>
        <Event>
            <Absolute>38280</Absolute>
            <NoteOn Channel="1" Note="55" Velocity="100"/>
        </Event>
        <Event>
            <Absolute>38400</Absolute>
            <NoteOn Channel="1" Note="55" Velocity="0"/>
        </Event>
        <Event>
            <Absolute>38400</Absolute>
            <NoteOn Channel="1" Note="36" Velocity="100"/>
        </Event>
        <Event>
            <Absolute>38520</Absolute>
            <NoteOn Channel="1" Note="36" Velocity="0"/>
        </Event>
        <Event>
            <Absolute>38520</Absolute>
            <NoteOn Channel="1" Note="45" Velocity="100"/>
        </Event>
        <Event>
            <Absolute>38640</Absolute>
            <NoteOn Channel="1" Note="45" Velocity="0"/>
        </Event>
        <Event>
            <Absolute>38640</Absolute>
            <NoteOn Channel="1" Note="50" Velocity="100"/>
        </Event>
        <Event>
            <Absolute>38760</Absolute>
            <NoteOn Channel="1" Note="50" Velocity="0"/>
        </Event>
        <Event>
            <Absolute>38760</Absolute>
            <NoteOn Channel="1" Note="52" Velocity="100"/>
        </Event>
        <Event>
            <Absolute>38880</Absolute>
            <NoteOn Channel="1" Note="52" Velocity="0"/>
        </Event>
        <Event>
            <Absolute>38880</Absolute>
            <NoteOn Channel="1" Note="54" Velocity="100"/>
        </Event>
        <Event>
            <Absolute>39000</Absolute>
            <NoteOn Channel="1" Note="54" Velocity="0"/>
        </Event>
        <Event>
            <Absolute>39000</Absolute>
            <NoteOn Channel="1" Note="50" Velocity="100"/>
        </Event>
        <Event>
            <Absolute>39120</Absolute>
            <NoteOn Channel="1" Note="50" Velocity="0"/>
        </Event>
        <Event>
            <Absolute>39120</Absolute>
            <NoteOn Channel="1" Note="52" Velocity="100"/>
        </Event>
        <Event>
            <Absolute>39240</Absolute>
            <NoteOn Channel="1" Note="52" Velocity="0"/>
        </Event>
        <Event>
            <Absolute>39240</Absolute>
            <NoteOn Channel="1" Note="54" Velocity="100"/>
        </Event>
        <Event>
            <Absolute>39360</Absolute>
            <NoteOn Channel="1" Note="54" Velocity="0"/>
        </Event>
        <Event>
            <Absolute>39360</Absolute>
            <NoteOn Channel="1" Note="36" Velocity="100"/>
        </Event>
        <Event>
            <Absolute>39480</Absolute>
            <NoteOn Channel="1" Note="36" Velocity="0"/>
        </Event>
        <Event>
            <Absolute>39480</Absolute>
            <NoteOn Channel="1" Note="45" Velocity="100"/>
        </Event>
        <Event>
            <Absolute>39600</Absolute>
            <NoteOn Channel="1" Note="45" Velocity="0"/>
        </Event>
        <Event>
            <Absolute>39600</Absolute>
            <NoteOn Channel="1" Note="50" Velocity="100"/>
        </Event>
        <Event>
            <Absolute>39720</Absolute>
            <NoteOn Channel="1" Note="50" Velocity="0"/>
        </Event>
        <Event>
            <Absolute>39720</Absolute>
            <NoteOn Channel="1" Note="52" Velocity="100"/>
        </Event>
        <Event>
            <Absolute>39840</Absolute>
            <NoteOn Channel="1" Note="52" Velocity="0"/>
        </Event>
        <Event>
            <Absolute>39840</Absolute>
            <NoteOn Channel="1" Note="54" Velocity="100"/>
        </Event>
        <Event>
            <Absolute>39960</Absolute>
            <NoteOn Channel="1" Note="54" Velocity="0"/>
        </Event>
        <Event>
            <Absolute>39960</Absolute>
            <NoteOn Channel="1" Note="50" Velocity="100"/>
        </Event>
        <Event>
            <Absolute>40080</Absolute>
            <NoteOn Channel="1" Note="50" Velocity="0"/>
        </Event>
        <Event>
            <Absolute>40080</Absolute>
            <NoteOn Channel="1" Note="52" Velocity="100"/>
        </Event>
        <Event>
            <Absolute>40200</Absolute>
            <NoteOn Channel="1" Note="52" Velocity="0"/>
        </Event>
        <Event>
            <Absolute>40200</Absolute>
            <NoteOn Channel="1" Note="54" Velocity="100"/>
        </Event>
        <Event>
            <Absolute>40320</Absolute>
            <NoteOn Channel="1" Note="54" Velocity="0"/>
        </Event>
        <Event>
            <Absolute>40320</Absolute>
            <NoteOn Channel="1" Note="36" Velocity="100"/>
        </Event>
        <Event>
            <Absolute>40440</Absolute>
            <NoteOn Channel="1" Note="36" Velocity="0"/>
        </Event>
        <Event>
            <Absolute>40440</Absolute>
            <NoteOn Channel="1" Note="45" Velocity="100"/>
        </Event>
        <Event>
            <Absolute>40560</Absolute>
            <NoteOn Channel="1" Note="45" Velocity="0"/>
        </Event>
        <Event>
            <Absolute>40560</Absolute>
            <NoteOn Channel="1" Note="50" Velocity="100"/>
        </Event>
        <Event>
            <Absolute>40680</Absolute>
            <NoteOn Channel="1" Note="50" Velocity="0"/>
        </Event>
        <Event>
            <Absolute>40680</Absolute>
            <NoteOn Channel="1" Note="54" Velocity="100"/>
        </Event>
        <Event>
            <Absolute>40800</Absolute>
            <NoteOn Channel="1" Note="54" Velocity="0"/>
        </Event>
        <Event>
            <Absolute>40800</Absolute>
            <NoteOn Channel="1" Note="57" Velocity="100"/>
        </Event>
        <Event>
            <Absolute>40920</Absolute>
            <NoteOn Channel="1" Note="57" Velocity="0"/>
        </Event>
        <Event>
            <Absolute>40920</Absolute>
            <NoteOn Channel="1" Note="61" Velocity="100"/>
        </Event>
        <Event>
            <Absolute>41040</Absolute>
            <NoteOn Channel="1" Note="61" Velocity="0"/>
        </Event>
        <Event>
            <Absolute>41040</Absolute>
            <NoteOn Channel="1" Note="62" Velocity="100"/>
        </Event>
        <Event>
            <Absolute>41400</Absolute>
            <NoteOn Channel="1" Note="62" Velocity="0"/>
        </Event>
        <Event>
            <Absolute>41400</Absolute>
            <NoteOn Channel="1" Note="45" Velocity="100"/>
        </Event>
        <Event>
            <Absolute>41520</Absolute>
            <NoteOn Channel="1" Note="45" Velocity="0"/>
        </Event>
        <Event>
            <Absolute>41520</Absolute>
            <NoteOn Channel="1" Note="47" Velocity="100"/>
        </Event>
        <Event>
            <Absolute>41640</Absolute>
            <NoteOn Channel="1" Note="47" Velocity="0"/>
        </Event>
        <Event>
            <Absolute>41640</Absolute>
            <NoteOn Channel="1" Note="48" Velocity="100"/>
        </Event>
        <Event>
            <Absolute>41760</Absolute>
            <NoteOn Channel="1" Note="48" Velocity="0"/>
        </Event>
        <Event>
            <Absolute>41760</Absolute>
            <NoteOn Channel="1" Note="50" Velocity="100"/>
        </Event>
        <Event>
            <Absolute>41880</Absolute>
            <NoteOn Channel="1" Note="50" Velocity="0"/>
        </Event>
        <Event>
            <Absolute>41880</Absolute>
            <NoteOn Channel="1" Note="52" Velocity="100"/>
        </Event>
        <Event>
            <Absolute>42000</Absolute>
            <NoteOn Channel="1" Note="52" Velocity="0"/>
        </Event>
        <Event>
            <Absolute>42000</Absolute>
            <NoteOn Channel="1" Note="54" Velocity="100"/>
        </Event>
        <Event>
            <Absolute>42120</Absolute>
            <NoteOn Channel="1" Note="54" Velocity="0"/>
        </Event>
        <Event>
            <Absolute>42120</Absolute>
            <NoteOn Channel="1" Note="55" Velocity="100"/>
        </Event>
        <Event>
            <Absolute>42240</Absolute>
            <NoteOn Channel="1" Note="55" Velocity="0"/>
        </Event>
        <Event>
            <Absolute>42240</Absolute>
            <NoteOn Channel="1" Note="57" Velocity="100"/>
        </Event>
        <Event>
            <Absolute>42360</Absolute>
            <NoteOn Channel="1" Note="57" Velocity="0"/>
        </Event>
        <Event>
            <Absolute>42360</Absolute>
            <NoteOn Channel="1" Note="54" Velocity="100"/>
        </Event>
        <Event>
            <Absolute>42480</Absolute>
            <NoteOn Channel="1" Note="54" Velocity="0"/>
        </Event>
        <Event>
            <Absolute>42480</Absolute>
            <NoteOn Channel="1" Note="50" Velocity="100"/>
        </Event>
        <Event>
            <Absolute>42600</Absolute>
            <NoteOn Channel="1" Note="50" Velocity="0"/>
        </Event>
        <Event>
            <Absolute>42600</Absolute>
            <NoteOn Channel="1" Note="52" Velocity="100"/>
        </Event>
        <Event>
            <Absolute>42720</Absolute>
            <NoteOn Channel="1" Note="52" Velocity="0"/>
        </Event>
        <Event>
            <Absolute>42720</Absolute>
            <NoteOn Channel="1" Note="54" Velocity="100"/>
        </Event>
        <Event>
            <Absolute>42840</Absolute>
            <NoteOn Channel="1" Note="54" Velocity="0"/>
        </Event>
        <Event>
            <Absolute>42840</Absolute>
            <NoteOn Channel="1" Note="55" Velocity="100"/>
        </Event>
        <Event>
            <Absolute>42960</Absolute>
            <NoteOn Channel="1" Note="55" Velocity="0"/>
        </Event>
        <Event>
            <Absolute>42960</Absolute>
            <NoteOn Channel="1" Note="57" Velocity="100"/>
        </Event>
        <Event>
            <Absolute>43080</Absolute>
            <NoteOn Channel="1" Note="57" Velocity="0"/>
        </Event>
        <Event>
            <Absolute>43080</Absolute>
            <NoteOn Channel="1" Note="59" Velocity="100"/>
        </Event>
        <Event>
            <Absolute>43200</Absolute>
            <NoteOn Channel="1" Note="59" Velocity="0"/>
        </Event>
        <Event>
            <Absolute>43200</Absolute>
            <NoteOn Channel="1" Note="60" Velocity="100"/>
        </Event>
        <Event>
            <Absolute>43320</Absolute>
            <NoteOn Channel="1" Note="60" Velocity="0"/>
        </Event>
        <Event>
            <Absolute>43320</Absolute>
            <NoteOn Channel="1" Note="57" Velocity="100"/>
        </Event>
        <Event>
            <Absolute>43440</Absolute>
            <NoteOn Channel="1" Note="57" Velocity="0"/>
        </Event>
        <Event>
            <Absolute>43440</Absolute>
            <NoteOn Channel="1" Note="54" Velocity="100"/>
        </Event>
        <Event>
            <Absolute>43560</Absolute>
            <NoteOn Channel="1" Note="54" Velocity="0"/>
        </Event>
        <Event>
            <Absolute>43560</Absolute>
            <NoteOn Channel="1" Note="55" Velocity="100"/>
        </Event>
        <Event>
            <Absolute>43680</Absolute>
            <NoteOn Channel="1" Note="55" Velocity="0"/>
        </Event>
        <Event>
            <Absolute>43680</Absolute>
            <NoteOn Channel="1" Note="57" Velocity="100"/>
        </Event>
        <Event>
            <Absolute>43800</Absolute>
            <NoteOn Channel="1" Note="57" Velocity="0"/>
        </Event>
        <Event>
            <Absolute>43800</Absolute>
            <NoteOn Channel="1" Note="59" Velocity="100"/>
        </Event>
        <Event>
            <Absolute>43920</Absolute>
            <NoteOn Channel="1" Note="59" Velocity="0"/>
        </Event>
        <Event>
            <Absolute>43920</Absolute>
            <NoteOn Channel="1" Note="60" Velocity="100"/>
        </Event>
        <Event>
            <Absolute>44040</Absolute>
            <NoteOn Channel="1" Note="60" Velocity="0"/>
        </Event>
        <Event>
            <Absolute>44040</Absolute>
            <NoteOn Channel="1" Note="62" Velocity="100"/>
        </Event>
        <Event>
            <Absolute>44160</Absolute>
            <NoteOn Channel="1" Note="62" Velocity="0"/>
        </Event>
        <Event>
            <Absolute>44160</Absolute>
            <NoteOn Channel="1" Note="63" Velocity="100"/>
        </Event>
        <Event>
            <Absolute>44280</Absolute>
            <NoteOn Channel="1" Note="63" Velocity="0"/>
        </Event>
        <Event>
            <Absolute>44280</Absolute>
            <NoteOn Channel="1" Note="62" Velocity="100"/>
        </Event>
        <Event>
            <Absolute>44400</Absolute>
            <NoteOn Channel="1" Note="62" Velocity="0"/>
        </Event>
        <Event>
            <Absolute>44400</Absolute>
            <NoteOn Channel="1" Note="61" Velocity="100"/>
        </Event>
        <Event>
            <Absolute>44520</Absolute>
            <NoteOn Channel="1" Note="61" Velocity="0"/>
        </Event>
        <Event>
            <Absolute>44520</Absolute>
            <NoteOn Channel="1" Note="62" Velocity="100"/>
        </Event>
        <Event>
            <Absolute>44640</Absolute>
            <NoteOn Channel="1" Note="62" Velocity="0"/>
        </Event>
        <Event>
            <Absolute>44640</Absolute>
            <NoteOn Channel="1" Note="62" Velocity="100"/>
        </Event>
        <Event>
            <Absolute>44760</Absolute>
            <NoteOn Channel="1" Note="62" Velocity="0"/>
        </Event>
        <Event>
            <Absolute>44760</Absolute>
            <NoteOn Channel="1" Note="60" Velocity="100"/>
        </Event>
        <Event>
            <Absolute>44880</Absolute>
            <NoteOn Channel="1" Note="60" Velocity="0"/>
        </Event>
        <Event>
            <Absolute>44880</Absolute>
            <NoteOn Channel="1" Note="59" Velocity="100"/>
        </Event>
        <Event>
            <Absolute>45000</Absolute>
            <NoteOn Channel="1" Note="59" Velocity="0"/>
        </Event>
        <Event>
            <Absolute>45000</Absolute>
            <NoteOn Channel="1" Note="60" Velocity="100"/>
        </Event>
        <Event>
            <Absolute>45120</Absolute>
            <NoteOn Channel="1" Note="60" Velocity="0"/>
        </Event>
        <Event>
            <Absolute>45120</Absolute>
            <NoteOn Channel="1" Note="60" Velocity="100"/>
        </Event>
        <Event>
            <Absolute>45240</Absolute>
            <NoteOn Channel="1" Note="60" Velocity="0"/>
        </Event>
        <Event>
            <Absolute>45240</Absolute>
            <NoteOn Channel="1" Note="57" Velocity="100"/>
        </Event>
        <Event>
            <Absolute>45360</Absolute>
            <NoteOn Channel="1" Note="57" Velocity="0"/>
        </Event>
        <Event>
            <Absolute>45360</Absolute>
            <NoteOn Channel="1" Note="54" Velocity="100"/>
        </Event>
        <Event>
            <Absolute>45480</Absolute>
            <NoteOn Channel="1" Note="54" Velocity="0"/>
        </Event>
        <Event>
            <Absolute>45480</Absolute>
            <NoteOn Channel="1" Note="52" Velocity="100"/>
        </Event>
        <Event>
            <Absolute>45600</Absolute>
            <NoteOn Channel="1" Note="52" Velocity="0"/>
        </Event>
        <Event>
            <Absolute>45600</Absolute>
            <NoteOn Channel="1" Note="50" Velocity="100"/>
        </Event>
        <Event>
            <Absolute>45720</Absolute>
            <NoteOn Channel="1" Note="50" Velocity="0"/>
        </Event>
        <Event>
            <Absolute>45720</Absolute>
            <NoteOn Channel="1" Note="45" Velocity="100"/>
        </Event>
        <Event>
            <Absolute>45840</Absolute>
            <NoteOn Channel="1" Note="45" Velocity="0"/>
        </Event>
        <Event>
            <Absolute>45840</Absolute>
            <NoteOn Channel="1" Note="47" Velocity="100"/>
        </Event>
        <Event>
            <Absolute>45960</Absolute>
            <NoteOn Channel="1" Note="47" Velocity="0"/>
        </Event>
        <Event>
            <Absolute>45960</Absolute>
            <NoteOn Channel="1" Note="48" Velocity="100"/>
        </Event>
        <Event>
            <Absolute>46080</Absolute>
            <NoteOn Channel="1" Note="48" Velocity="0"/>
        </Event>
        <Event>
            <Absolute>46080</Absolute>
            <NoteOn Channel="1" Note="38" Velocity="100"/>
        </Event>
        <Event>
            <Absolute>46200</Absolute>
            <NoteOn Channel="1" Note="38" Velocity="0"/>
        </Event>
        <Event>
            <Absolute>46200</Absolute>
            <NoteOn Channel="1" Note="45" Velocity="100"/>
        </Event>
        <Event>
            <Absolute>46320</Absolute>
            <NoteOn Channel="1" Note="45" Velocity="0"/>
        </Event>
        <Event>
            <Absolute>46320</Absolute>
            <NoteOn Channel="1" Note="50" Velocity="100"/>
        </Event>
        <Event>
            <Absolute>46440</Absolute>
            <NoteOn Channel="1" Note="50" Velocity="0"/>
        </Event>
        <Event>
            <Absolute>46440</Absolute>
            <NoteOn Channel="1" Note="54" Velocity="100"/>
        </Event>
        <Event>
            <Absolute>46560</Absolute>
            <NoteOn Channel="1" Note="54" Velocity="0"/>
        </Event>
        <Event>
            <Absolute>46560</Absolute>
            <NoteOn Channel="1" Note="57" Velocity="100"/>
        </Event>
        <Event>
            <Absolute>46680</Absolute>
            <NoteOn Channel="1" Note="57" Velocity="0"/>
        </Event>
        <Event>
            <Absolute>46680</Absolute>
            <NoteOn Channel="1" Note="59" Velocity="100"/>
        </Event>
        <Event>
            <Absolute>46800</Absolute>
            <NoteOn Channel="1" Note="59" Velocity="0"/>
        </Event>
        <Event>
            <Absolute>46800</Absolute>
            <NoteOn Channel="1" Note="60" Velocity="100"/>
        </Event>
        <Event>
            <Absolute>46920</Absolute>
            <NoteOn Channel="1" Note="60" Velocity="0"/>
        </Event>
        <Event>
            <Absolute>46920</Absolute>
            <NoteOn Channel="1" Note="57" Velocity="100"/>
        </Event>
        <Event>
            <Absolute>47040</Absolute>
            <NoteOn Channel="1" Note="57" Velocity="0"/>
        </Event>
        <Event>
            <Absolute>47040</Absolute>
            <NoteOn Channel="1" Note="59" Velocity="100"/>
        </Event>
        <Event>
            <Absolute>47160</Absolute>
            <NoteOn Channel="1" Note="59" Velocity="0"/>
        </Event>
        <Event>
            <Absolute>47160</Absolute>
            <NoteOn Channel="1" Note="55" Velocity="100"/>
        </Event>
        <Event>
            <Absolute>47280</Absolute>
            <NoteOn Channel="1" Note="55" Velocity="0"/>
        </Event>
        <Event>
            <Absolute>47280</Absolute>
            <NoteOn Channel="1" Note="50" Velocity="100"/>
        </Event>
        <Event>
            <Absolute>47400</Absolute>
            <NoteOn Channel="1" Note="50" Velocity="0"/>
        </Event>
        <Event>
            <Absolute>47400</Absolute>
            <NoteOn Channel="1" Note="48" Velocity="100"/>
        </Event>
        <Event>
            <Absolute>47520</Absolute>
            <NoteOn Channel="1" Note="48" Velocity="0"/>
        </Event>
        <Event>
            <Absolute>47520</Absolute>
            <NoteOn Channel="1" Note="47" Velocity="100"/>
        </Event>
        <Event>
            <Absolute>47640</Absolute>
            <NoteOn Channel="1" Note="47" Velocity="0"/>
        </Event>
        <Event>
            <Absolute>47640</Absolute>
            <NoteOn Channel="1" Note="43" Velocity="100"/>
        </Event>
        <Event>
            <Absolute>47760</Absolute>
            <NoteOn Channel="1" Note="43" Velocity="0"/>
        </Event>
        <Event>
            <Absolute>47760</Absolute>
            <NoteOn Channel="1" Note="45" Velocity="100"/>
        </Event>
        <Event>
            <Absolute>47880</Absolute>
            <NoteOn Channel="1" Note="45" Velocity="0"/>
        </Event>
        <Event>
            <Absolute>47880</Absolute>
            <NoteOn Channel="1" Note="47" Velocity="100"/>
        </Event>
        <Event>
            <Absolute>48000</Absolute>
            <NoteOn Channel="1" Note="47" Velocity="0"/>
        </Event>
        <Event>
            <Absolute>48000</Absolute>
            <NoteOn Channel="1" Note="38" Velocity="100"/>
        </Event>
        <Event>
            <Absolute>48120</Absolute>
            <NoteOn Channel="1" Note="38" Velocity="0"/>
        </Event>
        <Event>
            <Absolute>48120</Absolute>
            <NoteOn Channel="1" Note="43" Velocity="100"/>
        </Event>
        <Event>
            <Absolute>48240</Absolute>
            <NoteOn Channel="1" Note="43" Velocity="0"/>
        </Event>
        <Event>
            <Absolute>48240</Absolute>
            <NoteOn Channel="1" Note="47" Velocity="100"/>
        </Event>
        <Event>
            <Absolute>48360</Absolute>
            <NoteOn Channel="1" Note="47" Velocity="0"/>
        </Event>
        <Event>
            <Absolute>48360</Absolute>
            <NoteOn Channel="1" Note="50" Velocity="100"/>
        </Event>
        <Event>
            <Absolute>48480</Absolute>
            <NoteOn Channel="1" Note="50" Velocity="0"/>
        </Event>
        <Event>
            <Absolute>48480</Absolute>
            <NoteOn Channel="1" Note="55" Velocity="100"/>
        </Event>
        <Event>
            <Absolute>48600</Absolute>
            <NoteOn Channel="1" Note="55" Velocity="0"/>
        </Event>
        <Event>
            <Absolute>48600</Absolute>
            <NoteOn Channel="1" Note="57" Velocity="100"/>
        </Event>
        <Event>
            <Absolute>48720</Absolute>
            <NoteOn Channel="1" Note="57" Velocity="0"/>
        </Event>
        <Event>
            <Absolute>48720</Absolute>
            <NoteOn Channel="1" Note="59" Velocity="100"/>
        </Event>
        <Event>
            <Absolute>48840</Absolute>
            <NoteOn Channel="1" Note="59" Velocity="0"/>
        </Event>
        <Event>
            <Absolute>48840</Absolute>
            <NoteOn Channel="1" Note="55" Velocity="100"/>
        </Event>
        <Event>
            <Absolute>48960</Absolute>
            <NoteOn Channel="1" Note="55" Velocity="0"/>
        </Event>
        <Event>
            <Absolute>48960</Absolute>
            <NoteOn Channel="1" Note="61" Velocity="100"/>
        </Event>
        <Event>
            <Absolute>49080</Absolute>
            <NoteOn Channel="1" Note="61" Velocity="0"/>
        </Event>
        <Event>
            <Absolute>49080</Absolute>
            <NoteOn Channel="1" Note="59" Velocity="100"/>
        </Event>
        <Event>
            <Absolute>49200</Absolute>
            <NoteOn Channel="1" Note="59" Velocity="0"/>
        </Event>
        <Event>
            <Absolute>49200</Absolute>
            <NoteOn Channel="1" Note="57" Velocity="100"/>
        </Event>
        <Event>
            <Absolute>49320</Absolute>
            <NoteOn Channel="1" Note="57" Velocity="0"/>
        </Event>
        <Event>
            <Absolute>49320</Absolute>
            <NoteOn Channel="1" Note="58" Velocity="100"/>
        </Event>
        <Event>
            <Absolute>49440</Absolute>
            <NoteOn Channel="1" Note="58" Velocity="0"/>
        </Event>
        <Event>
            <Absolute>49440</Absolute>
            <NoteOn Channel="1" Note="58" Velocity="100"/>
        </Event>
        <Event>
            <Absolute>49560</Absolute>
            <NoteOn Channel="1" Note="58" Velocity="0"/>
        </Event>
        <Event>
            <Absolute>49560</Absolute>
            <NoteOn Channel="1" Note="57" Velocity="100"/>
        </Event>
        <Event>
            <Absolute>49680</Absolute>
            <NoteOn Channel="1" Note="57" Velocity="0"/>
        </Event>
        <Event>
            <Absolute>49680</Absolute>
            <NoteOn Channel="1" Note="56" Velocity="100"/>
        </Event>
        <Event>
            <Absolute>49800</Absolute>
            <NoteOn Channel="1" Note="56" Velocity="0"/>
        </Event>
        <Event>
            <Absolute>49800</Absolute>
            <NoteOn Channel="1" Note="57" Velocity="100"/>
        </Event>
        <Event>
            <Absolute>49920</Absolute>
            <NoteOn Channel="1" Note="57" Velocity="0"/>
        </Event>
        <Event>
            <Absolute>49920</Absolute>
            <NoteOn Channel="1" Note="57" Velocity="100"/>
        </Event>
        <Event>
            <Absolute>50040</Absolute>
            <NoteOn Channel="1" Note="57" Velocity="0"/>
        </Event>
        <Event>
            <Absolute>50040</Absolute>
            <NoteOn Channel="1" Note="55" Velocity="100"/>
        </Event>
        <Event>
            <Absolute>50160</Absolute>
            <NoteOn Channel="1" Note="55" Velocity="0"/>
        </Event>
        <Event>
            <Absolute>50160</Absolute>
            <NoteOn Channel="1" Note="54" Velocity="100"/>
        </Event>
        <Event>
            <Absolute>50280</Absolute>
            <NoteOn Channel="1" Note="54" Velocity="0"/>
        </Event>
        <Event>
            <Absolute>50280</Absolute>
            <NoteOn Channel="1" Note="55" Velocity="100"/>
        </Event>
        <Event>
            <Absolute>50400</Absolute>
            <NoteOn Channel="1" Note="55" Velocity="0"/>
        </Event>
        <Event>
            <Absolute>50400</Absolute>
            <NoteOn Channel="1" Note="55" Velocity="100"/>
        </Event>
        <Event>
            <Absolute>50520</Absolute>
            <NoteOn Channel="1" Note="55" Velocity="0"/>
        </Event>
        <Event>
            <Absolute>50520</Absolute>
            <NoteOn Channel="1" Note="52" Velocity="100"/>
        </Event>
        <Event>
            <Absolute>50640</Absolute>
            <NoteOn Channel="1" Note="52" Velocity="0"/>
        </Event>
        <Event>
            <Absolute>50640</Absolute>
            <NoteOn Channel="1" Note="49" Velocity="100"/>
        </Event>
        <Event>
            <Absolute>50760</Absolute>
            <NoteOn Channel="1" Note="49" Velocity="0"/>
        </Event>
        <Event>
            <Absolute>50760</Absolute>
            <NoteOn Channel="1" Note="47" Velocity="100"/>
        </Event>
        <Event>
            <Absolute>50880</Absolute>
            <NoteOn Channel="1" Note="47" Velocity="0"/>
        </Event>
        <Event>
            <Absolute>50880</Absolute>
            <NoteOn Channel="1" Note="45" Velocity="100"/>
        </Event>
        <Event>
            <Absolute>51000</Absolute>
            <NoteOn Channel="1" Note="45" Velocity="0"/>
        </Event>
        <Event>
            <Absolute>51000</Absolute>
            <NoteOn Channel="1" Note="49" Velocity="100"/>
        </Event>
        <Event>
            <Absolute>51120</Absolute>
            <NoteOn Channel="1" Note="49" Velocity="0"/>
        </Event>
        <Event>
            <Absolute>51120</Absolute>
            <NoteOn Channel="1" Note="52" Velocity="100"/>
        </Event>
        <Event>
            <Absolute>51240</Absolute>
            <NoteOn Channel="1" Note="52" Velocity="0"/>
        </Event>
        <Event>
            <Absolute>51240</Absolute>
            <NoteOn Channel="1" Note="55" Velocity="100"/>
        </Event>
        <Event>
            <Absolute>51360</Absolute>
            <NoteOn Channel="1" Note="55" Velocity="0"/>
        </Event>
        <Event>
            <Absolute>51360</Absolute>
            <NoteOn Channel="1" Note="57" Velocity="100"/>
        </Event>
        <Event>
            <Absolute>51480</Absolute>
            <NoteOn Channel="1" Note="57" Velocity="0"/>
        </Event>
        <Event>
            <Absolute>51480</Absolute>
            <NoteOn Channel="1" Note="61" Velocity="100"/>
        </Event>
        <Event>
            <Absolute>51600</Absolute>
            <NoteOn Channel="1" Note="61" Velocity="0"/>
        </Event>
        <Event>
            <Absolute>51600</Absolute>
            <NoteOn Channel="1" Note="62" Velocity="100"/>
        </Event>
        <Event>
            <Absolute>51720</Absolute>
            <NoteOn Channel="1" Note="62" Velocity="0"/>
        </Event>
        <Event>
            <Absolute>51720</Absolute>
            <NoteOn Channel="1" Note="61" Velocity="100"/>
        </Event>
        <Event>
            <Absolute>51840</Absolute>
            <NoteOn Channel="1" Note="61" Velocity="0"/>
        </Event>
        <Event>
            <Absolute>51840</Absolute>
            <NoteOn Channel="1" Note="62" Velocity="100"/>
        </Event>
        <Event>
            <Absolute>51960</Absolute>
            <NoteOn Channel="1" Note="62" Velocity="0"/>
        </Event>
        <Event>
            <Absolute>51960</Absolute>
            <NoteOn Channel="1" Note="57" Velocity="100"/>
        </Event>
        <Event>
            <Absolute>52080</Absolute>
            <NoteOn Channel="1" Note="57" Velocity="0"/>
        </Event>
        <Event>
            <Absolute>52080</Absolute>
            <NoteOn Channel="1" Note="54" Velocity="100"/>
        </Event>
        <Event>
            <Absolute>52200</Absolute>
            <NoteOn Channel="1" Note="54" Velocity="0"/>
        </Event>
        <Event>
            <Absolute>52200</Absolute>
            <NoteOn Channel="1" Note="52" Velocity="100"/>
        </Event>
        <Event>
            <Absolute>52320</Absolute>
            <NoteOn Channel="1" Note="52" Velocity="0"/>
        </Event>
        <Event>
            <Absolute>52320</Absolute>
            <NoteOn Channel="1" Note="54" Velocity="100"/>
        </Event>
        <Event>
            <Absolute>52440</Absolute>
            <NoteOn Channel="1" Note="54" Velocity="0"/>
        </Event>
        <Event>
            <Absolute>52440</Absolute>
            <NoteOn Channel="1" Note="57" Velocity="100"/>
        </Event>
        <Event>
            <Absolute>52560</Absolute>
            <NoteOn Channel="1" Note="57" Velocity="0"/>
        </Event>
        <Event>
            <Absolute>52560</Absolute>
            <NoteOn Channel="1" Note="50" Velocity="100"/>
        </Event>
        <Event>
            <Absolute>52680</Absolute>
            <NoteOn Channel="1" Note="50" Velocity="0"/>
        </Event>
        <Event>
            <Absolute>52680</Absolute>
            <NoteOn Channel="1" Note="54" Velocity="100"/>
        </Event>
        <Event>
            <Absolute>52800</Absolute>
            <NoteOn Channel="1" Note="54" Velocity="0"/>
        </Event>
        <Event>
            <Absolute>52800</Absolute>
            <NoteOn Channel="1" Note="45" Velocity="100"/>
        </Event>
        <Event>
            <Absolute>52920</Absolute>
            <NoteOn Channel="1" Note="45" Velocity="0"/>
        </Event>
        <Event>
            <Absolute>52920</Absolute>
            <NoteOn Channel="1" Note="50" Velocity="100"/>
        </Event>
        <Event>
            <Absolute>53040</Absolute>
            <NoteOn Channel="1" Note="50" Velocity="0"/>
        </Event>
        <Event>
            <Absolute>53040</Absolute>
            <NoteOn Channel="1" Note="49" Velocity="100"/>
        </Event>
        <Event>
            <Absolute>53160</Absolute>
            <NoteOn Channel="1" Note="49" Velocity="0"/>
        </Event>
        <Event>
            <Absolute>53160</Absolute>
            <NoteOn Channel="1" Note="47" Velocity="100"/>
        </Event>
        <Event>
            <Absolute>53280</Absolute>
            <NoteOn Channel="1" Note="47" Velocity="0"/>
        </Event>
        <Event>
            <Absolute>53280</Absolute>
            <NoteOn Channel="1" Note="45" Velocity="100"/>
        </Event>
        <Event>
            <Absolute>53400</Absolute>
            <NoteOn Channel="1" Note="45" Velocity="0"/>
        </Event>
        <Event>
            <Absolute>53400</Absolute>
            <NoteOn Channel="1" Note="43" Velocity="100"/>
        </Event>
        <Event>
            <Absolute>53520</Absolute>
            <NoteOn Channel="1" Note="43" Velocity="0"/>
        </Event>
        <Event>
            <Absolute>53520</Absolute>
            <NoteOn Channel="1" Note="42" Velocity="100"/>
        </Event>
        <Event>
            <Absolute>53640</Absolute>
            <NoteOn Channel="1" Note="42" Velocity="0"/>
        </Event>
        <Event>
            <Absolute>53640</Absolute>
            <NoteOn Channel="1" Note="40" Velocity="100"/>
        </Event>
        <Event>
            <Absolute>53760</Absolute>
            <NoteOn Channel="1" Note="40" Velocity="0"/>
        </Event>
        <Event>
            <Absolute>53760</Absolute>
            <NoteOn Channel="1" Note="38" Velocity="100"/>
        </Event>
        <Event>
            <Absolute>54000</Absolute>
            <NoteOn Channel="1" Note="38" Velocity="0"/>
        </Event>
        <Event>
            <Absolute>54000</Absolute>
            <NoteOn Channel="1" Note="60" Velocity="100"/>
        </Event>
        <Event>
            <Absolute>54120</Absolute>
            <NoteOn Channel="1" Note="60" Velocity="0"/>
        </Event>
        <Event>
            <Absolute>54120</Absolute>
            <NoteOn Channel="1" Note="59" Velocity="100"/>
        </Event>
        <Event>
            <Absolute>54240</Absolute>
            <NoteOn Channel="1" Note="59" Velocity="0"/>
        </Event>
        <Event>
            <Absolute>54240</Absolute>
            <NoteOn Channel="1" Note="57" Velocity="100"/>
        </Event>
        <Event>
            <Absolute>54360</Absolute>
            <NoteOn Channel="1" Note="57" Velocity="0"/>
        </Event>
        <Event>
            <Absolute>54360</Absolute>
            <NoteOn Channel="1" Note="55" Velocity="100"/>
        </Event>
        <Event>
            <Absolute>54480</Absolute>
            <NoteOn Channel="1" Note="55" Velocity="0"/>
        </Event>
        <Event>
            <Absolute>54480</Absolute>
            <NoteOn Channel="1" Note="54" Velocity="100"/>
        </Event>
        <Event>
            <Absolute>54600</Absolute>
            <NoteOn Channel="1" Note="54" Velocity="0"/>
        </Event>
        <Event>
            <Absolute>54600</Absolute>
            <NoteOn Channel="1" Note="52" Velocity="100"/>
        </Event>
        <Event>
            <Absolute>54720</Absolute>
            <NoteOn Channel="1" Note="52" Velocity="0"/>
        </Event>
        <Event>
            <Absolute>54720</Absolute>
            <NoteOn Channel="1" Note="50" Velocity="100"/>
        </Event>
        <Event>
            <Absolute>54840</Absolute>
            <NoteOn Channel="1" Note="50" Velocity="0"/>
        </Event>
        <Event>
            <Absolute>54840</Absolute>
            <NoteOn Channel="1" Note="60" Velocity="100"/>
        </Event>
        <Event>
            <Absolute>54960</Absolute>
            <NoteOn Channel="1" Note="60" Velocity="0"/>
        </Event>
        <Event>
            <Absolute>54960</Absolute>
            <NoteOn Channel="1" Note="59" Velocity="100"/>
        </Event>
        <Event>
            <Absolute>55080</Absolute>
            <NoteOn Channel="1" Note="59" Velocity="0"/>
        </Event>
        <Event>
            <Absolute>55080</Absolute>
            <NoteOn Channel="1" Note="57" Velocity="100"/>
        </Event>
        <Event>
            <Absolute>55200</Absolute>
            <NoteOn Channel="1" Note="57" Velocity="0"/>
        </Event>
        <Event>
            <Absolute>55200</Absolute>
            <NoteOn Channel="1" Note="55" Velocity="100"/>
        </Event>
        <Event>
            <Absolute>55320</Absolute>
            <NoteOn Channel="1" Note="55" Velocity="0"/>
        </Event>
        <Event>
            <Absolute>55320</Absolute>
            <NoteOn Channel="1" Note="54" Velocity="100"/>
        </Event>
        <Event>
            <Absolute>55440</Absolute>
            <NoteOn Channel="1" Note="54" Velocity="0"/>
        </Event>
        <Event>
            <Absolute>55440</Absolute>
            <NoteOn Channel="1" Note="52" Velocity="100"/>
        </Event>
        <Event>
            <Absolute>55560</Absolute>
            <NoteOn Channel="1" Note="52" Velocity="0"/>
        </Event>
        <Event>
            <Absolute>55560</Absolute>
            <NoteOn Channel="1" Note="50" Velocity="100"/>
        </Event>
        <Event>
            <Absolute>55680</Absolute>
            <NoteOn Channel="1" Note="50" Velocity="0"/>
        </Event>
        <Event>
            <Absolute>55680</Absolute>
            <NoteOn Channel="1" Note="48" Velocity="100"/>
        </Event>
        <Event>
            <Absolute>55800</Absolute>
            <NoteOn Channel="1" Note="48" Velocity="0"/>
        </Event>
        <Event>
            <Absolute>55800</Absolute>
            <NoteOn Channel="1" Note="59" Velocity="100"/>
        </Event>
        <Event>
            <Absolute>55920</Absolute>
            <NoteOn Channel="1" Note="59" Velocity="0"/>
        </Event>
        <Event>
            <Absolute>55920</Absolute>
            <NoteOn Channel="1" Note="57" Velocity="100"/>
        </Event>
        <Event>
            <Absolute>56040</Absolute>
            <NoteOn Channel="1" Note="57" Velocity="0"/>
        </Event>
        <Event>
            <Absolute>56040</Absolute>
            <NoteOn Channel="1" Note="55" Velocity="100"/>
        </Event>
        <Event>
            <Absolute>56160</Absolute>
            <NoteOn Channel="1" Note="55" Velocity="0"/>
        </Event>
        <Event>
            <Absolute>56160</Absolute>
            <NoteOn Channel="1" Note="54" Velocity="100"/>
        </Event>
        <Event>
            <Absolute>56280</Absolute>
            <NoteOn Channel="1" Note="54" Velocity="0"/>
        </Event>
        <Event>
            <Absolute>56280</Absolute>
            <NoteOn Channel="1" Note="52" Velocity="100"/>
        </Event>
        <Event>
            <Absolute>56400</Absolute>
            <NoteOn Channel="1" Note="52" Velocity="0"/>
        </Event>
        <Event>
            <Absolute>56400</Absolute>
            <NoteOn Channel="1" Note="50" Velocity="100"/>
        </Event>
        <Event>
            <Absolute>56520</Absolute>
            <NoteOn Channel="1" Note="50" Velocity="0"/>
        </Event>
        <Event>
            <Absolute>56520</Absolute>
            <NoteOn Channel="1" Note="48" Velocity="100"/>
        </Event>
        <Event>
            <Absolute>56640</Absolute>
            <NoteOn Channel="1" Note="48" Velocity="0"/>
        </Event>
        <Event>
            <Absolute>56640</Absolute>
            <NoteOn Channel="1" Note="47" Velocity="100"/>
        </Event>
        <Event>
            <Absolute>56760</Absolute>
            <NoteOn Channel="1" Note="47" Velocity="0"/>
        </Event>
        <Event>
            <Absolute>56760</Absolute>
            <NoteOn Channel="1" Note="57" Velocity="100"/>
        </Event>
        <Event>
            <Absolute>56880</Absolute>
            <NoteOn Channel="1" Note="57" Velocity="0"/>
        </Event>
        <Event>
            <Absolute>56880</Absolute>
            <NoteOn Channel="1" Note="55" Velocity="100"/>
        </Event>
        <Event>
            <Absolute>57000</Absolute>
            <NoteOn Channel="1" Note="55" Velocity="0"/>
        </Event>
        <Event>
            <Absolute>57000</Absolute>
            <NoteOn Channel="1" Note="54" Velocity="100"/>
        </Event>
        <Event>
            <Absolute>57120</Absolute>
            <NoteOn Channel="1" Note="54" Velocity="0"/>
        </Event>
        <Event>
            <Absolute>57120</Absolute>
            <NoteOn Channel="1" Note="52" Velocity="100"/>
        </Event>
        <Event>
            <Absolute>57240</Absolute>
            <NoteOn Channel="1" Note="52" Velocity="0"/>
        </Event>
        <Event>
            <Absolute>57240</Absolute>
            <NoteOn Channel="1" Note="50" Velocity="100"/>
        </Event>
        <Event>
            <Absolute>57360</Absolute>
            <NoteOn Channel="1" Note="50" Velocity="0"/>
        </Event>
        <Event>
            <Absolute>57360</Absolute>
            <NoteOn Channel="1" Note="48" Velocity="100"/>
        </Event>
        <Event>
            <Absolute>57480</Absolute>
            <NoteOn Channel="1" Note="48" Velocity="0"/>
        </Event>
        <Event>
            <Absolute>57480</Absolute>
            <NoteOn Channel="1" Note="47" Velocity="100"/>
        </Event>
        <Event>
            <Absolute>57600</Absolute>
            <NoteOn Channel="1" Note="47" Velocity="0"/>
        </Event>
        <Event>
            <Absolute>57600</Absolute>
            <NoteOn Channel="1" Note="45" Velocity="100"/>
        </Event>
        <Event>
            <Absolute>57720</Absolute>
            <NoteOn Channel="1" Note="45" Velocity="0"/>
        </Event>
        <Event>
            <Absolute>57720</Absolute>
            <NoteOn Channel="1" Note="55" Velocity="100"/>
        </Event>
        <Event>
            <Absolute>57840</Absolute>
            <NoteOn Channel="1" Note="55" Velocity="0"/>
        </Event>
        <Event>
            <Absolute>57840</Absolute>
            <NoteOn Channel="1" Note="54" Velocity="100"/>
        </Event>
        <Event>
            <Absolute>57960</Absolute>
            <NoteOn Channel="1" Note="54" Velocity="0"/>
        </Event>
        <Event>
            <Absolute>57960</Absolute>
            <NoteOn Channel="1" Note="52" Velocity="100"/>
        </Event>
        <Event>
            <Absolute>58080</Absolute>
            <NoteOn Channel="1" Note="52" Velocity="0"/>
        </Event>
        <Event>
            <Absolute>58080</Absolute>
            <NoteOn Channel="1" Note="54" Velocity="100"/>
        </Event>
        <Event>
            <Absolute>58200</Absolute>
            <NoteOn Channel="1" Note="54" Velocity="0"/>
        </Event>
        <Event>
            <Absolute>58320</Absolute>
            <NoteOn Channel="1" Note="50" Velocity="100"/>
        </Event>
        <Event>
            <Absolute>58440</Absolute>
            <NoteOn Channel="1" Note="50" Velocity="0"/>
        </Event>
        <Event>
            <Absolute>58560</Absolute>
            <NoteOn Channel="1" Note="52" Velocity="100"/>
        </Event>
        <Event>
            <Absolute>58680</Absolute>
            <NoteOn Channel="1" Note="52" Velocity="0"/>
        </Event>
        <Event>
            <Absolute>58800</Absolute>
            <NoteOn Channel="1" Note="54" Velocity="100"/>
        </Event>
        <Event>
            <Absolute>58920</Absolute>
            <NoteOn Channel="1" Note="54" Velocity="0"/>
        </Event>
        <Event>
            <Absolute>59040</Absolute>
            <NoteOn Channel="1" Note="55" Velocity="100"/>
        </Event>
        <Event>
            <Absolute>59160</Absolute>
            <NoteOn Channel="1" Note="55" Velocity="0"/>
        </Event>
        <Event>
            <Absolute>59280</Absolute>
            <NoteOn Channel="1" Note="52" Velocity="100"/>
        </Event>
        <Event>
            <Absolute>59400</Absolute>
            <NoteOn Channel="1" Note="52" Velocity="0"/>
        </Event>
        <Event>
            <Absolute>59520</Absolute>
            <NoteOn Channel="1" Note="54" Velocity="100"/>
        </Event>
        <Event>
            <Absolute>59640</Absolute>
            <NoteOn Channel="1" Note="54" Velocity="0"/>
        </Event>
        <Event>
            <Absolute>59760</Absolute>
            <NoteOn Channel="1" Note="50" Velocity="100"/>
        </Event>
        <Event>
            <Absolute>59880</Absolute>
            <NoteOn Channel="1" Note="50" Velocity="0"/>
        </Event>
        <Event>
            <Absolute>60000</Absolute>
            <NoteOn Channel="1" Note="55" Velocity="100"/>
        </Event>
        <Event>
            <Absolute>60120</Absolute>
            <NoteOn Channel="1" Note="55" Velocity="0"/>
        </Event>
        <Event>
            <Absolute>60240</Absolute>
            <NoteOn Channel="1" Note="52" Velocity="100"/>
        </Event>
        <Event>
            <Absolute>60360</Absolute>
            <NoteOn Channel="1" Note="52" Velocity="0"/>
        </Event>
        <Event>
            <Absolute>60480</Absolute>
            <NoteOn Channel="1" Note="54" Velocity="100"/>
        </Event>
        <Event>
            <Absolute>60600</Absolute>
            <NoteOn Channel="1" Note="54" Velocity="0"/>
        </Event>
        <Event>
            <Absolute>60720</Absolute>
            <NoteOn Channel="1" Note="50" Velocity="100"/>
        </Event>
        <Event>
            <Absolute>60840</Absolute>
            <NoteOn Channel="1" Note="50" Velocity="0"/>
        </Event>
        <Event>
            <Absolute>60960</Absolute>
            <NoteOn Channel="1" Note="55" Velocity="100"/>
        </Event>
        <Event>
            <Absolute>61080</Absolute>
            <NoteOn Channel="1" Note="55" Velocity="0"/>
        </Event>
        <Event>
            <Absolute>61200</Absolute>
            <NoteOn Channel="1" Note="52" Velocity="100"/>
        </Event>
        <Event>
            <Absolute>61320</Absolute>
            <NoteOn Channel="1" Note="52" Velocity="0"/>
        </Event>
        <Event>
            <Absolute>61440</Absolute>
            <NoteOn Channel="1" Note="54" Velocity="100"/>
        </Event>
        <Event>
            <Absolute>61560</Absolute>
            <NoteOn Channel="1" Note="54" Velocity="0"/>
        </Event>
        <Event>
            <Absolute>61680</Absolute>
            <NoteOn Channel="1" Note="50" Velocity="100"/>
        </Event>
        <Event>
            <Absolute>61800</Absolute>
            <NoteOn Channel="1" Note="50" Velocity="0"/>
        </Event>
        <Event>
            <Absolute>61920</Absolute>
            <NoteOn Channel="1" Note="52" Velocity="100"/>
        </Event>
        <Event>
            <Absolute>62040</Absolute>
            <NoteOn Channel="1" Note="52" Velocity="0"/>
        </Event>
        <Event>
            <Absolute>62160</Absolute>
            <NoteOn Channel="1" Note="54" Velocity="100"/>
        </Event>
        <Event>
            <Absolute>62280</Absolute>
            <NoteOn Channel="1" Note="54" Velocity="0"/>
        </Event>
        <Event>
            <Absolute>62400</Absolute>
            <NoteOn Channel="1" Note="55" Velocity="100"/>
        </Event>
        <Event>
            <Absolute>62520</Absolute>
            <NoteOn Channel="1" Note="55" Velocity="0"/>
        </Event>
        <Event>
            <Absolute>62640</Absolute>
            <NoteOn Channel="1" Note="57" Velocity="100"/>
        </Event>
        <Event>
            <Absolute>62760</Absolute>
            <NoteOn Channel="1" Note="57" Velocity="0"/>
        </Event>
        <Event>
            <Absolute>62880</Absolute>
            <NoteOn Channel="1" Note="59" Velocity="100"/>
        </Event>
        <Event>
            <Absolute>63000</Absolute>
            <NoteOn Channel="1" Note="59" Velocity="0"/>
        </Event>
        <Event>
            <Absolute>63120</Absolute>
            <NoteOn Channel="1" Note="50" Velocity="100"/>
        </Event>
        <Event>
            <Absolute>63240</Absolute>
            <NoteOn Channel="1" Note="50" Velocity="0"/>
        </Event>
        <Event>
            <Absolute>63360</Absolute>
            <NoteOn Channel="1" Note="57" Velocity="100"/>
        </Event>
        <Event>
            <Absolute>63480</Absolute>
            <NoteOn Channel="1" Note="57" Velocity="0"/>
        </Event>
        <Event>
            <Absolute>63600</Absolute>
            <NoteOn Channel="1" Note="59" Velocity="100"/>
        </Event>
        <Event>
            <Absolute>63720</Absolute>
            <NoteOn Channel="1" Note="59" Velocity="0"/>
        </Event>
        <Event>
            <Absolute>63840</Absolute>
            <NoteOn Channel="1" Note="60" Velocity="100"/>
        </Event>
        <Event>
            <Absolute>63960</Absolute>
            <NoteOn Channel="1" Note="60" Velocity="0"/>
        </Event>
        <Event>
            <Absolute>64080</Absolute>
            <NoteOn Channel="1" Note="50" Velocity="100"/>
        </Event>
        <Event>
            <Absolute>64200</Absolute>
            <NoteOn Channel="1" Note="50" Velocity="0"/>
        </Event>
        <Event>
            <Absolute>64320</Absolute>
            <NoteOn Channel="1" Note="59" Velocity="100"/>
        </Event>
        <Event>
            <Absolute>64440</Absolute>
            <NoteOn Channel="1" Note="59" Velocity="0"/>
        </Event>
        <Event>
            <Absolute>64560</Absolute>
            <NoteOn Channel="1" Note="60" Velocity="100"/>
        </Event>
        <Event>
            <Absolute>64680</Absolute>
            <NoteOn Channel="1" Note="60" Velocity="0"/>
        </Event>
        <Event>
            <Absolute>64800</Absolute>
            <NoteOn Channel="1" Note="62" Velocity="100"/>
        </Event>
        <Event>
            <Absolute>64920</Absolute>
            <NoteOn Channel="1" Note="62" Velocity="0"/>
        </Event>
        <Event>
            <Absolute>65040</Absolute>
            <NoteOn Channel="1" Note="59" Velocity="100"/>
        </Event>
        <Event>
            <Absolute>65160</Absolute>
            <NoteOn Channel="1" Note="59" Velocity="0"/>
        </Event>
        <Event>
            <Absolute>65280</Absolute>
            <NoteOn Channel="1" Note="60" Velocity="100"/>
        </Event>
        <Event>
            <Absolute>65400</Absolute>
            <NoteOn Channel="1" Note="60" Velocity="0"/>
        </Event>
        <Event>
            <Absolute>65520</Absolute>
            <NoteOn Channel="1" Note="59" Velocity="100"/>
        </Event>
        <Event>
            <Absolute>65640</Absolute>
            <NoteOn Channel="1" Note="59" Velocity="0"/>
        </Event>
        <Event>
            <Absolute>65760</Absolute>
            <NoteOn Channel="1" Note="60" Velocity="100"/>
        </Event>
        <Event>
            <Absolute>65880</Absolute>
            <NoteOn Channel="1" Note="60" Velocity="0"/>
        </Event>
        <Event>
            <Absolute>66000</Absolute>
            <NoteOn Channel="1" Note="57" Velocity="100"/>
        </Event>
        <Event>
            <Absolute>66120</Absolute>
            <NoteOn Channel="1" Note="57" Velocity="0"/>
        </Event>
        <Event>
            <Absolute>66240</Absolute>
            <NoteOn Channel="1" Note="59" Velocity="100"/>
        </Event>
        <Event>
            <Absolute>66360</Absolute>
            <NoteOn Channel="1" Note="59" Velocity="0"/>
        </Event>
        <Event>
            <Absolute>66480</Absolute>
            <NoteOn Channel="1" Note="57" Velocity="100"/>
        </Event>
        <Event>
            <Absolute>66600</Absolute>
            <NoteOn Channel="1" Note="57" Velocity="0"/>
        </Event>
        <Event>
            <Absolute>66720</Absolute>
            <NoteOn Channel="1" Note="59" Velocity="100"/>
        </Event>
        <Event>
            <Absolute>66840</Absolute>
            <NoteOn Channel="1" Note="59" Velocity="0"/>
        </Event>
        <Event>
            <Absolute>66960</Absolute>
            <NoteOn Channel="1" Note="55" Velocity="100"/>
        </Event>
        <Event>
            <Absolute>67080</Absolute>
            <NoteOn Channel="1" Note="55" Velocity="0"/>
        </Event>
        <Event>
            <Absolute>67200</Absolute>
            <NoteOn Channel="1" Note="57" Velocity="100"/>
        </Event>
        <Event>
            <Absolute>67320</Absolute>
            <NoteOn Channel="1" Note="57" Velocity="0"/>
        </Event>
        <Event>
            <Absolute>67440</Absolute>
            <NoteOn Channel="1" Note="55" Velocity="100"/>
        </Event>
        <Event>
            <Absolute>67560</Absolute>
            <NoteOn Channel="1" Note="55" Velocity="0"/>
        </Event>
        <Event>
            <Absolute>67680</Absolute>
            <NoteOn Channel="1" Note="57" Velocity="100"/>
        </Event>
        <Event>
            <Absolute>67800</Absolute>
            <NoteOn Channel="1" Note="57" Velocity="0"/>
        </Event>
        <Event>
            <Absolute>67920</Absolute>
            <NoteOn Channel="1" Note="54" Velocity="100"/>
        </Event>
        <Event>
            <Absolute>68040</Absolute>
            <NoteOn Channel="1" Note="54" Velocity="0"/>
        </Event>
        <Event>
            <Absolute>68160</Absolute>
            <NoteOn Channel="1" Note="55" Velocity="100"/>
        </Event>
        <Event>
            <Absolute>68280</Absolute>
            <NoteOn Channel="1" Note="55" Velocity="0"/>
        </Event>
        <Event>
            <Absolute>68400</Absolute>
            <NoteOn Channel="1" Note="54" Velocity="100"/>
        </Event>
        <Event>
            <Absolute>68520</Absolute>
            <NoteOn Channel="1" Note="54" Velocity="0"/>
        </Event>
        <Event>
            <Absolute>68640</Absolute>
            <NoteOn Channel="1" Note="55" Velocity="100"/>
        </Event>
        <Event>
            <Absolute>68760</Absolute>
            <NoteOn Channel="1" Note="55" Velocity="0"/>
        </Event>
        <Event>
            <Absolute>68880</Absolute>
            <NoteOn Channel="1" Note="52" Velocity="100"/>
        </Event>
        <Event>
            <Absolute>69000</Absolute>
            <NoteOn Channel="1" Note="52" Velocity="0"/>
        </Event>
        <Event>
            <Absolute>69120</Absolute>
            <NoteOn Channel="1" Note="54" Velocity="100"/>
        </Event>
        <Event>
            <Absolute>69240</Absolute>
            <NoteOn Channel="1" Note="54" Velocity="0"/>
        </Event>
        <Event>
            <Absolute>69360</Absolute>
            <NoteOn Channel="1" Note="50" Velocity="100"/>
        </Event>
        <Event>
            <Absolute>69480</Absolute>
            <NoteOn Channel="1" Note="50" Velocity="0"/>
        </Event>
        <Event>
            <Absolute>69480</Absolute>
            <NoteOn Channel="1" Note="52" Velocity="100"/>
        </Event>
        <Event>
            <Absolute>69600</Absolute>
            <NoteOn Channel="1" Note="52" Velocity="0"/>
        </Event>
        <Event>
            <Absolute>69600</Absolute>
            <NoteOn Channel="1" Note="53" Velocity="100"/>
        </Event>
        <Event>
            <Absolute>69720</Absolute>
            <NoteOn Channel="1" Note="53" Velocity="0"/>
        </Event>
        <Event>
            <Absolute>69840</Absolute>
            <NoteOn Channel="1" Note="54" Velocity="100"/>
        </Event>
        <Event>
            <Absolute>69960</Absolute>
            <NoteOn Channel="1" Note="54" Velocity="0"/>
        </Event>
        <Event>
            <Absolute>70080</Absolute>
            <NoteOn Channel="1" Note="55" Velocity="100"/>
        </Event>
        <Event>
            <Absolute>70200</Absolute>
            <NoteOn Channel="1" Note="55" Velocity="0"/>
        </Event>
        <Event>
            <Absolute>70320</Absolute>
            <NoteOn Channel="1" Note="56" Velocity="100"/>
        </Event>
        <Event>
            <Absolute>70440</Absolute>
            <NoteOn Channel="1" Note="56" Velocity="0"/>
        </Event>
        <Event>
            <Absolute>70560</Absolute>
            <NoteOn Channel="1" Note="57" Velocity="100"/>
        </Event>
        <Event>
            <Absolute>70680</Absolute>
            <NoteOn Channel="1" Note="57" Velocity="0"/>
        </Event>
        <Event>
            <Absolute>70800</Absolute>
            <NoteOn Channel="1" Note="58" Velocity="100"/>
        </Event>
        <Event>
            <Absolute>70920</Absolute>
            <NoteOn Channel="1" Note="58" Velocity="0"/>
        </Event>
        <Event>
            <Absolute>71040</Absolute>
            <NoteOn Channel="1" Note="59" Velocity="100"/>
        </Event>
        <Event>
            <Absolute>71160</Absolute>
            <NoteOn Channel="1" Note="59" Velocity="0"/>
        </Event>
        <Event>
            <Absolute>71280</Absolute>
            <NoteOn Channel="1" Note="60" Velocity="100"/>
        </Event>
        <Event>
            <Absolute>71400</Absolute>
            <NoteOn Channel="1" Note="60" Velocity="0"/>
        </Event>
        <Event>
            <Absolute>71520</Absolute>
            <NoteOn Channel="1" Note="61" Velocity="100"/>
        </Event>
        <Event>
            <Absolute>71640</Absolute>
            <NoteOn Channel="1" Note="61" Velocity="0"/>
        </Event>
        <Event>
            <Absolute>71760</Absolute>
            <NoteOn Channel="1" Note="62" Velocity="100"/>
        </Event>
        <Event>
            <Absolute>71880</Absolute>
            <NoteOn Channel="1" Note="62" Velocity="0"/>
        </Event>
        <Event>
            <Absolute>72000</Absolute>
            <NoteOn Channel="1" Note="63" Velocity="100"/>
        </Event>
        <Event>
            <Absolute>72120</Absolute>
            <NoteOn Channel="1" Note="63" Velocity="0"/>
        </Event>
        <Event>
            <Absolute>72240</Absolute>
            <NoteOn Channel="1" Note="64" Velocity="100"/>
        </Event>
        <Event>
            <Absolute>72360</Absolute>
            <NoteOn Channel="1" Note="64" Velocity="0"/>
        </Event>
        <Event>
            <Absolute>72480</Absolute>
            <NoteOn Channel="1" Note="65" Velocity="100"/>
        </Event>
        <Event>
            <Absolute>72600</Absolute>
            <NoteOn Channel="1" Note="65" Velocity="0"/>
        </Event>
        <Event>
            <Absolute>72720</Absolute>
            <NoteOn Channel="1" Note="66" Velocity="100"/>
        </Event>
        <Event>
            <Absolute>72840</Absolute>
            <NoteOn Channel="1" Note="66" Velocity="0"/>
        </Event>
        <Event>
            <Absolute>72960</Absolute>
            <NoteOn Channel="1" Note="67" Velocity="100"/>
        </Event>
        <Event>
            <Absolute>73080</Absolute>
            <NoteOn Channel="1" Note="67" Velocity="0"/>
        </Event>
        <Event>
            <Absolute>73080</Absolute>
            <NoteOn Channel="1" Note="59" Velocity="100"/>
        </Event>
        <Event>
            <Absolute>73200</Absolute>
            <NoteOn Channel="1" Note="59" Velocity="0"/>
        </Event>
        <Event>
            <Absolute>73200</Absolute>
            <NoteOn Channel="1" Note="50" Velocity="100"/>
        </Event>
        <Event>
            <Absolute>73320</Absolute>
            <NoteOn Channel="1" Note="50" Velocity="0"/>
        </Event>
        <Event>
            <Absolute>73320</Absolute>
            <NoteOn Channel="1" Note="59" Velocity="100"/>
        </Event>
        <Event>
            <Absolute>73440</Absolute>
            <NoteOn Channel="1" Note="59" Velocity="0"/>
        </Event>
        <Event>
            <Absolute>73440</Absolute>
            <NoteOn Channel="1" Note="67" Velocity="100"/>
        </Event>
        <Event>
            <Absolute>73560</Absolute>
            <NoteOn Channel="1" Note="67" Velocity="0"/>
        </Event>
        <Event>
            <Absolute>73560</Absolute>
            <NoteOn Channel="1" Note="59" Velocity="100"/>
        </Event>
        <Event>
            <Absolute>73680</Absolute>
            <NoteOn Channel="1" Note="59" Velocity="0"/>
        </Event>
        <Event>
            <Absolute>73680</Absolute>
            <NoteOn Channel="1" Note="67" Velocity="100"/>
        </Event>
        <Event>
            <Absolute>73800</Absolute>
            <NoteOn Channel="1" Note="67" Velocity="0"/>
        </Event>
        <Event>
            <Absolute>73800</Absolute>
            <NoteOn Channel="1" Note="59" Velocity="100"/>
        </Event>
        <Event>
            <Absolute>73920</Absolute>
            <NoteOn Channel="1" Note="59" Velocity="0"/>
        </Event>
        <Event>
            <Absolute>73920</Absolute>
            <NoteOn Channel="1" Note="67" Velocity="100"/>
        </Event>
        <Event>
            <Absolute>74040</Absolute>
            <NoteOn Channel="1" Note="67" Velocity="0"/>
        </Event>
        <Event>
            <Absolute>74040</Absolute>
            <NoteOn Channel="1" Note="59" Velocity="100"/>
        </Event>
        <Event>
            <Absolute>74160</Absolute>
            <NoteOn Channel="1" Note="59" Velocity="0"/>
        </Event>
        <Event>
            <Absolute>74160</Absolute>
            <NoteOn Channel="1" Note="50" Velocity="100"/>
        </Event>
        <Event>
            <Absolute>74280</Absolute>
            <NoteOn Channel="1" Note="50" Velocity="0"/>
        </Event>
        <Event>
            <Absolute>74280</Absolute>
            <NoteOn Channel="1" Note="59" Velocity="100"/>
        </Event>
        <Event>
            <Absolute>74400</Absolute>
            <NoteOn Channel="1" Note="59" Velocity="0"/>
        </Event>
        <Event>
            <Absolute>74400</Absolute>
            <NoteOn Channel="1" Note="67" Velocity="100"/>
        </Event>
        <Event>
            <Absolute>74520</Absolute>
            <NoteOn Channel="1" Note="67" Velocity="0"/>
        </Event>
        <Event>
            <Absolute>74520</Absolute>
            <NoteOn Channel="1" Note="59" Velocity="100"/>
        </Event>
        <Event>
            <Absolute>74640</Absolute>
            <NoteOn Channel="1" Note="59" Velocity="0"/>
        </Event>
        <Event>
            <Absolute>74640</Absolute>
            <NoteOn Channel="1" Note="67" Velocity="100"/>
        </Event>
        <Event>
            <Absolute>74760</Absolute>
            <NoteOn Channel="1" Note="67" Velocity="0"/>
        </Event>
        <Event>
            <Absolute>74760</Absolute>
            <NoteOn Channel="1" Note="59" Velocity="100"/>
        </Event>
        <Event>
            <Absolute>74880</Absolute>
            <NoteOn Channel="1" Note="59" Velocity="0"/>
        </Event>
        <Event>
            <Absolute>74880</Absolute>
            <NoteOn Channel="1" Note="67" Velocity="100"/>
        </Event>
        <Event>
            <Absolute>75000</Absolute>
            <NoteOn Channel="1" Note="67" Velocity="0"/>
        </Event>
        <Event>
            <Absolute>75000</Absolute>
            <NoteOn Channel="1" Note="57" Velocity="100"/>
        </Event>
        <Event>
            <Absolute>75120</Absolute>
            <NoteOn Channel="1" Note="57" Velocity="0"/>
        </Event>
        <Event>
            <Absolute>75120</Absolute>
            <NoteOn Channel="1" Note="50" Velocity="100"/>
        </Event>
        <Event>
            <Absolute>75240</Absolute>
            <NoteOn Channel="1" Note="50" Velocity="0"/>
        </Event>
        <Event>
            <Absolute>75240</Absolute>
            <NoteOn Channel="1" Note="57" Velocity="100"/>
        </Event>
        <Event>
            <Absolute>75360</Absolute>
            <NoteOn Channel="1" Note="57" Velocity="0"/>
        </Event>
        <Event>
            <Absolute>75360</Absolute>
            <NoteOn Channel="1" Note="67" Velocity="100"/>
        </Event>
        <Event>
            <Absolute>75480</Absolute>
            <NoteOn Channel="1" Note="67" Velocity="0"/>
        </Event>
        <Event>
            <Absolute>75480</Absolute>
            <NoteOn Channel="1" Note="57" Velocity="100"/>
        </Event>
        <Event>
            <Absolute>75600</Absolute>
            <NoteOn Channel="1" Note="57" Velocity="0"/>
        </Event>
        <Event>
            <Absolute>75600</Absolute>
            <NoteOn Channel="1" Note="67" Velocity="100"/>
        </Event>
        <Event>
            <Absolute>75720</Absolute>
            <NoteOn Channel="1" Note="67" Velocity="0"/>
        </Event>
        <Event>
            <Absolute>75720</Absolute>
            <NoteOn Channel="1" Note="57" Velocity="100"/>
        </Event>
        <Event>
            <Absolute>75840</Absolute>
            <NoteOn Channel="1" Note="57" Velocity="0"/>
        </Event>
        <Event>
            <Absolute>75840</Absolute>
            <NoteOn Channel="1" Note="67" Velocity="100"/>
        </Event>
        <Event>
            <Absolute>75960</Absolute>
            <NoteOn Channel="1" Note="67" Velocity="0"/>
        </Event>
        <Event>
            <Absolute>75960</Absolute>
            <NoteOn Channel="1" Note="57" Velocity="100"/>
        </Event>
        <Event>
            <Absolute>76080</Absolute>
            <NoteOn Channel="1" Note="57" Velocity="0"/>
        </Event>
        <Event>
            <Absolute>76080</Absolute>
            <NoteOn Channel="1" Note="50" Velocity="100"/>
        </Event>
        <Event>
            <Absolute>76200</Absolute>
            <NoteOn Channel="1" Note="50" Velocity="0"/>
        </Event>
        <Event>
            <Absolute>76200</Absolute>
            <NoteOn Channel="1" Note="57" Velocity="100"/>
        </Event>
        <Event>
            <Absolute>76320</Absolute>
            <NoteOn Channel="1" Note="57" Velocity="0"/>
        </Event>
        <Event>
            <Absolute>76320</Absolute>
            <NoteOn Channel="1" Note="67" Velocity="100"/>
        </Event>
        <Event>
            <Absolute>76440</Absolute>
            <NoteOn Channel="1" Note="67" Velocity="0"/>
        </Event>
        <Event>
            <Absolute>76440</Absolute>
            <NoteOn Channel="1" Note="57" Velocity="100"/>
        </Event>
        <Event>
            <Absolute>76560</Absolute>
            <NoteOn Channel="1" Note="57" Velocity="0"/>
        </Event>
        <Event>
            <Absolute>76560</Absolute>
            <NoteOn Channel="1" Note="67" Velocity="100"/>
        </Event>
        <Event>
            <Absolute>76680</Absolute>
            <NoteOn Channel="1" Note="67" Velocity="0"/>
        </Event>
        <Event>
            <Absolute>76680</Absolute>
            <NoteOn Channel="1" Note="57" Velocity="100"/>
        </Event>
        <Event>
            <Absolute>76800</Absolute>
            <NoteOn Channel="1" Note="57" Velocity="0"/>
        </Event>
        <Event>
            <Absolute>76800</Absolute>
            <NoteOn Channel="1" Note="66" Velocity="100"/>
        </Event>
        <Event>
            <Absolute>76920</Absolute>
            <NoteOn Channel="1" Note="66" Velocity="0"/>
        </Event>
        <Event>
            <Absolute>76920</Absolute>
            <NoteOn Channel="1" Note="60" Velocity="100"/>
        </Event>
        <Event>
            <Absolute>77040</Absolute>
            <NoteOn Channel="1" Note="60" Velocity="0"/>
        </Event>
        <Event>
            <Absolute>77040</Absolute>
            <NoteOn Channel="1" Note="50" Velocity="100"/>
        </Event>
        <Event>
            <Absolute>77160</Absolute>
            <NoteOn Channel="1" Note="50" Velocity="0"/>
        </Event>
        <Event>
            <Absolute>77160</Absolute>
            <NoteOn Channel="1" Note="60" Velocity="100"/>
        </Event>
        <Event>
            <Absolute>77280</Absolute>
            <NoteOn Channel="1" Note="60" Velocity="0"/>
        </Event>
        <Event>
            <Absolute>77280</Absolute>
            <NoteOn Channel="1" Note="66" Velocity="100"/>
        </Event>
        <Event>
            <Absolute>77400</Absolute>
            <NoteOn Channel="1" Note="66" Velocity="0"/>
        </Event>
        <Event>
            <Absolute>77400</Absolute>
            <NoteOn Channel="1" Note="60" Velocity="100"/>
        </Event>
        <Event>
            <Absolute>77520</Absolute>
            <NoteOn Channel="1" Note="60" Velocity="0"/>
        </Event>
        <Event>
            <Absolute>77520</Absolute>
            <NoteOn Channel="1" Note="66" Velocity="100"/>
        </Event>
        <Event>
            <Absolute>77640</Absolute>
            <NoteOn Channel="1" Note="66" Velocity="0"/>
        </Event>
        <Event>
            <Absolute>77640</Absolute>
            <NoteOn Channel="1" Note="60" Velocity="100"/>
        </Event>
        <Event>
            <Absolute>77760</Absolute>
            <NoteOn Channel="1" Note="60" Velocity="0"/>
        </Event>
        <Event>
            <Absolute>77760</Absolute>
            <NoteOn Channel="1" Note="66" Velocity="100"/>
        </Event>
        <Event>
            <Absolute>77880</Absolute>
            <NoteOn Channel="1" Note="66" Velocity="0"/>
        </Event>
        <Event>
            <Absolute>77880</Absolute>
            <NoteOn Channel="1" Note="60" Velocity="100"/>
        </Event>
        <Event>
            <Absolute>78000</Absolute>
            <NoteOn Channel="1" Note="60" Velocity="0"/>
        </Event>
        <Event>
            <Absolute>78000</Absolute>
            <NoteOn Channel="1" Note="50" Velocity="100"/>
        </Event>
        <Event>
            <Absolute>78120</Absolute>
            <NoteOn Channel="1" Note="50" Velocity="0"/>
        </Event>
        <Event>
            <Absolute>78120</Absolute>
            <NoteOn Channel="1" Note="60" Velocity="100"/>
        </Event>
        <Event>
            <Absolute>78240</Absolute>
            <NoteOn Channel="1" Note="60" Velocity="0"/>
        </Event>
        <Event>
            <Absolute>78240</Absolute>
            <NoteOn Channel="1" Note="66" Velocity="100"/>
        </Event>
        <Event>
            <Absolute>78360</Absolute>
            <NoteOn Channel="1" Note="66" Velocity="0"/>
        </Event>
        <Event>
            <Absolute>78360</Absolute>
            <NoteOn Channel="1" Note="60" Velocity="100"/>
        </Event>
        <Event>
            <Absolute>78480</Absolute>
            <NoteOn Channel="1" Note="60" Velocity="0"/>
        </Event>
        <Event>
            <Absolute>78480</Absolute>
            <NoteOn Channel="1" Note="66" Velocity="100"/>
        </Event>
        <Event>
            <Absolute>78600</Absolute>
            <NoteOn Channel="1" Note="66" Velocity="0"/>
        </Event>
        <Event>
            <Absolute>78600</Absolute>
            <NoteOn Channel="1" Note="60" Velocity="100"/>
        </Event>
        <Event>
            <Absolute>78720</Absolute>
            <NoteOn Channel="1" Note="60" Velocity="0"/>
        </Event>
        <Event>
            <Absolute>78720</Absolute>
            <NoteOn Channel="1" Note="67" Velocity="100"/>
        </Event>
        <Event>
            <Absolute>80640</Absolute>
            <NoteOn Channel="1" Note="67" Velocity="0"/>
        </Event>
        <Event>
            <Absolute>80640</Absolute>
            <EndOfTrack/>
        </Event>
    </Track>

</MIDIFile>